G04*
G04 #@! TF.GenerationSoftware,Altium Limited,Altium Designer,24.1.2 (44)*
G04*
G04 Layer_Color=16711935*
%FSLAX43Y43*%
%MOMM*%
G71*
G04*
G04 #@! TF.SameCoordinates,85857616-AEEE-408E-85A9-4B0E556C0A2E*
G04*
G04*
G04 #@! TF.FilePolarity,Negative*
G04*
G01*
G75*
%ADD36C,2.203*%
%ADD37C,6.203*%
%ADD38O,2.703X2.203*%
%ADD39C,3.403*%
%ADD40C,3.759*%
%ADD41C,0.653*%
%ADD42C,0.803*%
D36*
X135763Y60579D02*
D03*
Y63119D02*
D03*
Y83439D02*
D03*
Y75819D02*
D03*
Y50419D02*
D03*
Y68199D02*
D03*
Y78359D02*
D03*
Y47879D02*
D03*
Y45339D02*
D03*
Y70739D02*
D03*
Y58039D02*
D03*
Y85979D02*
D03*
Y80899D02*
D03*
Y52959D02*
D03*
Y91059D02*
D03*
Y42799D02*
D03*
Y65659D02*
D03*
Y55499D02*
D03*
Y73279D02*
D03*
Y88519D02*
D03*
X151003Y83439D02*
D03*
Y75819D02*
D03*
Y50419D02*
D03*
Y68199D02*
D03*
Y78359D02*
D03*
Y47879D02*
D03*
Y45339D02*
D03*
Y70739D02*
D03*
Y58039D02*
D03*
Y85979D02*
D03*
Y80899D02*
D03*
Y52959D02*
D03*
Y63119D02*
D03*
Y91059D02*
D03*
Y42799D02*
D03*
Y65659D02*
D03*
Y60579D02*
D03*
Y55499D02*
D03*
Y73279D02*
D03*
Y88519D02*
D03*
X165989Y78232D02*
D03*
Y75692D02*
D03*
Y73152D02*
D03*
Y70612D02*
D03*
X130937Y75057D02*
D03*
Y72517D02*
D03*
Y69977D02*
D03*
Y67437D02*
D03*
D37*
X171450Y100330D02*
D03*
X111760D02*
D03*
X171450Y30099D02*
D03*
X111760Y30480D02*
D03*
D38*
X115316Y63373D02*
D03*
Y60833D02*
D03*
Y58293D02*
D03*
Y55753D02*
D03*
Y53213D02*
D03*
Y50673D02*
D03*
Y48133D02*
D03*
Y45593D02*
D03*
X166021Y65913D02*
D03*
Y63373D02*
D03*
Y60960D02*
D03*
Y58293D02*
D03*
Y55626D02*
D03*
Y53086D02*
D03*
D39*
X128143Y62103D02*
D03*
Y46609D02*
D03*
D40*
X158464Y64643D02*
D03*
Y54483D02*
D03*
D41*
X147955Y46101D02*
D03*
X124587Y40767D02*
D03*
X138938Y38608D02*
D03*
X112522D02*
D03*
X145669Y90043D02*
D03*
Y61468D02*
D03*
X138430D02*
D03*
Y55499D02*
D03*
X154178Y52959D02*
D03*
Y58293D02*
D03*
Y70739D02*
D03*
Y60960D02*
D03*
X133858Y47879D02*
D03*
Y75057D02*
D03*
D42*
X118110Y85217D02*
D03*
X163068Y63373D02*
D03*
X135763Y92710D02*
D03*
X168783Y70612D02*
D03*
X135636Y91175D02*
D03*
X168529Y34417D02*
D03*
X115824D02*
D03*
X163068Y70612D02*
D03*
X170307Y47879D02*
D03*
Y95504D02*
D03*
X166116Y47879D02*
D03*
Y40640D02*
D03*
X117729Y73152D02*
D03*
X117729Y40132D02*
D03*
X129921Y92329D02*
D03*
Y95758D02*
D03*
X121539Y89281D02*
D03*
M02*
