G04*
G04 #@! TF.GenerationSoftware,Altium Limited,Altium Designer,24.1.2 (44)*
G04*
G04 Layer_Color=255*
%FSLAX43Y43*%
%MOMM*%
G71*
G04*
G04 #@! TF.SameCoordinates,85857616-AEEE-408E-85A9-4B0E556C0A2E*
G04*
G04*
G04 #@! TF.FilePolarity,Positive*
G04*
G01*
G75*
%ADD19R,2.000X2.000*%
%ADD20R,1.750X2.650*%
%ADD21R,0.806X0.864*%
G04:AMPARAMS|DCode=22|XSize=1.97mm|YSize=0.6mm|CornerRadius=0.15mm|HoleSize=0mm|Usage=FLASHONLY|Rotation=180.000|XOffset=0mm|YOffset=0mm|HoleType=Round|Shape=RoundedRectangle|*
%AMROUNDEDRECTD22*
21,1,1.970,0.300,0,0,180.0*
21,1,1.670,0.600,0,0,180.0*
1,1,0.300,-0.835,0.150*
1,1,0.300,0.835,0.150*
1,1,0.300,0.835,-0.150*
1,1,0.300,-0.835,-0.150*
%
%ADD22ROUNDEDRECTD22*%
%ADD23R,3.100X1.800*%
%ADD24R,0.864X0.806*%
%ADD25R,0.900X1.450*%
G04:AMPARAMS|DCode=26|XSize=1.21mm|YSize=0.59mm|CornerRadius=0.148mm|HoleSize=0mm|Usage=FLASHONLY|Rotation=0.000|XOffset=0mm|YOffset=0mm|HoleType=Round|Shape=RoundedRectangle|*
%AMROUNDEDRECTD26*
21,1,1.210,0.295,0,0,0.0*
21,1,0.915,0.590,0,0,0.0*
1,1,0.295,0.458,-0.148*
1,1,0.295,-0.458,-0.148*
1,1,0.295,-0.458,0.148*
1,1,0.295,0.458,0.148*
%
%ADD26ROUNDEDRECTD26*%
%ADD43R,2.410X3.300*%
%ADD47C,2.000*%
%ADD48C,6.000*%
%ADD49O,2.500X2.000*%
%ADD50C,3.200*%
%ADD51C,3.556*%
D19*
X125222Y76740D02*
D03*
Y80740D02*
D03*
D20*
X133858Y102108D02*
D03*
X131699D02*
D03*
X161544D02*
D03*
X163703D02*
D03*
X165100Y28448D02*
D03*
X162814D02*
D03*
X120904D02*
D03*
X118618D02*
D03*
X120523Y102108D02*
D03*
X118364D02*
D03*
X167640Y91449D02*
D03*
Y95749D02*
D03*
X168529Y42028D02*
D03*
Y37728D02*
D03*
X115824Y41520D02*
D03*
Y37220D02*
D03*
X115649Y90433D02*
D03*
Y94733D02*
D03*
D21*
X118071Y83947D02*
D03*
X119577D02*
D03*
X114515Y66548D02*
D03*
X116021D02*
D03*
X119577Y86614D02*
D03*
X118071D02*
D03*
X126816Y90297D02*
D03*
X125310D02*
D03*
X133674Y91059D02*
D03*
X132168D02*
D03*
X152772Y96139D02*
D03*
X151266D02*
D03*
X155185Y38608D02*
D03*
X153679D02*
D03*
X129295Y36449D02*
D03*
X130801D02*
D03*
X127841Y93853D02*
D03*
X129347D02*
D03*
D22*
X126887Y87884D02*
D03*
Y86614D02*
D03*
Y85344D02*
D03*
Y84074D02*
D03*
X121937D02*
D03*
Y85344D02*
D03*
Y86614D02*
D03*
Y87884D02*
D03*
D23*
X119713Y75605D02*
D03*
Y80605D02*
D03*
D24*
X129873Y89290D02*
D03*
Y90796D02*
D03*
X128651Y80382D02*
D03*
Y78876D02*
D03*
X123444Y71383D02*
D03*
Y72889D02*
D03*
X129873Y84065D02*
D03*
Y82559D02*
D03*
Y85861D02*
D03*
Y87367D02*
D03*
X127762Y71637D02*
D03*
Y73143D02*
D03*
X132413Y85861D02*
D03*
Y87367D02*
D03*
X168740Y51587D02*
D03*
Y53093D02*
D03*
D25*
X161660Y92710D02*
D03*
X163460D02*
D03*
X161660Y95250D02*
D03*
X163460D02*
D03*
X162803Y40640D02*
D03*
X164603D02*
D03*
X162803Y37592D02*
D03*
X164603D02*
D03*
X120915D02*
D03*
X119115D02*
D03*
X120915Y40132D02*
D03*
X119115D02*
D03*
X120486Y94742D02*
D03*
X118686D02*
D03*
X120486Y92329D02*
D03*
X118686D02*
D03*
D26*
X155463Y96200D02*
D03*
X157973Y95250D02*
D03*
X155463Y94300D02*
D03*
X157495Y38542D02*
D03*
X160005Y37592D02*
D03*
X157495Y36642D02*
D03*
X126096Y36515D02*
D03*
X123586Y37465D02*
D03*
X126096Y38415D02*
D03*
X125413Y93792D02*
D03*
X122903Y94742D02*
D03*
X125413Y95692D02*
D03*
D43*
X124412Y85979D02*
D03*
D47*
X135763Y60579D02*
D03*
Y63119D02*
D03*
Y83439D02*
D03*
Y75819D02*
D03*
Y50419D02*
D03*
Y68199D02*
D03*
Y78359D02*
D03*
Y47879D02*
D03*
Y45339D02*
D03*
Y70739D02*
D03*
Y58039D02*
D03*
Y85979D02*
D03*
Y80899D02*
D03*
Y52959D02*
D03*
Y91059D02*
D03*
Y42799D02*
D03*
Y65659D02*
D03*
Y55499D02*
D03*
Y73279D02*
D03*
Y88519D02*
D03*
X151003Y83439D02*
D03*
Y75819D02*
D03*
Y50419D02*
D03*
Y68199D02*
D03*
Y78359D02*
D03*
Y47879D02*
D03*
Y45339D02*
D03*
Y70739D02*
D03*
Y58039D02*
D03*
Y85979D02*
D03*
Y80899D02*
D03*
Y52959D02*
D03*
Y63119D02*
D03*
Y91059D02*
D03*
Y42799D02*
D03*
Y65659D02*
D03*
Y60579D02*
D03*
Y55499D02*
D03*
Y73279D02*
D03*
Y88519D02*
D03*
X165989Y78232D02*
D03*
Y75692D02*
D03*
Y73152D02*
D03*
Y70612D02*
D03*
X130937Y75057D02*
D03*
Y72517D02*
D03*
Y69977D02*
D03*
Y67437D02*
D03*
D48*
X171450Y100330D02*
D03*
X111760D02*
D03*
X171450Y30099D02*
D03*
X111760Y30480D02*
D03*
D49*
X115316Y63373D02*
D03*
Y60833D02*
D03*
Y58293D02*
D03*
Y55753D02*
D03*
Y53213D02*
D03*
Y50673D02*
D03*
Y48133D02*
D03*
Y45593D02*
D03*
X166021Y65913D02*
D03*
Y63373D02*
D03*
Y60960D02*
D03*
Y58293D02*
D03*
Y55626D02*
D03*
Y53086D02*
D03*
D50*
X128143Y62103D02*
D03*
Y46609D02*
D03*
D51*
X158464Y64643D02*
D03*
Y54483D02*
D03*
M02*
