G04*
G04 #@! TF.GenerationSoftware,Altium Limited,Altium Designer,24.1.2 (44)*
G04*
G04 Layer_Color=65535*
%FSLAX43Y43*%
%MOMM*%
G71*
G04*
G04 #@! TF.SameCoordinates,85857616-AEEE-408E-85A9-4B0E556C0A2E*
G04*
G04*
G04 #@! TF.FilePolarity,Positive*
G04*
G01*
G75*
%ADD10C,0.254*%
%ADD11C,0.152*%
%ADD12C,0.200*%
%ADD13C,0.152*%
%ADD14C,0.127*%
%ADD15C,0.250*%
%ADD16C,0.178*%
%ADD17C,0.178*%
%ADD18C,0.203*%
G36*
X123472Y79490D02*
Y80240D01*
X123972D01*
Y79490D01*
X123472D01*
D02*
G37*
G36*
X126472D02*
Y80240D01*
X126972D01*
Y79490D01*
X126472D01*
D02*
G37*
D10*
X123986Y76490D02*
G03*
X123383Y76490I-302J-17298D01*
G01*
X127047Y76490D02*
Y80990D01*
X123397Y76490D02*
Y80990D01*
X126472D02*
X127047D01*
X123397D02*
X123972D01*
X126472Y76490D02*
X127047D01*
X113792Y43815D02*
X130428D01*
Y65278D01*
X113792D02*
X130428D01*
X113792Y43815D02*
Y65278D01*
X129667Y66174D02*
X132207D01*
X129667D02*
Y76327D01*
X132207D01*
Y66174D02*
Y76327D01*
X166370Y89798D02*
Y97418D01*
X168910D01*
Y89798D02*
Y97418D01*
X166370Y89798D02*
X168910D01*
X167481Y51689D02*
Y67183D01*
X156369Y51689D02*
X167481D01*
X156369Y67213D02*
X167481D01*
X156369Y59436D02*
Y67183D01*
Y51689D02*
Y59436D01*
X169799Y36059D02*
Y43679D01*
X167259Y36059D02*
X169799D01*
X167259D02*
Y43679D01*
X169799D01*
X117094Y35551D02*
Y43171D01*
X114554Y35551D02*
X117094D01*
X114554D02*
Y43171D01*
X117094D01*
X114379Y88782D02*
Y96402D01*
X116919D01*
Y88782D02*
Y96402D01*
X114379Y88782D02*
X116919D01*
X124536Y84124D02*
X124028D01*
X124282D01*
Y82855D01*
X124028Y82601D01*
X123774D01*
X123520Y82855D01*
X125044Y82601D02*
X125552D01*
X125298D01*
Y84124D01*
X125044Y83870D01*
D11*
X117436Y84598D02*
G03*
X117443Y83287I1733J-647D01*
G01*
X120210Y83294D02*
G03*
X120203Y84605I-1733J647D01*
G01*
X113880Y67199D02*
G03*
X113887Y65888I1733J-647D01*
G01*
X116654Y65895D02*
G03*
X116647Y67206I-1733J647D01*
G01*
X122793Y70748D02*
G03*
X124104Y70754I647J1733D01*
G01*
X124097Y73521D02*
G03*
X122786Y73515I-647J-1733D01*
G01*
X120213Y85963D02*
G03*
X120206Y87274I-1733J647D01*
G01*
X117439Y87267D02*
G03*
X117446Y85956I1733J-647D01*
G01*
X127452Y89646D02*
G03*
X127445Y90957I-1733J647D01*
G01*
X124678Y90950D02*
G03*
X124685Y89639I1733J-647D01*
G01*
X129222Y85226D02*
G03*
X130533Y85232I647J1733D01*
G01*
X130526Y87999D02*
G03*
X129215Y87993I-647J-1733D01*
G01*
X127111Y71002D02*
G03*
X128422Y71008I647J1733D01*
G01*
X128415Y73775D02*
G03*
X127104Y73769I-647J-1733D01*
G01*
X134310Y90408D02*
G03*
X134303Y91719I-1733J647D01*
G01*
X131536Y91712D02*
G03*
X131543Y90401I1733J-647D01*
G01*
X164066Y91772D02*
G03*
X164057Y93652I-2486J928D01*
G01*
X161050Y93654D02*
G03*
X161047Y91772I2480J-944D01*
G01*
X164066Y94312D02*
G03*
X164057Y96192I-2486J928D01*
G01*
X161050Y96194D02*
G03*
X161047Y94312I2480J-944D01*
G01*
X168089Y50952D02*
G03*
X169400Y50958I647J1733D01*
G01*
X169393Y53725D02*
G03*
X168082Y53719I-647J-1733D01*
G01*
X165209Y39702D02*
G03*
X165200Y41582I-2486J928D01*
G01*
X162193Y41584D02*
G03*
X162190Y39702I2480J-944D01*
G01*
X165209Y36654D02*
G03*
X165200Y38534I-2486J928D01*
G01*
X162193Y38536D02*
G03*
X162190Y36654I2480J-944D01*
G01*
X118509Y38530D02*
G03*
X118518Y36650I2486J-928D01*
G01*
X121525Y36648D02*
G03*
X121528Y38530I-2480J944D01*
G01*
X118509Y41070D02*
G03*
X118518Y39190I2486J-928D01*
G01*
X121525Y39188D02*
G03*
X121528Y41070I-2480J944D01*
G01*
X118080Y95680D02*
G03*
X118089Y93800I2486J-928D01*
G01*
X121096Y93798D02*
G03*
X121099Y95680I-2480J944D01*
G01*
X118080Y93267D02*
G03*
X118089Y91387I2486J-928D01*
G01*
X121096Y91385D02*
G03*
X121099Y93267I-2480J944D01*
G01*
X118828Y84120D02*
Y84391D01*
Y83491D02*
Y83745D01*
X118649D02*
X118999D01*
X118649Y84120D02*
X118999D01*
X129213Y91425D02*
X130535D01*
X129213Y88658D02*
X130534D01*
X129429Y90047D02*
X129700D01*
X130075D02*
X130329D01*
X130075Y89908D02*
Y90178D01*
X129700Y89908D02*
Y90178D01*
X129700Y89908D02*
X130075D01*
X129700Y90178D02*
X130075D01*
X127989Y78247D02*
X129311D01*
X127990Y81014D02*
X129311D01*
X128824Y79625D02*
X129095D01*
X128195D02*
X128449D01*
X128449Y79494D02*
Y79764D01*
X128824Y79494D02*
Y79764D01*
X128449D02*
X128824D01*
X128449Y79494D02*
X128824D01*
X115272Y66721D02*
Y66992D01*
Y66092D02*
Y66346D01*
X115093D02*
X115443D01*
X115093Y66721D02*
X115443D01*
X123000Y72140D02*
X123271D01*
X123646D02*
X123900D01*
X123646Y71961D02*
Y72311D01*
X123271Y71961D02*
Y72311D01*
X129211Y81930D02*
X130534D01*
X129212Y84697D02*
X130534D01*
X130046Y83308D02*
X130317D01*
X129417D02*
X129671D01*
X129671Y83177D02*
Y83447D01*
X130046Y83177D02*
Y83447D01*
X129671D02*
X130046D01*
X129671Y83177D02*
X130046D01*
X118820Y86170D02*
Y86441D01*
Y86816D02*
Y87070D01*
X118649Y86816D02*
X118999D01*
X118649Y86441D02*
X118999D01*
X126059Y89853D02*
Y90124D01*
Y90499D02*
Y90753D01*
X125888Y90499D02*
X126238D01*
X125888Y90124D02*
X126238D01*
X129429Y86618D02*
X129700D01*
X130075D02*
X130329D01*
X130075Y86439D02*
Y86789D01*
X129700Y86439D02*
Y86789D01*
X127318Y72394D02*
X127589D01*
X127964D02*
X128218D01*
X127964Y72215D02*
Y72565D01*
X127589Y72215D02*
Y72565D01*
X131753Y87996D02*
X133075D01*
X131753Y85229D02*
X133074D01*
X131969Y86618D02*
X132240D01*
X132615D02*
X132869D01*
X132615Y86479D02*
Y86749D01*
X132240Y86479D02*
Y86749D01*
X132240Y86479D02*
X132615D01*
X132240Y86749D02*
X132615D01*
X132917Y90615D02*
Y90886D01*
Y91261D02*
Y91515D01*
X132746Y91261D02*
X133096D01*
X132746Y90886D02*
X133096D01*
X162386Y92910D02*
X162736D01*
X162561D02*
Y93460D01*
Y91985D02*
Y92535D01*
X162386D02*
X162736D01*
X161051Y91760D02*
X164061D01*
X161061Y93660D02*
X164051Y93660D01*
X162386Y95450D02*
X162736D01*
X162561D02*
Y96000D01*
Y94525D02*
Y95075D01*
X162386D02*
X162736D01*
X161051Y94300D02*
X164061D01*
X161061Y96200D02*
X164051Y96200D01*
X150637Y95479D02*
Y96801D01*
X153404Y95479D02*
Y96800D01*
X152015Y95695D02*
Y95966D01*
Y96341D02*
Y96595D01*
X151884Y96341D02*
X152154D01*
X151884Y95966D02*
X152154D01*
Y95966D02*
Y96341D01*
X151884Y95966D02*
Y96341D01*
X168296Y52344D02*
X168567D01*
X168942D02*
X169196D01*
X168942Y52165D02*
Y52515D01*
X168567Y52165D02*
Y52515D01*
X163529Y40840D02*
X163879D01*
X163704D02*
Y41390D01*
Y39915D02*
Y40465D01*
X163529D02*
X163879D01*
X162194Y39690D02*
X165204D01*
X162204Y41590D02*
X165194Y41590D01*
X163529Y37792D02*
X163879D01*
X163704D02*
Y38342D01*
Y36867D02*
Y37417D01*
X163529D02*
X163879D01*
X162194Y36642D02*
X165204D01*
X162204Y38542D02*
X165194Y38542D01*
X119839Y37392D02*
X120189D01*
X120014Y36842D02*
Y37392D01*
Y37767D02*
Y38317D01*
X119839Y37767D02*
X120189D01*
X118514Y38542D02*
X121524D01*
X118524Y36642D02*
X121514Y36642D01*
X119839Y39932D02*
X120189D01*
X120014Y39382D02*
Y39932D01*
Y40307D02*
Y40857D01*
X119839Y40307D02*
X120189D01*
X118514Y41082D02*
X121524D01*
X118524Y39182D02*
X121514Y39182D01*
X119410Y94542D02*
X119760D01*
X119585Y93992D02*
Y94542D01*
Y94917D02*
Y95467D01*
X119410Y94917D02*
X119760D01*
X118085Y95692D02*
X121095D01*
X118095Y93792D02*
X121085Y93792D01*
X119410Y92129D02*
X119760D01*
X119585Y91579D02*
Y92129D01*
Y92504D02*
Y93054D01*
X119410Y92504D02*
X119760D01*
X118085Y93279D02*
X121095D01*
X118095Y91379D02*
X121085Y91379D01*
X153050Y37948D02*
Y39270D01*
X155817Y37948D02*
Y39269D01*
X154428Y38164D02*
Y38435D01*
Y38810D02*
Y39064D01*
X154297Y38810D02*
X154567D01*
X154297Y38435D02*
X154567D01*
Y38435D02*
Y38810D01*
X154297Y38435D02*
Y38810D01*
X131430Y35787D02*
Y37109D01*
X128663Y35788D02*
Y37109D01*
X130052Y36622D02*
Y36893D01*
Y35993D02*
Y36247D01*
X129913Y36247D02*
X130183D01*
X129913Y36622D02*
X130183D01*
X129913Y36247D02*
Y36622D01*
X130183Y36247D02*
Y36622D01*
X129976Y93191D02*
Y94513D01*
X127209Y93192D02*
Y94513D01*
X128598Y94026D02*
Y94297D01*
Y93397D02*
Y93651D01*
X128459Y93651D02*
X128729D01*
X128459Y94026D02*
X128729D01*
X128459Y93651D02*
Y94026D01*
X128729Y93651D02*
Y94026D01*
D12*
X120452Y88549D02*
G03*
X120452Y88549I-100J0D01*
G01*
X119813Y82105D02*
G03*
X119813Y82105I-100J0D01*
G01*
X154508Y96200D02*
G03*
X154508Y96200I-100J0D01*
G01*
X156540Y38542D02*
G03*
X156540Y38542I-100J0D01*
G01*
X127251Y36515D02*
G03*
X127251Y36515I-100J0D01*
G01*
X126568Y93792D02*
G03*
X126568Y93792I-100J0D01*
G01*
D13*
X117439Y84607D02*
X120203D01*
X117439Y83286D02*
X120203Y83285D01*
X129213Y88658D02*
Y91425D01*
X130534Y88658D02*
X130535Y91425D01*
X129311Y78247D02*
Y81014D01*
X127989Y78247D02*
X127990Y81014D01*
X113883Y67208D02*
X116647D01*
X113883Y65887D02*
X116647Y65886D01*
X122784Y70751D02*
Y73515D01*
X124105Y70751D02*
X124106Y73515D01*
X130533Y81930D02*
Y84697D01*
X129211Y81930D02*
X129212Y84697D01*
X117445Y85954D02*
X120209D01*
X117445Y87276D02*
X120209Y87275D01*
X124684Y89637D02*
X127448D01*
X124684Y90959D02*
X127448Y90958D01*
X129213Y85229D02*
Y87993D01*
X130534Y85229D02*
X130535Y87993D01*
X127102Y71005D02*
Y73769D01*
X128423Y71005D02*
X128424Y73769D01*
X131753Y85229D02*
Y87996D01*
X133074Y85229D02*
X133075Y87996D01*
X131542Y90399D02*
X134306D01*
X131542Y91721D02*
X134306Y91720D01*
X150637Y95479D02*
X153404D01*
X150637Y96801D02*
X153404Y96800D01*
X168080Y50955D02*
Y53719D01*
X169401Y50955D02*
X169402Y53719D01*
X153050Y37948D02*
X155817D01*
X153050Y39270D02*
X155817Y39269D01*
X128663Y37109D02*
X131430D01*
X128663Y35788D02*
X131430Y35787D01*
X127209Y94513D02*
X129976D01*
X127209Y93192D02*
X129976Y93191D01*
D14*
X122412Y83479D02*
X126412D01*
X122412Y88479D02*
X126412D01*
X116813Y75005D02*
X117850D01*
X116813D02*
Y81205D01*
X117850D01*
X121577Y75005D02*
X122613D01*
Y81205D01*
X121577D02*
X122613D01*
X167640Y92973D02*
Y93354D01*
X167259D02*
X167640D01*
X167259D02*
X167640Y93735D01*
X168021Y93354D01*
X167640D02*
X168021D01*
X167259Y93735D02*
X168021D01*
X167640D02*
Y94243D01*
X155818Y93700D02*
X157618D01*
X155818Y96800D02*
X157618D01*
X168529Y40123D02*
Y40504D01*
Y40123D02*
X168910D01*
X168529Y39742D02*
X168910Y40123D01*
X168148D02*
X168529Y39742D01*
X168148Y40123D02*
X168529D01*
X168148Y39742D02*
X168910D01*
X168529Y39234D02*
Y39742D01*
X115824Y39615D02*
Y39996D01*
Y39615D02*
X116205D01*
X115824Y39234D02*
X116205Y39615D01*
X115443D02*
X115824Y39234D01*
X115443Y39615D02*
X115824D01*
X115443Y39234D02*
X116205D01*
X115824Y38726D02*
Y39234D01*
X115649Y91957D02*
Y92338D01*
X115268D02*
X115649D01*
X115268D02*
X115649Y92719D01*
X116030Y92338D01*
X115649D02*
X116030D01*
X115268Y92719D02*
X116030D01*
X115649D02*
Y93227D01*
X157850Y36042D02*
X159650D01*
X157850Y39142D02*
X159650D01*
X123941Y39015D02*
X125741D01*
X123941Y35915D02*
X125741D01*
X123258Y96292D02*
X125058D01*
X123258Y93192D02*
X125058D01*
D15*
X127127Y60198D02*
X128876D01*
X128293Y59615D01*
X128876Y59032D01*
X127127D01*
Y58449D02*
X128876D01*
Y57574D01*
X128585Y57282D01*
X128002D01*
X127710Y57574D01*
Y58449D01*
X128876Y56699D02*
X127419D01*
X127127Y56408D01*
Y55824D01*
X127419Y55533D01*
X128876D01*
Y53783D02*
X128585Y54367D01*
X128002Y54950D01*
X127419D01*
X127127Y54658D01*
Y54075D01*
X127419Y53783D01*
X127710D01*
X128002Y54075D01*
Y54950D01*
X128585Y53200D02*
X128876Y52909D01*
Y52326D01*
X128585Y52034D01*
X127419D01*
X127127Y52326D01*
Y52909D01*
X127419Y53200D01*
X128585D01*
X128876Y50284D02*
Y51451D01*
X128002D01*
X128293Y50868D01*
Y50576D01*
X128002Y50284D01*
X127419D01*
X127127Y50576D01*
Y51159D01*
X127419Y51451D01*
X128585Y49701D02*
X128876Y49410D01*
Y48827D01*
X128585Y48535D01*
X127419D01*
X127127Y48827D01*
Y49410D01*
X127419Y49701D01*
X128585D01*
D16*
X117094Y47498D02*
Y48260D01*
X117475Y48641D01*
X117856Y48260D01*
Y47498D01*
Y48069D01*
X117094D01*
X118237Y48641D02*
Y47498D01*
X118808D01*
X118998Y47688D01*
Y48450D01*
X118808Y48641D01*
X118237D01*
X119951D02*
X119570D01*
X119379Y48450D01*
Y47688D01*
X119570Y47498D01*
X119951D01*
X120141Y47688D01*
Y48450D01*
X119951Y48641D01*
X117094Y51181D02*
X117856Y50038D01*
Y51181D02*
X117094Y50038D01*
X118998Y50990D02*
X118808Y51181D01*
X118427D01*
X118237Y50990D01*
Y50228D01*
X118427Y50038D01*
X118808D01*
X118998Y50228D01*
X119379Y51181D02*
Y50038D01*
X120141D01*
X117094Y53721D02*
X117856Y52578D01*
Y53721D02*
X117094Y52578D01*
X118237Y53721D02*
Y52578D01*
X118808D01*
X118998Y52768D01*
Y53530D01*
X118808Y53721D01*
X118237D01*
X119379Y52578D02*
Y53340D01*
X119760Y53721D01*
X120141Y53340D01*
Y52578D01*
Y53149D01*
X119379D01*
X117856Y56070D02*
X117665Y56261D01*
X117284D01*
X117094Y56070D01*
Y55880D01*
X117284Y55689D01*
X117665D01*
X117856Y55499D01*
Y55308D01*
X117665Y55118D01*
X117284D01*
X117094Y55308D01*
X118237Y56261D02*
Y55118D01*
X118808D01*
X118998Y55308D01*
Y56070D01*
X118808Y56261D01*
X118237D01*
X119379Y55118D02*
Y55880D01*
X119760Y56261D01*
X120141Y55880D01*
Y55118D01*
Y55689D01*
X119379D01*
X117856Y58610D02*
X117665Y58801D01*
X117284D01*
X117094Y58610D01*
Y58420D01*
X117284Y58229D01*
X117665D01*
X117856Y58039D01*
Y57848D01*
X117665Y57658D01*
X117284D01*
X117094Y57848D01*
X118998Y58610D02*
X118808Y58801D01*
X118427D01*
X118237Y58610D01*
Y57848D01*
X118427Y57658D01*
X118808D01*
X118998Y57848D01*
X119379Y58801D02*
Y57658D01*
X120141D01*
X117856Y61150D02*
X117665Y61341D01*
X117284D01*
X117094Y61150D01*
Y60388D01*
X117284Y60198D01*
X117665D01*
X117856Y60388D01*
Y60769D01*
X117475D01*
X118237Y60198D02*
Y61341D01*
X118998Y60198D01*
Y61341D01*
X119379D02*
Y60198D01*
X119951D01*
X120141Y60388D01*
Y61150D01*
X119951Y61341D01*
X119379D01*
X117094Y63881D02*
Y63119D01*
X117475Y62738D01*
X117856Y63119D01*
Y63881D01*
X118998Y63690D02*
X118808Y63881D01*
X118427D01*
X118237Y63690D01*
Y62928D01*
X118427Y62738D01*
X118808D01*
X118998Y62928D01*
X120141Y63690D02*
X119951Y63881D01*
X119570D01*
X119379Y63690D01*
Y62928D01*
X119570Y62738D01*
X119951D01*
X120141Y62928D01*
D17*
X117094Y46101D02*
X117475D01*
X117284D01*
Y44958D01*
X117094D01*
X117475D01*
X118046D02*
Y46101D01*
X118808Y44958D01*
Y46101D01*
X119189D02*
X119951D01*
X119570D01*
Y44958D01*
D18*
X157753Y57099D02*
X158642D01*
Y57544D01*
X158494Y57692D01*
X158346D01*
X158198Y57544D01*
Y57099D01*
Y57544D01*
X158050Y57692D01*
X157901D01*
X157753Y57544D01*
Y57099D01*
X158642Y57988D02*
X157753D01*
X158050Y58284D01*
X157753Y58580D01*
X158642D01*
Y58877D02*
X157753D01*
Y59321D01*
X157901Y59469D01*
X158198D01*
X158346Y59321D01*
Y58877D01*
X158642Y60358D02*
Y59765D01*
X158050Y60358D01*
X157901D01*
X157753Y60210D01*
Y59913D01*
X157901Y59765D01*
Y60654D02*
X157753Y60802D01*
Y61098D01*
X157901Y61247D01*
X158050D01*
X158198Y61098D01*
X158346Y61247D01*
X158494D01*
X158642Y61098D01*
Y60802D01*
X158494Y60654D01*
X158346D01*
X158198Y60802D01*
X158050Y60654D01*
X157901D01*
X158198Y60802D02*
Y61098D01*
X157901Y61543D02*
X157753Y61691D01*
Y61987D01*
X157901Y62135D01*
X158494D01*
X158642Y61987D01*
Y61691D01*
X158494Y61543D01*
X157901D01*
X164357Y52645D02*
Y53312D01*
X164024Y53645D01*
X163691Y53312D01*
Y52645D01*
X162691Y52812D02*
X162858Y52645D01*
X163191D01*
X163357Y52812D01*
Y53478D01*
X163191Y53645D01*
X162858D01*
X162691Y53478D01*
X161691Y52812D02*
X161858Y52645D01*
X162191D01*
X162358Y52812D01*
Y53478D01*
X162191Y53645D01*
X161858D01*
X161691Y53478D01*
X163703Y55293D02*
X163870Y55126D01*
X164203D01*
X164370Y55293D01*
Y55959D01*
X164203Y56126D01*
X163870D01*
X163703Y55959D01*
Y55626D01*
X164037D01*
X163370Y56126D02*
Y55126D01*
X162704Y56126D01*
Y55126D01*
X162370D02*
Y56126D01*
X161871D01*
X161704Y55959D01*
Y55293D01*
X161871Y55126D01*
X162370D01*
X163703Y57960D02*
X163870Y57793D01*
X164203D01*
X164370Y57960D01*
Y58127D01*
X164203Y58293D01*
X163870D01*
X163703Y58460D01*
Y58626D01*
X163870Y58793D01*
X164203D01*
X164370Y58626D01*
X162704Y57960D02*
X162870Y57793D01*
X163203D01*
X163370Y57960D01*
Y58626D01*
X163203Y58793D01*
X162870D01*
X162704Y58626D01*
X162370Y57793D02*
Y58793D01*
X161704D01*
X163703Y60627D02*
X163870Y60460D01*
X164203D01*
X164370Y60627D01*
Y60794D01*
X164203Y60960D01*
X163870D01*
X163703Y61127D01*
Y61293D01*
X163870Y61460D01*
X164203D01*
X164370Y61293D01*
X163370Y60460D02*
Y61460D01*
X162870D01*
X162704Y61293D01*
Y60627D01*
X162870Y60460D01*
X163370D01*
X162370Y61460D02*
Y60794D01*
X162037Y60460D01*
X161704Y60794D01*
Y61460D01*
Y60960D01*
X162370D01*
X163703Y63040D02*
X163870Y62873D01*
X164203D01*
X164370Y63040D01*
Y63706D01*
X164203Y63873D01*
X163870D01*
X163703Y63706D01*
X162704Y63040D02*
X162870Y62873D01*
X163203D01*
X163370Y63040D01*
Y63207D01*
X163203Y63373D01*
X162870D01*
X162704Y63540D01*
Y63706D01*
X162870Y63873D01*
X163203D01*
X163370Y63706D01*
X162370Y62873D02*
Y63873D01*
X161871D01*
X161704Y63706D01*
Y63540D01*
X161871Y63373D01*
X162370D01*
X161871D01*
X161704Y63207D01*
Y63040D01*
X161871Y62873D01*
X162370D01*
X163703Y65580D02*
X163870Y65413D01*
X164203D01*
X164370Y65580D01*
Y65747D01*
X164203Y65913D01*
X163870D01*
X163703Y66080D01*
Y66246D01*
X163870Y66413D01*
X164203D01*
X164370Y66246D01*
X163370Y65413D02*
Y66413D01*
X162870D01*
X162704Y66246D01*
Y65580D01*
X162870Y65413D01*
X163370D01*
X161871D02*
X162204D01*
X162370Y65580D01*
Y66246D01*
X162204Y66413D01*
X161871D01*
X161704Y66246D01*
Y65580D01*
X161871Y65413D01*
M02*
