G04*
G04 #@! TF.GenerationSoftware,Altium Limited,Altium Designer,24.1.2 (44)*
G04*
G04 Layer_Physical_Order=1*
G04 Layer_Color=255*
%FSLAX43Y43*%
%MOMM*%
G71*
G04*
G04 #@! TF.SameCoordinates,85857616-AEEE-408E-85A9-4B0E556C0A2E*
G04*
G04*
G04 #@! TF.FilePolarity,Positive*
G04*
G01*
G75*
%ADD19R,2.000X2.000*%
%ADD20R,1.750X2.650*%
%ADD21R,0.806X0.864*%
G04:AMPARAMS|DCode=22|XSize=1.97mm|YSize=0.6mm|CornerRadius=0.15mm|HoleSize=0mm|Usage=FLASHONLY|Rotation=180.000|XOffset=0mm|YOffset=0mm|HoleType=Round|Shape=RoundedRectangle|*
%AMROUNDEDRECTD22*
21,1,1.970,0.300,0,0,180.0*
21,1,1.670,0.600,0,0,180.0*
1,1,0.300,-0.835,0.150*
1,1,0.300,0.835,0.150*
1,1,0.300,0.835,-0.150*
1,1,0.300,-0.835,-0.150*
%
%ADD22ROUNDEDRECTD22*%
%ADD23R,3.100X1.800*%
%ADD24R,0.864X0.806*%
%ADD25R,0.900X1.450*%
G04:AMPARAMS|DCode=26|XSize=1.21mm|YSize=0.59mm|CornerRadius=0.148mm|HoleSize=0mm|Usage=FLASHONLY|Rotation=0.000|XOffset=0mm|YOffset=0mm|HoleType=Round|Shape=RoundedRectangle|*
%AMROUNDEDRECTD26*
21,1,1.210,0.295,0,0,0.0*
21,1,0.915,0.590,0,0,0.0*
1,1,0.295,0.458,-0.148*
1,1,0.295,-0.458,-0.148*
1,1,0.295,-0.458,0.148*
1,1,0.295,0.458,0.148*
%
%ADD26ROUNDEDRECTD26*%
%ADD43R,2.410X3.300*%
%ADD44C,0.800*%
%ADD45C,1.000*%
%ADD46C,0.600*%
%ADD47C,2.000*%
%ADD48C,6.000*%
%ADD49O,2.500X2.000*%
%ADD50C,3.200*%
%ADD51C,3.556*%
%ADD52C,0.450*%
%ADD53C,0.600*%
G36*
X169550Y104163D02*
X173106D01*
X175138Y102131D01*
Y101115D01*
X175265Y100988D01*
Y28471D01*
X172979Y26185D01*
X110876D01*
X110749Y26058D01*
X108082Y28725D01*
Y101623D01*
X110368Y103909D01*
X110876D01*
X111257Y104290D01*
X169423D01*
X169550Y104163D01*
D02*
G37*
%LPC*%
G36*
X134987Y103687D02*
X133985D01*
Y102235D01*
X134987D01*
Y103687D01*
D02*
G37*
G36*
Y101981D02*
X133985D01*
Y100529D01*
X134987D01*
Y101981D01*
D02*
G37*
G36*
X171706Y103584D02*
X171194D01*
X170688Y103504D01*
X170201Y103346D01*
X169745Y103113D01*
X169330Y102812D01*
X168968Y102450D01*
X168667Y102035D01*
X168434Y101579D01*
X168276Y101092D01*
X168196Y100586D01*
Y100074D01*
X168276Y99568D01*
X168434Y99081D01*
X168667Y98625D01*
X168968Y98210D01*
X169330Y97848D01*
X169745Y97547D01*
X170201Y97314D01*
X170688Y97156D01*
X171194Y97076D01*
X171706D01*
X172212Y97156D01*
X172699Y97314D01*
X173155Y97547D01*
X173570Y97848D01*
X173932Y98210D01*
X174233Y98625D01*
X174466Y99081D01*
X174624Y99568D01*
X174704Y100074D01*
Y100586D01*
X174624Y101092D01*
X174466Y101579D01*
X174233Y102035D01*
X173932Y102450D01*
X173570Y102812D01*
X173155Y103113D01*
X172699Y103346D01*
X172212Y103504D01*
X171706Y103584D01*
D02*
G37*
G36*
X112016D02*
X111504D01*
X110998Y103504D01*
X110511Y103346D01*
X110055Y103113D01*
X109640Y102812D01*
X109278Y102450D01*
X108977Y102035D01*
X108744Y101579D01*
X108586Y101092D01*
X108506Y100586D01*
Y100074D01*
X108586Y99568D01*
X108744Y99081D01*
X108977Y98625D01*
X109278Y98210D01*
X109640Y97848D01*
X110055Y97547D01*
X110511Y97314D01*
X110998Y97156D01*
X111504Y97076D01*
X112016D01*
X112522Y97156D01*
X113009Y97314D01*
X113465Y97547D01*
X113880Y97848D01*
X114242Y98210D01*
X114543Y98625D01*
X114776Y99081D01*
X114934Y99568D01*
X115014Y100074D01*
Y100586D01*
X114934Y101092D01*
X114776Y101579D01*
X114543Y102035D01*
X114242Y102450D01*
X113880Y102812D01*
X113465Y103113D01*
X113009Y103346D01*
X112522Y103504D01*
X112016Y103584D01*
D02*
G37*
G36*
X125871Y96249D02*
X125540D01*
Y95819D01*
X126280D01*
Y95840D01*
X126249Y95996D01*
X126160Y96129D01*
X126028Y96218D01*
X125871Y96249D01*
D02*
G37*
G36*
X125286D02*
X124956D01*
X124799Y96218D01*
X124666Y96129D01*
X124578Y95996D01*
X124547Y95840D01*
Y95819D01*
X125286D01*
Y96249D01*
D02*
G37*
G36*
X168769Y97328D02*
X166511D01*
Y95783D01*
X164164D01*
Y96229D01*
X162756D01*
Y94271D01*
X162800D01*
Y93689D01*
X162756D01*
Y91731D01*
X164164D01*
Y93689D01*
X164120D01*
Y94271D01*
X164164D01*
Y94463D01*
X166511D01*
Y94170D01*
X168769D01*
Y94844D01*
X170307D01*
X170478Y94867D01*
X170637Y94933D01*
X170773Y95038D01*
X170878Y95174D01*
X170944Y95333D01*
X170967Y95504D01*
X170944Y95675D01*
X170878Y95834D01*
X170773Y95970D01*
X170637Y96075D01*
X170478Y96141D01*
X170307Y96164D01*
X168769D01*
Y97328D01*
D02*
G37*
G36*
X121652Y103687D02*
X117235D01*
Y100529D01*
X117621D01*
X117678Y95588D01*
X117589Y95498D01*
X116778D01*
Y96312D01*
X114520D01*
Y95122D01*
X113792D01*
X113595Y95096D01*
X113412Y95020D01*
X113254Y94899D01*
X112365Y94010D01*
X112244Y93852D01*
X112168Y93669D01*
X112142Y93472D01*
Y88852D01*
X112168Y88656D01*
X112244Y88472D01*
X112365Y88315D01*
X113270Y87410D01*
X113428Y87289D01*
X113609Y87214D01*
X114783Y86039D01*
Y74422D01*
X114806Y74251D01*
X114872Y74092D01*
X114977Y73956D01*
X116247Y72686D01*
X116383Y72581D01*
X116542Y72515D01*
X116713Y72492D01*
X117729D01*
X117900Y72515D01*
X118059Y72581D01*
X118195Y72686D01*
X118300Y72822D01*
X118366Y72981D01*
X118389Y73152D01*
X118366Y73323D01*
X118300Y73482D01*
X118195Y73618D01*
X118059Y73723D01*
X117900Y73789D01*
X117729Y73812D01*
X116986D01*
X116103Y74695D01*
Y86312D01*
X116080Y86483D01*
X116014Y86642D01*
X115909Y86779D01*
X115541Y87148D01*
X115589Y87265D01*
X117414D01*
Y86741D01*
X118071D01*
X118728D01*
Y87113D01*
X118841Y87194D01*
X118905Y87168D01*
X118920Y87152D01*
Y85928D01*
X119423D01*
X119476Y85801D01*
X119040Y85365D01*
X118919Y85207D01*
X118843Y85024D01*
X118818Y84838D01*
X118810Y84823D01*
X118690Y84754D01*
X118675Y84760D01*
Y85217D01*
X118664Y85272D01*
Y85327D01*
X118643Y85379D01*
X118632Y85433D01*
X118601Y85479D01*
X118580Y85531D01*
X118540Y85570D01*
X118509Y85616D01*
X118463Y85647D01*
X118424Y85687D01*
X118372Y85708D01*
X118326Y85739D01*
X118272Y85750D01*
X118220Y85771D01*
X118165D01*
X118110Y85782D01*
X118055Y85771D01*
X118000D01*
X117948Y85750D01*
X117894Y85739D01*
X117848Y85708D01*
X117796Y85687D01*
X117757Y85647D01*
X117711Y85616D01*
X117680Y85570D01*
X117640Y85531D01*
X117619Y85479D01*
X117588Y85433D01*
X117577Y85379D01*
X117556Y85327D01*
Y85272D01*
X117545Y85217D01*
Y84633D01*
X117414D01*
Y83261D01*
X118690D01*
X118728Y83261D01*
X118817Y83171D01*
Y81759D01*
X117909D01*
Y79451D01*
X121517D01*
Y79912D01*
X123968D01*
Y79486D01*
X126476D01*
Y81994D01*
X123968D01*
Y81433D01*
X121517D01*
Y81759D01*
X120338D01*
Y83947D01*
Y84512D01*
X120605Y84779D01*
X121937D01*
X121952Y84782D01*
X122772D01*
X122823Y84709D01*
X122822Y84708D01*
X122728Y84636D01*
X122064D01*
Y84074D01*
Y83512D01*
X122772D01*
X122930Y83543D01*
X123064Y83633D01*
X123153Y83766D01*
X123184Y83924D01*
Y84075D01*
X124285D01*
Y85979D01*
Y87883D01*
X123184D01*
Y88034D01*
X123153Y88192D01*
X123064Y88325D01*
X122930Y88415D01*
X122772Y88446D01*
X122232D01*
Y89153D01*
X122232Y89153D01*
X122189Y89369D01*
X122067Y89552D01*
X122067Y89552D01*
X121938Y89680D01*
X121892Y89711D01*
X121853Y89751D01*
X121801Y89772D01*
X121755Y89803D01*
X121701Y89814D01*
X121649Y89835D01*
X121594D01*
X121539Y89846D01*
X121484Y89835D01*
X121429D01*
X121377Y89814D01*
X121345Y89807D01*
X121292Y89867D01*
X121270Y89912D01*
X122614Y91256D01*
X128585D01*
X129187Y90654D01*
Y90139D01*
X130559D01*
Y91453D01*
X130486D01*
Y92329D01*
X130475Y92384D01*
Y92439D01*
X130454Y92491D01*
X130443Y92545D01*
X130412Y92591D01*
X130391Y92643D01*
X130351Y92682D01*
X130320Y92728D01*
X130274Y92759D01*
X130235Y92799D01*
X130183Y92820D01*
X130137Y92851D01*
X130083Y92862D01*
X130031Y92883D01*
X129976D01*
X129921Y92894D01*
X129866Y92883D01*
X129811D01*
X129759Y92862D01*
X129705Y92851D01*
X129659Y92820D01*
X129607Y92799D01*
X129568Y92759D01*
X129522Y92728D01*
X129491Y92682D01*
X129451Y92643D01*
X129430Y92591D01*
X129399Y92545D01*
X129388Y92491D01*
X129367Y92439D01*
Y92384D01*
X129356Y92329D01*
Y92249D01*
X129239Y92200D01*
X129219Y92220D01*
X129036Y92343D01*
X128819Y92386D01*
X128819Y92386D01*
X122380D01*
X122380Y92386D01*
X122164Y92343D01*
X121981Y92220D01*
X121981Y92220D01*
X121308Y91547D01*
X121190Y91596D01*
Y91788D01*
X121197Y91838D01*
Y92074D01*
X121221Y92132D01*
X121247Y92329D01*
Y93981D01*
X121491D01*
X121688Y94007D01*
X121872Y94083D01*
X121994Y94177D01*
X122903D01*
X122944Y94185D01*
X123361D01*
X123518Y94216D01*
X123650Y94305D01*
X123739Y94438D01*
X123770Y94594D01*
Y94890D01*
X123739Y95046D01*
X123650Y95179D01*
X123518Y95268D01*
X123361Y95299D01*
X122944D01*
X122903Y95307D01*
X121994D01*
X121872Y95401D01*
X121688Y95477D01*
X121491Y95503D01*
X121298D01*
Y99836D01*
X121272Y100033D01*
X121196Y100217D01*
X121099Y100343D01*
X121098Y100439D01*
X121188Y100529D01*
X121652D01*
Y103687D01*
D02*
G37*
G36*
X151266Y96900D02*
X147828D01*
X147631Y96874D01*
X147448Y96798D01*
X147290Y96677D01*
X145131Y94518D01*
X145010Y94360D01*
X144934Y94177D01*
X144908Y93980D01*
Y90043D01*
X144934Y89846D01*
X145010Y89663D01*
X145131Y89505D01*
X145289Y89384D01*
X145472Y89308D01*
X145669Y89282D01*
X145866Y89308D01*
X146049Y89384D01*
X146207Y89505D01*
X146328Y89663D01*
X146404Y89846D01*
X146430Y90043D01*
Y93665D01*
X148143Y95378D01*
X151266D01*
X151463Y95404D01*
X151580Y95453D01*
X151923D01*
Y95757D01*
X151925Y95759D01*
X151988Y95912D01*
X152115Y95886D01*
Y95453D01*
X153429D01*
Y95635D01*
X155463D01*
X155503Y95643D01*
X155921D01*
X156077Y95674D01*
X156210Y95763D01*
X156299Y95896D01*
X156330Y96052D01*
Y96348D01*
X156299Y96504D01*
X156210Y96637D01*
X156077Y96726D01*
X155921Y96757D01*
X155503D01*
X155463Y96765D01*
X153429D01*
Y96825D01*
X152115D01*
Y96392D01*
X151988Y96366D01*
X151925Y96519D01*
X151923Y96521D01*
Y96825D01*
X151580D01*
X151463Y96874D01*
X151266Y96900D01*
D02*
G37*
G36*
X133731Y103687D02*
X130570D01*
Y100529D01*
X131155D01*
X131192Y97846D01*
Y97827D01*
X129522Y96157D01*
X129491Y96111D01*
X129451Y96072D01*
X129430Y96020D01*
X129399Y95974D01*
X129388Y95920D01*
X129367Y95868D01*
Y95813D01*
X129356Y95758D01*
X129367Y95703D01*
Y95648D01*
X129388Y95596D01*
X129399Y95542D01*
X129430Y95496D01*
X129451Y95444D01*
X129491Y95405D01*
X129522Y95359D01*
X129568Y95328D01*
X129607Y95288D01*
X129659Y95267D01*
X129705Y95236D01*
X129759Y95225D01*
X129811Y95204D01*
X129866D01*
X129921Y95193D01*
X129976Y95204D01*
X130031D01*
X130083Y95225D01*
X130137Y95236D01*
X130183Y95267D01*
X130235Y95288D01*
X130274Y95328D01*
X130320Y95359D01*
X131980Y97018D01*
X132156Y97194D01*
X132156Y97194D01*
X132278Y97377D01*
X132321Y97593D01*
X132321Y97593D01*
Y97850D01*
X132320Y97854D01*
X132321Y97858D01*
X132286Y100439D01*
X132376Y100529D01*
X133731D01*
Y102108D01*
Y103687D01*
D02*
G37*
G36*
X126280Y95565D02*
X125540D01*
Y95135D01*
X125871D01*
X126028Y95166D01*
X126160Y95255D01*
X126249Y95388D01*
X126280Y95545D01*
Y95565D01*
D02*
G37*
G36*
X125286D02*
X124547D01*
Y95545D01*
X124578Y95388D01*
X124666Y95255D01*
X124799Y95166D01*
X124956Y95135D01*
X125286D01*
Y95565D01*
D02*
G37*
G36*
X155921Y94857D02*
X155590D01*
Y94427D01*
X156330D01*
Y94448D01*
X156299Y94604D01*
X156210Y94737D01*
X156077Y94826D01*
X155921Y94857D01*
D02*
G37*
G36*
X155336D02*
X155005D01*
X154849Y94826D01*
X154716Y94737D01*
X154627Y94604D01*
X154596Y94448D01*
Y94427D01*
X155336D01*
Y94857D01*
D02*
G37*
G36*
X128498Y94539D02*
X127184D01*
Y94362D01*
X125418D01*
X125418Y94362D01*
X125353Y94349D01*
X124956D01*
X124799Y94318D01*
X124666Y94229D01*
X124578Y94096D01*
X124547Y93939D01*
Y93645D01*
X124578Y93488D01*
X124666Y93355D01*
X124799Y93266D01*
X124956Y93235D01*
X125373D01*
X125413Y93227D01*
X125439Y93232D01*
X127184D01*
Y93167D01*
X128498D01*
Y94539D01*
D02*
G37*
G36*
X156330Y94173D02*
X155590D01*
Y93743D01*
X155921D01*
X156077Y93774D01*
X156210Y93863D01*
X156299Y93996D01*
X156330Y94152D01*
Y94173D01*
D02*
G37*
G36*
X155336D02*
X154596D01*
Y94152D01*
X154627Y93996D01*
X154716Y93863D01*
X154849Y93774D01*
X155005Y93743D01*
X155336D01*
Y94173D01*
D02*
G37*
G36*
X130004Y94539D02*
X128690D01*
Y93873D01*
X128688Y93853D01*
X128690Y93833D01*
Y93167D01*
X130004D01*
Y93193D01*
X135149D01*
X135212Y93066D01*
X135192Y93040D01*
X135126Y92881D01*
X135103Y92710D01*
Y92126D01*
X134993Y92062D01*
X134760Y91829D01*
X134696Y91719D01*
X134331D01*
Y91745D01*
X133017D01*
Y91079D01*
X133015Y91059D01*
Y88024D01*
X131727D01*
Y87932D01*
X130559D01*
Y88024D01*
X129187D01*
Y86710D01*
X130559D01*
Y86802D01*
X131727D01*
Y86710D01*
X133015D01*
Y86518D01*
X132540D01*
Y85861D01*
Y85204D01*
X133015D01*
Y83919D01*
X129454Y80358D01*
X129337Y80407D01*
Y81039D01*
X129216D01*
Y81407D01*
X129173Y81623D01*
X129050Y81806D01*
X129050Y81806D01*
X127523Y83334D01*
X127532Y83391D01*
X127581Y83500D01*
X127581Y83500D01*
X129187D01*
Y83408D01*
X130559D01*
Y84722D01*
X129187D01*
Y84630D01*
X127753D01*
X127722Y84636D01*
X127587D01*
X127572Y84639D01*
X127572Y84639D01*
X126887D01*
X126873Y84636D01*
X126052D01*
X126002Y84709D01*
X126002Y84710D01*
X126097Y84782D01*
X126873D01*
X126887Y84779D01*
X128476D01*
X128476Y84779D01*
X128693Y84822D01*
X128876Y84945D01*
X129124Y85193D01*
X129770D01*
X129770Y85193D01*
X129825Y85204D01*
X130559D01*
Y86518D01*
X129187D01*
Y86323D01*
X128890D01*
X128793Y86303D01*
X128730Y86420D01*
X128876Y86566D01*
X128876Y86566D01*
X128998Y86749D01*
X129041Y86965D01*
X129041Y86965D01*
Y88627D01*
X129870D01*
X129913Y88633D01*
X130559D01*
Y89947D01*
X129893D01*
X129873Y89950D01*
X129853Y89947D01*
X129187D01*
Y89947D01*
X128863D01*
X128693Y89924D01*
X128534Y89858D01*
X128397Y89753D01*
X128391Y89747D01*
X128286Y89611D01*
X128220Y89452D01*
X128219Y89441D01*
X128077Y89299D01*
X127955Y89116D01*
X127912Y88900D01*
X127912Y88900D01*
Y88535D01*
X127785Y88434D01*
X127722Y88446D01*
X127402D01*
Y88575D01*
X127406Y88579D01*
X127472Y88738D01*
X127494Y88909D01*
Y90297D01*
X127473Y90454D01*
Y90983D01*
X126159D01*
Y90343D01*
X126154Y90300D01*
X126159Y90257D01*
Y89611D01*
X126175D01*
Y88968D01*
X126166Y88900D01*
X126188Y88729D01*
X126254Y88570D01*
X126212Y88446D01*
X126052D01*
X125895Y88415D01*
X125761Y88325D01*
X125672Y88192D01*
X125640Y88034D01*
Y87883D01*
X124539D01*
Y85979D01*
Y84075D01*
X125640D01*
Y83924D01*
X125672Y83766D01*
X125761Y83633D01*
X125895Y83543D01*
X126052Y83512D01*
X126323D01*
Y83171D01*
X126323Y83171D01*
X126366Y82954D01*
X126488Y82771D01*
X128086Y81173D01*
Y81039D01*
X127965D01*
Y79725D01*
X128391D01*
X128444Y79604D01*
X128388Y79533D01*
X127965D01*
Y78219D01*
X127991D01*
Y77108D01*
X126593Y75710D01*
X126476Y75759D01*
Y76613D01*
X125349D01*
Y75486D01*
X126203D01*
X126252Y75369D01*
X124441Y73558D01*
X120836D01*
X120373Y74021D01*
Y74451D01*
X121517D01*
Y76759D01*
X117909D01*
Y74451D01*
X119054D01*
Y73748D01*
Y69695D01*
X116599Y67240D01*
X116024D01*
X115982Y67234D01*
X115364D01*
Y66597D01*
X115362Y66577D01*
Y66568D01*
X115359Y66545D01*
Y66155D01*
X115299Y66108D01*
X115172Y66166D01*
Y66421D01*
X114642D01*
Y65862D01*
X114928D01*
X114977Y65745D01*
X114723Y65490D01*
X114618Y65354D01*
X114552Y65195D01*
X114529Y65024D01*
Y64508D01*
X114434Y64468D01*
X114172Y64267D01*
X113971Y64005D01*
X113844Y63700D01*
X113801Y63373D01*
X113844Y63046D01*
X113971Y62741D01*
X114172Y62479D01*
X114434Y62278D01*
X114689Y62172D01*
Y62034D01*
X114434Y61928D01*
X114172Y61727D01*
X113971Y61465D01*
X113844Y61160D01*
X113818Y60960D01*
X116814D01*
X116788Y61160D01*
X116661Y61465D01*
X116460Y61727D01*
X116198Y61928D01*
X115943Y62034D01*
Y62172D01*
X116198Y62278D01*
X116460Y62479D01*
X116661Y62741D01*
X116788Y63046D01*
X116831Y63373D01*
X116788Y63700D01*
X116661Y64005D01*
X116460Y64267D01*
X116198Y64468D01*
X115893Y64595D01*
X115849Y64601D01*
Y64751D01*
X116485Y65387D01*
X116590Y65524D01*
X116656Y65683D01*
X116678Y65853D01*
Y65862D01*
X116678D01*
Y65920D01*
X116872D01*
X117043Y65943D01*
X117202Y66009D01*
X117338Y66114D01*
X120180Y68955D01*
X120285Y69092D01*
X120351Y69251D01*
X120373Y69421D01*
Y72136D01*
X120500Y72247D01*
X120563Y72238D01*
X122758D01*
Y72232D01*
X124130D01*
Y72238D01*
X124714D01*
X124885Y72261D01*
X125044Y72327D01*
X125180Y72432D01*
X129117Y76369D01*
X129222Y76505D01*
X129288Y76664D01*
X129311Y76835D01*
Y78219D01*
X129337D01*
Y78600D01*
X129410Y78673D01*
X129525Y78688D01*
X129684Y78754D01*
X129820Y78859D01*
X134141Y83179D01*
X134246Y83316D01*
X134312Y83475D01*
X134334Y83645D01*
Y90399D01*
X134696D01*
X134760Y90289D01*
X134993Y90056D01*
X135279Y89890D01*
X135412Y89855D01*
Y89723D01*
X135279Y89688D01*
X134993Y89522D01*
X134760Y89289D01*
X134594Y89003D01*
X134509Y88684D01*
Y88354D01*
X134594Y88035D01*
X134760Y87749D01*
X134993Y87516D01*
X135279Y87350D01*
X135412Y87315D01*
Y87183D01*
X135279Y87148D01*
X134993Y86982D01*
X134760Y86749D01*
X134594Y86463D01*
X134509Y86144D01*
Y85814D01*
X134594Y85495D01*
X134760Y85209D01*
X134993Y84976D01*
X135279Y84810D01*
X135412Y84775D01*
Y84643D01*
X135279Y84608D01*
X134993Y84442D01*
X134760Y84209D01*
X134594Y83923D01*
X134509Y83604D01*
Y83274D01*
X134594Y82955D01*
X134760Y82669D01*
X134993Y82436D01*
X135279Y82270D01*
X135412Y82235D01*
Y82103D01*
X135279Y82068D01*
X134993Y81902D01*
X134760Y81669D01*
X134594Y81383D01*
X134509Y81064D01*
Y80734D01*
X134594Y80415D01*
X134760Y80129D01*
X134993Y79896D01*
X135279Y79730D01*
X135412Y79695D01*
Y79563D01*
X135279Y79528D01*
X134993Y79362D01*
X134760Y79129D01*
X134594Y78843D01*
X134509Y78524D01*
Y78194D01*
X134594Y77875D01*
X134760Y77589D01*
X134993Y77356D01*
X135279Y77190D01*
X135412Y77155D01*
Y77023D01*
X135279Y76988D01*
X134993Y76822D01*
X134760Y76589D01*
X134594Y76303D01*
X134509Y75984D01*
Y75654D01*
X134594Y75335D01*
X134760Y75049D01*
X134993Y74816D01*
X135279Y74650D01*
X135412Y74615D01*
Y74483D01*
X135279Y74448D01*
X134993Y74282D01*
X134760Y74049D01*
X134594Y73763D01*
X134509Y73444D01*
Y73114D01*
X134542Y72991D01*
X132188Y70637D01*
X132004D01*
X131940Y70747D01*
X131707Y70980D01*
X131421Y71146D01*
X131288Y71181D01*
Y71313D01*
X131421Y71348D01*
X131707Y71514D01*
X131940Y71747D01*
X132106Y72033D01*
X132191Y72352D01*
Y72390D01*
X130937D01*
X129683D01*
Y72352D01*
X129768Y72033D01*
X129934Y71747D01*
X130167Y71514D01*
X130453Y71348D01*
X130586Y71313D01*
Y71181D01*
X130453Y71146D01*
X130167Y70980D01*
X129934Y70747D01*
X129768Y70461D01*
X129683Y70142D01*
Y69812D01*
X129768Y69493D01*
X129934Y69207D01*
X130167Y68974D01*
X130453Y68808D01*
X130586Y68773D01*
Y68641D01*
X130453Y68606D01*
X130167Y68440D01*
X129934Y68207D01*
X129768Y67921D01*
X129683Y67602D01*
Y67272D01*
X129768Y66953D01*
X129934Y66667D01*
X130167Y66434D01*
X130453Y66268D01*
X130772Y66183D01*
X131102D01*
X131421Y66268D01*
X131707Y66434D01*
X131940Y66667D01*
X132106Y66953D01*
X132120Y67007D01*
X132691D01*
X132861Y67029D01*
X133020Y67095D01*
X133157Y67200D01*
X134404Y68447D01*
X134514Y68384D01*
X134509Y68364D01*
Y68034D01*
X134594Y67715D01*
X134760Y67429D01*
X134993Y67196D01*
X135279Y67030D01*
X135412Y66995D01*
Y66863D01*
X135279Y66828D01*
X134993Y66662D01*
X134760Y66429D01*
X134594Y66143D01*
X134509Y65824D01*
Y65494D01*
X134594Y65175D01*
X134760Y64889D01*
X134993Y64656D01*
X135279Y64490D01*
X135412Y64455D01*
Y64323D01*
X135279Y64288D01*
X134993Y64122D01*
X134760Y63889D01*
X134594Y63603D01*
X134509Y63284D01*
Y62954D01*
X134594Y62635D01*
X134760Y62349D01*
X134993Y62116D01*
X135279Y61950D01*
X135412Y61915D01*
Y61783D01*
X135279Y61748D01*
X134993Y61582D01*
X134760Y61349D01*
X134594Y61063D01*
X134509Y60744D01*
Y60414D01*
X134542Y60291D01*
X131741Y57489D01*
X131636Y57353D01*
X131570Y57194D01*
X131547Y57023D01*
Y38128D01*
X130554Y37135D01*
X130144D01*
Y36498D01*
X130141Y36478D01*
Y36449D01*
X130144Y36429D01*
Y35763D01*
X131458D01*
Y36173D01*
X132673Y37389D01*
X132778Y37525D01*
X132844Y37684D01*
X132867Y37855D01*
Y56750D01*
X134404Y58287D01*
X134514Y58224D01*
X134509Y58204D01*
Y57874D01*
X134594Y57555D01*
X134760Y57269D01*
X134993Y57036D01*
X135279Y56870D01*
X135412Y56835D01*
Y56703D01*
X135279Y56668D01*
X134993Y56502D01*
X134760Y56269D01*
X134594Y55983D01*
X134509Y55664D01*
Y55334D01*
X134594Y55015D01*
X134760Y54729D01*
X134993Y54496D01*
X135279Y54330D01*
X135412Y54295D01*
Y54163D01*
X135279Y54128D01*
X134993Y53962D01*
X134760Y53729D01*
X134594Y53443D01*
X134509Y53124D01*
Y52794D01*
X134594Y52475D01*
X134760Y52189D01*
X134993Y51956D01*
X135279Y51790D01*
X135412Y51755D01*
Y51623D01*
X135279Y51588D01*
X134993Y51422D01*
X134760Y51189D01*
X134594Y50903D01*
X134509Y50584D01*
Y50254D01*
X134594Y49935D01*
X134760Y49649D01*
X134993Y49416D01*
X135279Y49250D01*
X135412Y49215D01*
Y49083D01*
X135279Y49048D01*
X134993Y48882D01*
X134760Y48649D01*
X134696Y48539D01*
X133858D01*
X133687Y48516D01*
X133528Y48450D01*
X133392Y48345D01*
X133287Y48209D01*
X133221Y48050D01*
X133198Y47879D01*
X133221Y47708D01*
X133287Y47549D01*
X133392Y47413D01*
X133528Y47308D01*
X133687Y47242D01*
X133858Y47219D01*
X134696D01*
X134760Y47109D01*
X134993Y46876D01*
X135279Y46710D01*
X135412Y46675D01*
Y46543D01*
X135279Y46508D01*
X134993Y46342D01*
X134760Y46109D01*
X134594Y45823D01*
X134509Y45504D01*
Y45466D01*
X135763D01*
X137017D01*
Y45504D01*
X136932Y45823D01*
X136766Y46109D01*
X136533Y46342D01*
X136247Y46508D01*
X136114Y46543D01*
Y46675D01*
X136247Y46710D01*
X136533Y46876D01*
X136766Y47109D01*
X136932Y47395D01*
X137017Y47714D01*
Y48044D01*
X137012Y48064D01*
X137122Y48127D01*
X138278Y46971D01*
Y38608D01*
X138301Y38437D01*
X138367Y38278D01*
X138472Y38142D01*
X138608Y38037D01*
X138767Y37971D01*
X138938Y37948D01*
X139109Y37971D01*
X139268Y38037D01*
X139404Y38142D01*
X139509Y38278D01*
X139575Y38437D01*
X139598Y38608D01*
Y47244D01*
X139575Y47415D01*
X139509Y47574D01*
X139404Y47710D01*
X136984Y50131D01*
X137017Y50254D01*
Y50584D01*
X136932Y50903D01*
X136766Y51189D01*
X136533Y51422D01*
X136247Y51588D01*
X136114Y51623D01*
Y51755D01*
X136247Y51790D01*
X136533Y51956D01*
X136766Y52189D01*
X136932Y52475D01*
X137017Y52794D01*
Y53124D01*
X136932Y53443D01*
X136766Y53729D01*
X136533Y53962D01*
X136247Y54128D01*
X136114Y54163D01*
Y54295D01*
X136247Y54330D01*
X136533Y54496D01*
X136766Y54729D01*
X136772Y54738D01*
X138430D01*
X138627Y54764D01*
X138810Y54840D01*
X138968Y54961D01*
X139089Y55119D01*
X139165Y55302D01*
X139191Y55499D01*
X139165Y55696D01*
X139089Y55879D01*
X138968Y56037D01*
X138810Y56158D01*
X138627Y56234D01*
X138430Y56260D01*
X136772D01*
X136766Y56269D01*
X136533Y56502D01*
X136247Y56668D01*
X136114Y56703D01*
Y56835D01*
X136247Y56870D01*
X136533Y57036D01*
X136766Y57269D01*
X136830Y57379D01*
X138284D01*
X141326Y54337D01*
Y47879D01*
X141349Y47708D01*
X141415Y47549D01*
X141520Y47413D01*
X150791Y38142D01*
X150927Y38037D01*
X151086Y37971D01*
X151257Y37948D01*
X153022D01*
Y37922D01*
X154336D01*
Y38588D01*
X154339Y38608D01*
X154336Y38628D01*
Y39294D01*
X153022D01*
Y39268D01*
X151530D01*
X142646Y48152D01*
Y54610D01*
X142623Y54781D01*
X142557Y54940D01*
X142452Y55076D01*
X139023Y58505D01*
X138887Y58610D01*
X138728Y58676D01*
X138557Y58699D01*
X136830D01*
X136766Y58809D01*
X136533Y59042D01*
X136247Y59208D01*
X136114Y59243D01*
Y59375D01*
X136247Y59410D01*
X136533Y59576D01*
X136766Y59809D01*
X136932Y60095D01*
X137017Y60414D01*
Y60744D01*
X136932Y61063D01*
X136766Y61349D01*
X136533Y61582D01*
X136247Y61748D01*
X136114Y61783D01*
Y61915D01*
X136247Y61950D01*
X136533Y62116D01*
X136766Y62349D01*
X136932Y62635D01*
X137017Y62954D01*
Y63284D01*
X136984Y63407D01*
X138769Y65193D01*
X138874Y65329D01*
X138940Y65488D01*
X138963Y65659D01*
Y91821D01*
X138940Y91992D01*
X138874Y92151D01*
X138769Y92287D01*
X136737Y94319D01*
X136601Y94424D01*
X136442Y94490D01*
X136271Y94513D01*
X130004D01*
Y94539D01*
D02*
G37*
G36*
X132825Y91745D02*
X132295D01*
Y91186D01*
X132825D01*
Y91745D01*
D02*
G37*
G36*
X132041D02*
X131511D01*
Y91186D01*
X132041D01*
Y91745D01*
D02*
G37*
G36*
X125967Y90983D02*
X125437D01*
Y90424D01*
X125967D01*
Y90983D01*
D02*
G37*
G36*
X125183D02*
X124653D01*
Y90424D01*
X125183D01*
Y90983D01*
D02*
G37*
G36*
X132825Y90932D02*
X132295D01*
Y90373D01*
X132825D01*
Y90932D01*
D02*
G37*
G36*
X132041D02*
X131511D01*
Y90373D01*
X132041D01*
Y90932D01*
D02*
G37*
G36*
X164832Y103687D02*
X160415D01*
Y100529D01*
X160809D01*
X160850Y98099D01*
Y96011D01*
X160147D01*
X159950Y95985D01*
X159767Y95909D01*
X159645Y95815D01*
X157973D01*
X157933Y95807D01*
X157516D01*
X157359Y95776D01*
X157226Y95687D01*
X157137Y95554D01*
X157106Y95397D01*
Y95103D01*
X157137Y94946D01*
X157226Y94813D01*
X157359Y94724D01*
X157516Y94693D01*
X157933D01*
X157973Y94685D01*
X159645D01*
X159767Y94591D01*
X159950Y94515D01*
X160147Y94489D01*
X160900D01*
Y92710D01*
X160925Y92513D01*
X160949Y92455D01*
Y91264D01*
X160975Y91067D01*
X161051Y90884D01*
X161172Y90726D01*
X161758Y90140D01*
X161916Y90019D01*
X161992Y89988D01*
X162099Y89943D01*
X162296Y89917D01*
X166511D01*
Y89870D01*
X168769D01*
Y93028D01*
X166511D01*
Y91439D01*
X162611D01*
X162471Y91579D01*
Y92660D01*
X162445Y92857D01*
X162421Y92915D01*
Y95250D01*
X162395Y95447D01*
X162371Y95505D01*
Y98105D01*
X162370Y98111D01*
X162370Y98118D01*
X162332Y100438D01*
X162421Y100529D01*
X164832D01*
Y103687D01*
D02*
G37*
G36*
X125967Y90170D02*
X125437D01*
Y89611D01*
X125967D01*
Y90170D01*
D02*
G37*
G36*
X125183D02*
X124653D01*
Y89611D01*
X125183D01*
Y90170D01*
D02*
G37*
G36*
X132286Y86518D02*
X131727D01*
Y85988D01*
X132286D01*
Y86518D01*
D02*
G37*
G36*
X118728Y86487D02*
X118198D01*
Y85928D01*
X118728D01*
Y86487D01*
D02*
G37*
G36*
X117944D02*
X117414D01*
Y85928D01*
X117944D01*
Y86487D01*
D02*
G37*
G36*
X132286Y85734D02*
X131727D01*
Y85204D01*
X132286D01*
Y85734D01*
D02*
G37*
G36*
X121810Y84636D02*
X121102D01*
X120945Y84605D01*
X120811Y84515D01*
X120722Y84382D01*
X120690Y84224D01*
Y84201D01*
X121810D01*
Y84636D01*
D02*
G37*
G36*
Y83947D02*
X120690D01*
Y83924D01*
X120722Y83766D01*
X120811Y83633D01*
X120945Y83543D01*
X121102Y83512D01*
X121810D01*
Y83947D01*
D02*
G37*
G36*
X130559Y83216D02*
X130000D01*
Y82686D01*
X130559D01*
Y83216D01*
D02*
G37*
G36*
X129746D02*
X129187D01*
Y82686D01*
X129746D01*
Y83216D01*
D02*
G37*
G36*
X130559Y82432D02*
X130000D01*
Y81902D01*
X130559D01*
Y82432D01*
D02*
G37*
G36*
X129746D02*
X129187D01*
Y81902D01*
X129746D01*
Y82432D01*
D02*
G37*
G36*
X126476Y77994D02*
X125349D01*
Y76867D01*
X126476D01*
Y77994D01*
D02*
G37*
G36*
X125095D02*
X123968D01*
Y76867D01*
X125095D01*
Y77994D01*
D02*
G37*
G36*
Y76613D02*
X123968D01*
Y75486D01*
X125095D01*
Y76613D01*
D02*
G37*
G36*
X151168Y92313D02*
X150838D01*
X150519Y92228D01*
X150233Y92062D01*
X150000Y91829D01*
X149834Y91543D01*
X149749Y91224D01*
Y90894D01*
X149834Y90575D01*
X150000Y90289D01*
X150233Y90056D01*
X150519Y89890D01*
X150652Y89855D01*
Y89723D01*
X150519Y89688D01*
X150233Y89522D01*
X150000Y89289D01*
X149834Y89003D01*
X149749Y88684D01*
Y88354D01*
X149834Y88035D01*
X150000Y87749D01*
X150233Y87516D01*
X150519Y87350D01*
X150652Y87315D01*
Y87183D01*
X150519Y87148D01*
X150233Y86982D01*
X150000Y86749D01*
X149834Y86463D01*
X149749Y86144D01*
Y85814D01*
X149834Y85495D01*
X150000Y85209D01*
X150233Y84976D01*
X150519Y84810D01*
X150652Y84775D01*
Y84643D01*
X150519Y84608D01*
X150233Y84442D01*
X150000Y84209D01*
X149834Y83923D01*
X149749Y83604D01*
Y83274D01*
X149834Y82955D01*
X150000Y82669D01*
X150233Y82436D01*
X150519Y82270D01*
X150652Y82235D01*
Y82103D01*
X150519Y82068D01*
X150233Y81902D01*
X150000Y81669D01*
X149834Y81383D01*
X149749Y81064D01*
Y80734D01*
X149834Y80415D01*
X150000Y80129D01*
X150233Y79896D01*
X150519Y79730D01*
X150652Y79695D01*
Y79563D01*
X150519Y79528D01*
X150233Y79362D01*
X150000Y79129D01*
X149834Y78843D01*
X149749Y78524D01*
Y78194D01*
X149834Y77875D01*
X150000Y77589D01*
X150233Y77356D01*
X150519Y77190D01*
X150652Y77155D01*
Y77023D01*
X150519Y76988D01*
X150233Y76822D01*
X150000Y76589D01*
X149834Y76303D01*
X149749Y75984D01*
Y75654D01*
X149834Y75335D01*
X150000Y75049D01*
X150233Y74816D01*
X150519Y74650D01*
X150652Y74615D01*
Y74483D01*
X150519Y74448D01*
X150233Y74282D01*
X150000Y74049D01*
X149834Y73763D01*
X149749Y73444D01*
Y73114D01*
X149834Y72795D01*
X150000Y72509D01*
X150233Y72276D01*
X150519Y72110D01*
X150652Y72075D01*
Y71943D01*
X150519Y71908D01*
X150233Y71742D01*
X150000Y71509D01*
X149834Y71223D01*
X149749Y70904D01*
Y70574D01*
X149834Y70255D01*
X150000Y69969D01*
X150233Y69736D01*
X150519Y69570D01*
X150652Y69535D01*
Y69403D01*
X150519Y69368D01*
X150233Y69202D01*
X150000Y68969D01*
X149834Y68683D01*
X149749Y68364D01*
Y68034D01*
X149782Y67911D01*
X147489Y65617D01*
X147384Y65481D01*
X147318Y65322D01*
X147295Y65151D01*
Y46101D01*
X147318Y45930D01*
X147384Y45771D01*
X147489Y45635D01*
X147625Y45530D01*
X147784Y45464D01*
X147955Y45441D01*
X148126Y45464D01*
X148285Y45530D01*
X148421Y45635D01*
X148526Y45771D01*
X148592Y45930D01*
X148615Y46101D01*
Y64878D01*
X149644Y65907D01*
X149754Y65844D01*
X149749Y65824D01*
Y65494D01*
X149834Y65175D01*
X150000Y64889D01*
X150233Y64656D01*
X150519Y64490D01*
X150652Y64455D01*
Y64323D01*
X150519Y64288D01*
X150233Y64122D01*
X150000Y63889D01*
X149834Y63603D01*
X149749Y63284D01*
Y62954D01*
X149834Y62635D01*
X150000Y62349D01*
X150233Y62116D01*
X150519Y61950D01*
X150652Y61915D01*
Y61783D01*
X150519Y61748D01*
X150233Y61582D01*
X150000Y61349D01*
X149834Y61063D01*
X149749Y60744D01*
Y60414D01*
X149834Y60095D01*
X150000Y59809D01*
X150233Y59576D01*
X150519Y59410D01*
X150652Y59375D01*
Y59243D01*
X150519Y59208D01*
X150233Y59042D01*
X150000Y58809D01*
X149834Y58523D01*
X149749Y58204D01*
Y57874D01*
X149834Y57555D01*
X150000Y57269D01*
X150233Y57036D01*
X150519Y56870D01*
X150652Y56835D01*
Y56703D01*
X150519Y56668D01*
X150233Y56502D01*
X150000Y56269D01*
X149834Y55983D01*
X149749Y55664D01*
Y55334D01*
X149834Y55015D01*
X150000Y54729D01*
X150233Y54496D01*
X150519Y54330D01*
X150652Y54295D01*
Y54163D01*
X150519Y54128D01*
X150233Y53962D01*
X150000Y53729D01*
X149834Y53443D01*
X149749Y53124D01*
Y52794D01*
X149834Y52475D01*
X150000Y52189D01*
X150233Y51956D01*
X150519Y51790D01*
X150652Y51755D01*
Y51623D01*
X150519Y51588D01*
X150233Y51422D01*
X150000Y51189D01*
X149834Y50903D01*
X149749Y50584D01*
Y50254D01*
X149834Y49935D01*
X150000Y49649D01*
X150233Y49416D01*
X150519Y49250D01*
X150652Y49215D01*
Y49083D01*
X150519Y49048D01*
X150233Y48882D01*
X150000Y48649D01*
X149834Y48363D01*
X149749Y48044D01*
Y47714D01*
X149834Y47395D01*
X150000Y47109D01*
X150233Y46876D01*
X150519Y46710D01*
X150652Y46675D01*
Y46543D01*
X150519Y46508D01*
X150233Y46342D01*
X150000Y46109D01*
X149834Y45823D01*
X149749Y45504D01*
Y45174D01*
X149834Y44855D01*
X150000Y44569D01*
X150233Y44336D01*
X150519Y44170D01*
X150652Y44135D01*
Y44003D01*
X150519Y43968D01*
X150233Y43802D01*
X150000Y43569D01*
X149834Y43283D01*
X149749Y42964D01*
Y42634D01*
X149834Y42315D01*
X150000Y42029D01*
X150233Y41796D01*
X150519Y41630D01*
X150838Y41545D01*
X151168D01*
X151487Y41630D01*
X151773Y41796D01*
X152006Y42029D01*
X152172Y42315D01*
X152257Y42634D01*
Y42964D01*
X152172Y43283D01*
X152006Y43569D01*
X151773Y43802D01*
X151487Y43968D01*
X151354Y44003D01*
Y44135D01*
X151487Y44170D01*
X151773Y44336D01*
X152006Y44569D01*
X152172Y44855D01*
X152257Y45174D01*
Y45504D01*
X152172Y45823D01*
X152006Y46109D01*
X151773Y46342D01*
X151487Y46508D01*
X151354Y46543D01*
Y46675D01*
X151487Y46710D01*
X151773Y46876D01*
X152006Y47109D01*
X152172Y47395D01*
X152257Y47714D01*
Y48044D01*
X152172Y48363D01*
X152006Y48649D01*
X151773Y48882D01*
X151487Y49048D01*
X151354Y49083D01*
Y49215D01*
X151487Y49250D01*
X151773Y49416D01*
X152006Y49649D01*
X152172Y49935D01*
X152257Y50254D01*
Y50584D01*
X152172Y50903D01*
X152006Y51189D01*
X151773Y51422D01*
X151487Y51588D01*
X151354Y51623D01*
Y51755D01*
X151487Y51790D01*
X151773Y51956D01*
X152006Y52189D01*
X152070Y52299D01*
X154178D01*
X154349Y52322D01*
X154508Y52388D01*
X154644Y52493D01*
X154749Y52629D01*
X154815Y52788D01*
X154838Y52959D01*
X154815Y53130D01*
X154749Y53289D01*
X154644Y53425D01*
X154508Y53530D01*
X154349Y53596D01*
X154178Y53619D01*
X152070D01*
X152006Y53729D01*
X151773Y53962D01*
X151487Y54128D01*
X151354Y54163D01*
Y54295D01*
X151487Y54330D01*
X151773Y54496D01*
X152006Y54729D01*
X152172Y55015D01*
X152257Y55334D01*
Y55664D01*
X152172Y55983D01*
X152006Y56269D01*
X151773Y56502D01*
X151487Y56668D01*
X151354Y56703D01*
Y56835D01*
X151487Y56870D01*
X151773Y57036D01*
X152006Y57269D01*
X152172Y57555D01*
X152257Y57874D01*
Y58204D01*
X152172Y58523D01*
X152006Y58809D01*
X151773Y59042D01*
X151487Y59208D01*
X151354Y59243D01*
Y59375D01*
X151487Y59410D01*
X151773Y59576D01*
X152006Y59809D01*
X152172Y60095D01*
X152257Y60414D01*
Y60744D01*
X152172Y61063D01*
X152006Y61349D01*
X151773Y61582D01*
X151487Y61748D01*
X151354Y61783D01*
Y61915D01*
X151487Y61950D01*
X151773Y62116D01*
X152006Y62349D01*
X152172Y62635D01*
X152257Y62954D01*
Y63284D01*
X152172Y63603D01*
X152006Y63889D01*
X151773Y64122D01*
X151487Y64288D01*
X151354Y64323D01*
Y64455D01*
X151487Y64490D01*
X151773Y64656D01*
X152006Y64889D01*
X152172Y65175D01*
X152257Y65494D01*
Y65824D01*
X152172Y66143D01*
X152006Y66429D01*
X151773Y66662D01*
X151487Y66828D01*
X151354Y66863D01*
Y66995D01*
X151487Y67030D01*
X151773Y67196D01*
X152006Y67429D01*
X152172Y67715D01*
X152257Y68034D01*
Y68364D01*
X152172Y68683D01*
X152006Y68969D01*
X151773Y69202D01*
X151487Y69368D01*
X151354Y69403D01*
Y69535D01*
X151487Y69570D01*
X151773Y69736D01*
X152006Y69969D01*
X152012Y69978D01*
X154178D01*
X154375Y70004D01*
X154558Y70080D01*
X154716Y70201D01*
X154837Y70359D01*
X154913Y70542D01*
X154939Y70739D01*
X154913Y70936D01*
X154837Y71119D01*
X154716Y71277D01*
X154558Y71398D01*
X154375Y71474D01*
X154178Y71500D01*
X152012D01*
X152006Y71509D01*
X151773Y71742D01*
X151487Y71908D01*
X151354Y71943D01*
Y72075D01*
X151487Y72110D01*
X151773Y72276D01*
X152006Y72509D01*
X152172Y72795D01*
X152257Y73114D01*
Y73444D01*
X152172Y73763D01*
X152006Y74049D01*
X151773Y74282D01*
X151487Y74448D01*
X151354Y74483D01*
Y74615D01*
X151487Y74650D01*
X151773Y74816D01*
X152006Y75049D01*
X152033Y75096D01*
X164885D01*
X164986Y74922D01*
X165219Y74689D01*
X165505Y74523D01*
X165638Y74488D01*
Y74356D01*
X165505Y74321D01*
X165219Y74155D01*
X164986Y73922D01*
X164820Y73636D01*
X164735Y73317D01*
Y73279D01*
X165989D01*
X167243D01*
Y73317D01*
X167158Y73636D01*
X166992Y73922D01*
X166759Y74155D01*
X166473Y74321D01*
X166340Y74356D01*
Y74488D01*
X166473Y74523D01*
X166759Y74689D01*
X166992Y74922D01*
X167158Y75208D01*
X167243Y75527D01*
Y75857D01*
X167158Y76176D01*
X166992Y76462D01*
X166759Y76695D01*
X166473Y76861D01*
X166340Y76896D01*
Y77028D01*
X166473Y77063D01*
X166759Y77229D01*
X166992Y77462D01*
X167158Y77748D01*
X167243Y78067D01*
Y78397D01*
X167158Y78716D01*
X166992Y79002D01*
X166759Y79235D01*
X166473Y79401D01*
X166154Y79486D01*
X165824D01*
X165505Y79401D01*
X165219Y79235D01*
X164986Y79002D01*
X164959Y78955D01*
X152107D01*
X152006Y79129D01*
X151773Y79362D01*
X151487Y79528D01*
X151354Y79563D01*
Y79695D01*
X151487Y79730D01*
X151773Y79896D01*
X152006Y80129D01*
X152172Y80415D01*
X152257Y80734D01*
Y81064D01*
X152172Y81383D01*
X152006Y81669D01*
X151773Y81902D01*
X151487Y82068D01*
X151354Y82103D01*
Y82235D01*
X151487Y82270D01*
X151773Y82436D01*
X152006Y82669D01*
X152172Y82955D01*
X152257Y83274D01*
Y83604D01*
X152172Y83923D01*
X152006Y84209D01*
X151773Y84442D01*
X151487Y84608D01*
X151354Y84643D01*
Y84775D01*
X151487Y84810D01*
X151773Y84976D01*
X152006Y85209D01*
X152172Y85495D01*
X152257Y85814D01*
Y86144D01*
X152172Y86463D01*
X152006Y86749D01*
X151773Y86982D01*
X151487Y87148D01*
X151354Y87183D01*
Y87315D01*
X151487Y87350D01*
X151773Y87516D01*
X152006Y87749D01*
X152172Y88035D01*
X152257Y88354D01*
Y88684D01*
X152172Y89003D01*
X152006Y89289D01*
X151773Y89522D01*
X151487Y89688D01*
X151354Y89723D01*
Y89855D01*
X151487Y89890D01*
X151773Y90056D01*
X152006Y90289D01*
X152172Y90575D01*
X152257Y90894D01*
Y91224D01*
X152172Y91543D01*
X152006Y91829D01*
X151773Y92062D01*
X151487Y92228D01*
X151168Y92313D01*
D02*
G37*
G36*
X131102Y76311D02*
X130772D01*
X130453Y76226D01*
X130167Y76060D01*
X129934Y75827D01*
X129768Y75541D01*
X129754Y75487D01*
X129437D01*
X129267Y75465D01*
X129108Y75399D01*
X128971Y75294D01*
X128693Y75015D01*
X128588Y74879D01*
X128583Y74868D01*
X127515Y73800D01*
X127076D01*
Y72486D01*
X127742D01*
X127762Y72483D01*
X127791D01*
X127811Y72486D01*
X128448D01*
Y72867D01*
X129625Y74045D01*
X129720Y74168D01*
X130053D01*
X130167Y74054D01*
X130453Y73888D01*
X130586Y73853D01*
Y73721D01*
X130453Y73686D01*
X130167Y73520D01*
X129934Y73287D01*
X129768Y73001D01*
X129683Y72682D01*
Y72644D01*
X130937D01*
X132191D01*
Y72682D01*
X132106Y73001D01*
X131940Y73287D01*
X131707Y73520D01*
X131421Y73686D01*
X131288Y73721D01*
Y73853D01*
X131421Y73888D01*
X131707Y74054D01*
X131940Y74287D01*
X132004Y74397D01*
X133858D01*
X134029Y74420D01*
X134188Y74486D01*
X134324Y74591D01*
X134429Y74727D01*
X134495Y74886D01*
X134518Y75057D01*
X134495Y75228D01*
X134429Y75387D01*
X134324Y75523D01*
X134188Y75628D01*
X134029Y75694D01*
X133858Y75717D01*
X132004D01*
X131940Y75827D01*
X131707Y76060D01*
X131421Y76226D01*
X131102Y76311D01*
D02*
G37*
G36*
X128448Y72294D02*
X127889D01*
Y71764D01*
X128448D01*
Y72294D01*
D02*
G37*
G36*
X127635D02*
X127076D01*
Y71764D01*
X127635D01*
Y72294D01*
D02*
G37*
G36*
X124130Y72040D02*
X123571D01*
Y71510D01*
X124130D01*
Y72040D01*
D02*
G37*
G36*
X123317D02*
X122758D01*
Y71510D01*
X123317D01*
Y72040D01*
D02*
G37*
G36*
X128448Y71510D02*
X127889D01*
Y70980D01*
X128448D01*
Y71510D01*
D02*
G37*
G36*
X127635D02*
X127076D01*
Y70980D01*
X127635D01*
Y71510D01*
D02*
G37*
G36*
X124130Y71256D02*
X123571D01*
Y70726D01*
X124130D01*
Y71256D01*
D02*
G37*
G36*
X123317D02*
X122758D01*
Y70726D01*
X123317D01*
Y71256D01*
D02*
G37*
G36*
X167243Y73025D02*
X165989D01*
X164735D01*
Y72987D01*
X164820Y72668D01*
X164986Y72382D01*
X165219Y72149D01*
X165505Y71983D01*
X165638Y71948D01*
Y71816D01*
X165505Y71781D01*
X165219Y71615D01*
X164986Y71382D01*
X164922Y71272D01*
X163068D01*
X162897Y71249D01*
X162738Y71183D01*
X162602Y71078D01*
X162497Y70942D01*
X162431Y70783D01*
X162408Y70612D01*
X162431Y70441D01*
X162497Y70282D01*
X162602Y70146D01*
X162738Y70041D01*
X162897Y69975D01*
X163068Y69952D01*
X164922D01*
X164986Y69842D01*
X165219Y69609D01*
X165505Y69443D01*
X165824Y69358D01*
X166154D01*
X166473Y69443D01*
X166759Y69609D01*
X166992Y69842D01*
X167056Y69952D01*
X168783D01*
X168954Y69975D01*
X169113Y70041D01*
X169249Y70146D01*
X169354Y70282D01*
X169420Y70441D01*
X169443Y70612D01*
X169420Y70783D01*
X169354Y70942D01*
X169249Y71078D01*
X169113Y71183D01*
X168954Y71249D01*
X168783Y71272D01*
X167056D01*
X166992Y71382D01*
X166759Y71615D01*
X166473Y71781D01*
X166340Y71816D01*
Y71948D01*
X166473Y71983D01*
X166759Y72149D01*
X166992Y72382D01*
X167158Y72668D01*
X167243Y72987D01*
Y73025D01*
D02*
G37*
G36*
X115172Y67234D02*
X114642D01*
Y66675D01*
X115172D01*
Y67234D01*
D02*
G37*
G36*
X114388D02*
X113858D01*
Y66675D01*
X114388D01*
Y67234D01*
D02*
G37*
G36*
X166271Y67178D02*
X166148D01*
Y66040D01*
X167519D01*
X167492Y66240D01*
X167366Y66545D01*
X167165Y66807D01*
X166903Y67008D01*
X166598Y67135D01*
X166271Y67178D01*
D02*
G37*
G36*
X165894D02*
X165771D01*
X165443Y67135D01*
X165138Y67008D01*
X164876Y66807D01*
X164675Y66545D01*
X164549Y66240D01*
X164523Y66040D01*
X165894D01*
Y67178D01*
D02*
G37*
G36*
X114388Y66421D02*
X113858D01*
Y65862D01*
X114388D01*
Y66421D01*
D02*
G37*
G36*
X158664Y66675D02*
X158264D01*
X157872Y66597D01*
X157502Y66444D01*
X157169Y66221D01*
X156886Y65938D01*
X156664Y65606D01*
X156510Y65236D01*
X156432Y64843D01*
Y64443D01*
X156510Y64050D01*
X156664Y63680D01*
X156886Y63348D01*
X157169Y63065D01*
X157502Y62842D01*
X157872Y62689D01*
X158264Y62611D01*
X158664D01*
X159057Y62689D01*
X159427Y62842D01*
X159760Y63065D01*
X160043Y63348D01*
X160265Y63680D01*
X160418Y64050D01*
X160496Y64443D01*
Y64843D01*
X160418Y65236D01*
X160265Y65606D01*
X160043Y65938D01*
X159760Y66221D01*
X159427Y66444D01*
X159057Y66597D01*
X158664Y66675D01*
D02*
G37*
G36*
X145669Y62229D02*
X138430D01*
X138233Y62203D01*
X138050Y62127D01*
X137892Y62006D01*
X137771Y61848D01*
X137695Y61665D01*
X137669Y61468D01*
X137695Y61271D01*
X137771Y61088D01*
X137892Y60930D01*
X138050Y60809D01*
X138233Y60733D01*
X138430Y60707D01*
X145669D01*
X145866Y60733D01*
X146049Y60809D01*
X146207Y60930D01*
X146328Y61088D01*
X146404Y61271D01*
X146430Y61468D01*
X146404Y61665D01*
X146328Y61848D01*
X146207Y62006D01*
X146049Y62127D01*
X145866Y62203D01*
X145669Y62229D01*
D02*
G37*
G36*
X128326Y63957D02*
X127960D01*
X127602Y63886D01*
X127265Y63746D01*
X126961Y63543D01*
X126703Y63285D01*
X126500Y62981D01*
X126360Y62644D01*
X126289Y62286D01*
Y61920D01*
X126360Y61562D01*
X126500Y61225D01*
X126703Y60921D01*
X126961Y60663D01*
X127265Y60460D01*
X127602Y60320D01*
X127960Y60249D01*
X128326D01*
X128684Y60320D01*
X129021Y60460D01*
X129325Y60663D01*
X129583Y60921D01*
X129786Y61225D01*
X129926Y61562D01*
X129997Y61920D01*
Y62286D01*
X129926Y62644D01*
X129786Y62981D01*
X129583Y63285D01*
X129325Y63543D01*
X129021Y63746D01*
X128684Y63886D01*
X128326Y63957D01*
D02*
G37*
G36*
X166271Y59558D02*
X165771D01*
X165443Y59515D01*
X165138Y59388D01*
X164876Y59187D01*
X164696Y58953D01*
X154178D01*
X154007Y58930D01*
X153848Y58864D01*
X153712Y58759D01*
X153607Y58623D01*
X153541Y58464D01*
X153518Y58293D01*
X153541Y58122D01*
X153607Y57963D01*
X153712Y57827D01*
X153848Y57722D01*
X154007Y57656D01*
X154178Y57633D01*
X164696D01*
X164876Y57399D01*
X165138Y57198D01*
X165443Y57071D01*
X165771Y57028D01*
X166271D01*
X166598Y57071D01*
X166903Y57198D01*
X167165Y57399D01*
X167366Y57661D01*
X167492Y57966D01*
X167536Y58293D01*
X167492Y58620D01*
X167366Y58925D01*
X167165Y59187D01*
X166903Y59388D01*
X166598Y59515D01*
X166271Y59558D01*
D02*
G37*
G36*
Y56891D02*
X166148D01*
Y55753D01*
X167519D01*
X167492Y55953D01*
X167366Y56258D01*
X167165Y56520D01*
X166903Y56721D01*
X166598Y56848D01*
X166271Y56891D01*
D02*
G37*
G36*
X165894D02*
X165771D01*
X165443Y56848D01*
X165138Y56721D01*
X164876Y56520D01*
X164675Y56258D01*
X164549Y55953D01*
X164523Y55753D01*
X165894D01*
Y56891D01*
D02*
G37*
G36*
X167519Y65786D02*
X164523D01*
X164549Y65586D01*
X164675Y65281D01*
X164876Y65019D01*
X165138Y64818D01*
X165394Y64712D01*
Y64574D01*
X165138Y64468D01*
X164876Y64267D01*
X164696Y64033D01*
X163068D01*
X162897Y64010D01*
X162738Y63944D01*
X162602Y63839D01*
X162497Y63703D01*
X162431Y63544D01*
X162408Y63373D01*
X162431Y63202D01*
X162497Y63043D01*
X162602Y62907D01*
X162738Y62802D01*
X162897Y62736D01*
X163068Y62713D01*
X164696D01*
X164876Y62479D01*
X165138Y62278D01*
X165253Y62230D01*
Y62103D01*
X165138Y62055D01*
X164876Y61854D01*
X164774Y61721D01*
X154178D01*
X153981Y61695D01*
X153798Y61619D01*
X153640Y61498D01*
X153519Y61340D01*
X153443Y61157D01*
X153417Y60960D01*
X153443Y60763D01*
X153519Y60580D01*
X153640Y60422D01*
X153798Y60301D01*
X153981Y60225D01*
X154178Y60199D01*
X164774D01*
X164876Y60066D01*
X165138Y59865D01*
X165443Y59738D01*
X165771Y59695D01*
X166271D01*
X166598Y59738D01*
X166903Y59865D01*
X167165Y60066D01*
X167366Y60328D01*
X167492Y60633D01*
X167536Y60960D01*
X167529Y61012D01*
X167643Y61068D01*
X168080Y60631D01*
Y53750D01*
X168054D01*
Y53746D01*
X167345D01*
X167165Y53980D01*
X166903Y54181D01*
X166647Y54287D01*
Y54425D01*
X166903Y54531D01*
X167165Y54732D01*
X167366Y54994D01*
X167492Y55299D01*
X167519Y55499D01*
X164523D01*
X164549Y55299D01*
X164675Y54994D01*
X164876Y54732D01*
X165138Y54531D01*
X165394Y54425D01*
Y54287D01*
X165138Y54181D01*
X164876Y53980D01*
X164675Y53718D01*
X164549Y53413D01*
X164506Y53086D01*
X164549Y52759D01*
X164675Y52454D01*
X164876Y52192D01*
X165138Y51991D01*
X165443Y51864D01*
X165771Y51821D01*
X166271D01*
X166598Y51864D01*
X166903Y51991D01*
X167165Y52192D01*
X167345Y52426D01*
X168704D01*
X168777Y52436D01*
X169426D01*
Y53750D01*
X169400D01*
Y60904D01*
X169377Y61074D01*
X169311Y61234D01*
X169206Y61370D01*
X167497Y63080D01*
X167536Y63373D01*
X167492Y63700D01*
X167366Y64005D01*
X167165Y64267D01*
X166903Y64468D01*
X166647Y64574D01*
Y64712D01*
X166903Y64818D01*
X167165Y65019D01*
X167366Y65281D01*
X167492Y65586D01*
X167519Y65786D01*
D02*
G37*
G36*
X158664Y56515D02*
X158264D01*
X157872Y56437D01*
X157502Y56284D01*
X157169Y56061D01*
X156886Y55778D01*
X156664Y55446D01*
X156510Y55076D01*
X156432Y54683D01*
Y54283D01*
X156510Y53890D01*
X156664Y53520D01*
X156886Y53188D01*
X157169Y52905D01*
X157502Y52682D01*
X157872Y52529D01*
X158264Y52451D01*
X158664D01*
X159057Y52529D01*
X159427Y52682D01*
X159760Y52905D01*
X160043Y53188D01*
X160265Y53520D01*
X160418Y53890D01*
X160496Y54283D01*
Y54683D01*
X160418Y55076D01*
X160265Y55446D01*
X160043Y55778D01*
X159760Y56061D01*
X159427Y56284D01*
X159057Y56437D01*
X158664Y56515D01*
D02*
G37*
G36*
X169426Y52244D02*
X168867D01*
Y51714D01*
X169426D01*
Y52244D01*
D02*
G37*
G36*
X168613D02*
X168054D01*
Y51714D01*
X168613D01*
Y52244D01*
D02*
G37*
G36*
X169426Y51460D02*
X168867D01*
Y50930D01*
X169426D01*
Y51460D01*
D02*
G37*
G36*
X168613D02*
X168054D01*
Y50930D01*
X168613D01*
Y51460D01*
D02*
G37*
G36*
X170307Y48539D02*
X166116D01*
X165945Y48516D01*
X165786Y48450D01*
X165650Y48345D01*
X165545Y48209D01*
X165479Y48050D01*
X165456Y47879D01*
X165479Y47708D01*
X165545Y47549D01*
X165650Y47413D01*
X165786Y47308D01*
X165945Y47242D01*
X166116Y47219D01*
X170307D01*
X170478Y47242D01*
X170637Y47308D01*
X170773Y47413D01*
X170878Y47549D01*
X170944Y47708D01*
X170967Y47879D01*
X170944Y48050D01*
X170878Y48209D01*
X170773Y48345D01*
X170637Y48450D01*
X170478Y48516D01*
X170307Y48539D01*
D02*
G37*
G36*
X128326Y48463D02*
X127960D01*
X127602Y48392D01*
X127265Y48252D01*
X126961Y48049D01*
X126703Y47791D01*
X126500Y47487D01*
X126360Y47150D01*
X126289Y46792D01*
Y46426D01*
X126360Y46068D01*
X126500Y45731D01*
X126703Y45427D01*
X126961Y45169D01*
X127265Y44966D01*
X127602Y44826D01*
X127960Y44755D01*
X128326D01*
X128684Y44826D01*
X129021Y44966D01*
X129325Y45169D01*
X129583Y45427D01*
X129786Y45731D01*
X129926Y46068D01*
X129997Y46426D01*
Y46792D01*
X129926Y47150D01*
X129786Y47487D01*
X129583Y47791D01*
X129325Y48049D01*
X129021Y48252D01*
X128684Y48392D01*
X128326Y48463D01*
D02*
G37*
G36*
X116814Y48006D02*
X113818D01*
X113844Y47806D01*
X113971Y47501D01*
X114172Y47239D01*
X114434Y47038D01*
X114689Y46932D01*
Y46794D01*
X114434Y46688D01*
X114172Y46487D01*
X113971Y46225D01*
X113844Y45920D01*
X113801Y45593D01*
X113844Y45266D01*
X113971Y44961D01*
X114172Y44699D01*
X114434Y44498D01*
X114739Y44371D01*
X115066Y44328D01*
X115566D01*
X115893Y44371D01*
X116198Y44498D01*
X116460Y44699D01*
X116661Y44961D01*
X116788Y45266D01*
X116831Y45593D01*
X116788Y45920D01*
X116661Y46225D01*
X116460Y46487D01*
X116198Y46688D01*
X115943Y46794D01*
Y46932D01*
X116198Y47038D01*
X116460Y47239D01*
X116661Y47501D01*
X116788Y47806D01*
X116814Y48006D01*
D02*
G37*
G36*
X137017Y45212D02*
X135763D01*
X134509D01*
Y45174D01*
X134594Y44855D01*
X134760Y44569D01*
X134993Y44336D01*
X135279Y44170D01*
X135412Y44135D01*
Y44003D01*
X135279Y43968D01*
X134993Y43802D01*
X134760Y43569D01*
X134594Y43283D01*
X134509Y42964D01*
Y42634D01*
X134594Y42315D01*
X134760Y42029D01*
X134993Y41796D01*
X135279Y41630D01*
X135598Y41545D01*
X135928D01*
X136247Y41630D01*
X136533Y41796D01*
X136766Y42029D01*
X136932Y42315D01*
X137017Y42634D01*
Y42964D01*
X136932Y43283D01*
X136766Y43569D01*
X136533Y43802D01*
X136247Y43968D01*
X136114Y44003D01*
Y44135D01*
X136247Y44170D01*
X136533Y44336D01*
X136766Y44569D01*
X136932Y44855D01*
X137017Y45174D01*
Y45212D01*
D02*
G37*
G36*
X169658Y43607D02*
X167400D01*
Y43052D01*
X163439D01*
X163242Y43026D01*
X163135Y42981D01*
X163059Y42950D01*
X162901Y42829D01*
X162315Y42243D01*
X162194Y42085D01*
X162118Y41902D01*
X162092Y41705D01*
Y40895D01*
X162068Y40837D01*
X162042Y40640D01*
Y38353D01*
X161417D01*
X161220Y38327D01*
X161037Y38251D01*
X160915Y38157D01*
X160005D01*
X159965Y38149D01*
X159548D01*
X159391Y38118D01*
X159258Y38029D01*
X159169Y37896D01*
X159138Y37739D01*
Y37444D01*
X159169Y37288D01*
X159258Y37155D01*
X159391Y37066D01*
X159548Y37035D01*
X159965D01*
X160005Y37027D01*
X160915D01*
X161037Y36933D01*
X161220Y36857D01*
X161417Y36831D01*
X161992D01*
Y34483D01*
X161993Y34479D01*
X161993Y34475D01*
X162037Y30117D01*
X161947Y30027D01*
X161685D01*
Y26869D01*
X163844D01*
X163943Y26869D01*
X164070Y26869D01*
X166229D01*
Y30027D01*
X164070D01*
X163971Y30027D01*
X163844Y30027D01*
X163559D01*
X163514Y34487D01*
Y37337D01*
X163538Y37395D01*
X163564Y37592D01*
Y40435D01*
X163588Y40493D01*
X163614Y40690D01*
Y41390D01*
X163754Y41530D01*
X163899D01*
Y39661D01*
X163943D01*
Y38571D01*
X163899D01*
Y36613D01*
X165307D01*
Y37068D01*
X167400D01*
Y36149D01*
X167768D01*
Y34417D01*
X167794Y34220D01*
X167870Y34037D01*
X167991Y33879D01*
X168149Y33758D01*
X168332Y33682D01*
X168529Y33656D01*
X168726Y33682D01*
X168909Y33758D01*
X169067Y33879D01*
X169188Y34037D01*
X169264Y34220D01*
X169290Y34417D01*
Y36149D01*
X169658D01*
Y39307D01*
X167400D01*
Y38388D01*
X165307D01*
Y38571D01*
X165263D01*
Y39661D01*
X165307D01*
Y39980D01*
X166116D01*
X166287Y40003D01*
X166446Y40069D01*
X166582Y40174D01*
X166687Y40310D01*
X166753Y40469D01*
X166776Y40640D01*
X166753Y40811D01*
X166687Y40970D01*
X166582Y41106D01*
X166446Y41211D01*
X166287Y41277D01*
X166116Y41300D01*
X165307D01*
Y41530D01*
X167400D01*
Y40449D01*
X169658D01*
Y43607D01*
D02*
G37*
G36*
X116814Y60706D02*
X113818D01*
X113844Y60506D01*
X113971Y60201D01*
X114172Y59939D01*
X114434Y59738D01*
X114689Y59632D01*
Y59494D01*
X114434Y59388D01*
X114172Y59187D01*
X113971Y58925D01*
X113844Y58620D01*
X113801Y58293D01*
X113840Y58000D01*
X112056Y56215D01*
X111951Y56079D01*
X111885Y55920D01*
X111862Y55749D01*
Y38608D01*
X111885Y38437D01*
X111951Y38278D01*
X112056Y38142D01*
X112192Y38037D01*
X112351Y37971D01*
X112522Y37948D01*
X112693Y37971D01*
X112852Y38037D01*
X112988Y38142D01*
X113093Y38278D01*
X113159Y38437D01*
X113182Y38608D01*
Y55476D01*
X113706Y56000D01*
X113826Y55940D01*
X113801Y55753D01*
X113844Y55426D01*
X113971Y55121D01*
X114172Y54859D01*
X114434Y54658D01*
X114689Y54552D01*
Y54414D01*
X114434Y54308D01*
X114172Y54107D01*
X113971Y53845D01*
X113844Y53540D01*
X113801Y53213D01*
X113844Y52886D01*
X113971Y52581D01*
X114172Y52319D01*
X114434Y52118D01*
X114689Y52012D01*
Y51874D01*
X114434Y51768D01*
X114172Y51567D01*
X113971Y51305D01*
X113844Y51000D01*
X113801Y50673D01*
X113844Y50346D01*
X113971Y50041D01*
X114172Y49779D01*
X114434Y49578D01*
X114689Y49472D01*
Y49334D01*
X114434Y49228D01*
X114172Y49027D01*
X113971Y48765D01*
X113844Y48460D01*
X113818Y48260D01*
X116814D01*
X116788Y48460D01*
X116661Y48765D01*
X116460Y49027D01*
X116198Y49228D01*
X115943Y49334D01*
Y49472D01*
X116198Y49578D01*
X116460Y49779D01*
X116661Y50041D01*
X116788Y50346D01*
X116831Y50673D01*
X116788Y51000D01*
X116661Y51305D01*
X116460Y51567D01*
X116198Y51768D01*
X115943Y51874D01*
Y52012D01*
X116198Y52118D01*
X116460Y52319D01*
X116661Y52581D01*
X116788Y52886D01*
X116831Y53213D01*
X116788Y53540D01*
X116661Y53845D01*
X116460Y54107D01*
X116198Y54308D01*
X115943Y54414D01*
Y54552D01*
X116198Y54658D01*
X116460Y54859D01*
X116640Y55093D01*
X121647D01*
X123927Y52813D01*
Y40767D01*
X123950Y40596D01*
X124016Y40437D01*
X124121Y40301D01*
X124257Y40196D01*
X124416Y40130D01*
X124587Y40107D01*
X124758Y40130D01*
X124917Y40196D01*
X125053Y40301D01*
X125158Y40437D01*
X125224Y40596D01*
X125247Y40767D01*
Y53086D01*
X125224Y53257D01*
X125158Y53416D01*
X125053Y53552D01*
X122386Y56219D01*
X122250Y56324D01*
X122091Y56390D01*
X121920Y56413D01*
X116640D01*
X116460Y56647D01*
X116198Y56848D01*
X115943Y56954D01*
Y57092D01*
X116198Y57198D01*
X116460Y57399D01*
X116661Y57661D01*
X116788Y57966D01*
X116831Y58293D01*
X116788Y58620D01*
X116661Y58925D01*
X116460Y59187D01*
X116198Y59388D01*
X115943Y59494D01*
Y59632D01*
X116198Y59738D01*
X116460Y59939D01*
X116661Y60201D01*
X116788Y60506D01*
X116814Y60706D01*
D02*
G37*
G36*
X126553Y38972D02*
X126223D01*
Y38542D01*
X126963D01*
Y38562D01*
X126932Y38719D01*
X126843Y38852D01*
X126710Y38941D01*
X126553Y38972D01*
D02*
G37*
G36*
X125969D02*
X125638D01*
X125482Y38941D01*
X125349Y38852D01*
X125260Y38719D01*
X125229Y38562D01*
Y38542D01*
X125969D01*
Y38972D01*
D02*
G37*
G36*
X155842Y39294D02*
X154528D01*
Y37922D01*
X155842D01*
Y37977D01*
X157495D01*
X157535Y37985D01*
X157952D01*
X158109Y38016D01*
X158242Y38105D01*
X158331Y38238D01*
X158362Y38395D01*
Y38689D01*
X158331Y38846D01*
X158242Y38979D01*
X158109Y39068D01*
X157952Y39099D01*
X157535D01*
X157495Y39107D01*
X155842D01*
Y39294D01*
D02*
G37*
G36*
X126963Y38288D02*
X126223D01*
Y37858D01*
X126553D01*
X126710Y37889D01*
X126843Y37978D01*
X126932Y38111D01*
X126963Y38268D01*
Y38288D01*
D02*
G37*
G36*
X125969D02*
X125229D01*
Y38268D01*
X125260Y38111D01*
X125349Y37978D01*
X125482Y37889D01*
X125638Y37858D01*
X125969D01*
Y38288D01*
D02*
G37*
G36*
X157952Y37199D02*
X157622D01*
Y36769D01*
X158362D01*
Y36790D01*
X158331Y36946D01*
X158242Y37079D01*
X158109Y37168D01*
X157952Y37199D01*
D02*
G37*
G36*
X157368D02*
X157038D01*
X156881Y37168D01*
X156748Y37079D01*
X156659Y36946D01*
X156628Y36790D01*
Y36769D01*
X157368D01*
Y37199D01*
D02*
G37*
G36*
X158362Y36515D02*
X157622D01*
Y36085D01*
X157952D01*
X158109Y36116D01*
X158242Y36205D01*
X158331Y36338D01*
X158362Y36494D01*
Y36515D01*
D02*
G37*
G36*
X157368D02*
X156628D01*
Y36494D01*
X156659Y36338D01*
X156748Y36205D01*
X156881Y36116D01*
X157038Y36085D01*
X157368D01*
Y36515D01*
D02*
G37*
G36*
X129952Y37135D02*
X128638D01*
Y37080D01*
X126096D01*
X126056Y37072D01*
X125638D01*
X125482Y37041D01*
X125349Y36952D01*
X125260Y36819D01*
X125229Y36662D01*
Y36368D01*
X125260Y36211D01*
X125349Y36078D01*
X125482Y35989D01*
X125638Y35958D01*
X126056D01*
X126096Y35950D01*
X128638D01*
Y35763D01*
X129952D01*
Y37135D01*
D02*
G37*
G36*
X116953Y43099D02*
X114695D01*
Y39941D01*
X116953D01*
Y40043D01*
X117080Y40051D01*
X117092Y39961D01*
X117158Y39802D01*
X117263Y39666D01*
X117399Y39561D01*
X117558Y39495D01*
X117729Y39472D01*
X118411D01*
Y39153D01*
X118455D01*
Y38571D01*
X118411D01*
Y38480D01*
X116953D01*
Y38799D01*
X114695D01*
Y35641D01*
X115063D01*
Y34417D01*
X115089Y34220D01*
X115165Y34037D01*
X115286Y33879D01*
X115444Y33758D01*
X115627Y33682D01*
X115824Y33656D01*
X116021Y33682D01*
X116204Y33758D01*
X116362Y33879D01*
X116483Y34037D01*
X116559Y34220D01*
X116585Y34417D01*
Y35641D01*
X116953D01*
Y36958D01*
X118411D01*
Y36613D01*
X119819D01*
Y37398D01*
X119850Y37472D01*
X119876Y37669D01*
X119850Y37866D01*
X119819Y37940D01*
Y38571D01*
X119775D01*
Y39153D01*
X119819D01*
Y41111D01*
X118411D01*
Y40792D01*
X117729D01*
X117558Y40769D01*
X117399Y40703D01*
X117263Y40598D01*
X117158Y40462D01*
X117092Y40303D01*
X117080Y40213D01*
X116953Y40221D01*
Y41276D01*
X119954D01*
X120104Y41126D01*
Y40182D01*
X120130Y39985D01*
X120154Y39927D01*
Y37515D01*
X120180Y37318D01*
X120204Y37260D01*
Y34867D01*
X120158Y30027D01*
X119775Y30027D01*
X119648Y30027D01*
X117489D01*
Y26869D01*
X119648D01*
X119747Y26869D01*
X119874Y26869D01*
X122033D01*
Y30027D01*
X121770D01*
X121680Y30117D01*
X121725Y34857D01*
X121725Y34860D01*
X121726Y34864D01*
Y36704D01*
X122174D01*
X122371Y36730D01*
X122554Y36806D01*
X122676Y36900D01*
X123586D01*
X123626Y36908D01*
X124044D01*
X124200Y36939D01*
X124333Y37028D01*
X124422Y37161D01*
X124453Y37318D01*
Y37612D01*
X124422Y37769D01*
X124333Y37902D01*
X124200Y37991D01*
X124044Y38022D01*
X123626D01*
X123586Y38030D01*
X122676D01*
X122554Y38124D01*
X122371Y38200D01*
X122174Y38226D01*
X121675D01*
Y40132D01*
X121650Y40329D01*
X121626Y40387D01*
Y41441D01*
X121600Y41638D01*
X121555Y41745D01*
X121524Y41821D01*
X121403Y41979D01*
X120807Y42575D01*
X120649Y42696D01*
X120466Y42772D01*
X120269Y42798D01*
X116953D01*
Y43099D01*
D02*
G37*
G36*
X112016Y33734D02*
X111504D01*
X110998Y33654D01*
X110511Y33496D01*
X110055Y33263D01*
X109640Y32962D01*
X109278Y32600D01*
X108977Y32185D01*
X108744Y31729D01*
X108586Y31242D01*
X108506Y30736D01*
Y30224D01*
X108586Y29718D01*
X108744Y29231D01*
X108977Y28775D01*
X109278Y28360D01*
X109640Y27998D01*
X110055Y27697D01*
X110511Y27464D01*
X110998Y27306D01*
X111504Y27226D01*
X112016D01*
X112522Y27306D01*
X113009Y27464D01*
X113465Y27697D01*
X113880Y27998D01*
X114242Y28360D01*
X114543Y28775D01*
X114776Y29231D01*
X114934Y29718D01*
X115014Y30224D01*
Y30736D01*
X114934Y31242D01*
X114776Y31729D01*
X114543Y32185D01*
X114242Y32600D01*
X113880Y32962D01*
X113465Y33263D01*
X113009Y33496D01*
X112522Y33654D01*
X112016Y33734D01*
D02*
G37*
G36*
X171706Y33353D02*
X171194D01*
X170688Y33273D01*
X170201Y33115D01*
X169745Y32882D01*
X169330Y32581D01*
X168968Y32219D01*
X168667Y31804D01*
X168434Y31348D01*
X168276Y30861D01*
X168196Y30355D01*
Y29843D01*
X168276Y29337D01*
X168434Y28850D01*
X168667Y28394D01*
X168968Y27979D01*
X169330Y27617D01*
X169745Y27316D01*
X170201Y27083D01*
X170688Y26925D01*
X171194Y26845D01*
X171706D01*
X172212Y26925D01*
X172699Y27083D01*
X173155Y27316D01*
X173570Y27617D01*
X173932Y27979D01*
X174233Y28394D01*
X174466Y28850D01*
X174624Y29337D01*
X174704Y29843D01*
Y30355D01*
X174624Y30861D01*
X174466Y31348D01*
X174233Y31804D01*
X173932Y32219D01*
X173570Y32581D01*
X173155Y32882D01*
X172699Y33115D01*
X172212Y33273D01*
X171706Y33353D01*
D02*
G37*
%LPD*%
G36*
X117926Y92329D02*
X117952Y92132D01*
X117982Y92058D01*
Y91350D01*
X118587D01*
X118655Y91223D01*
X118635Y91194D01*
X116778D01*
Y92012D01*
X114520D01*
Y88854D01*
X116778D01*
Y89673D01*
X119032D01*
X119229Y89698D01*
X119315Y89734D01*
X119387Y89627D01*
X119192Y89431D01*
X119069Y89248D01*
X119026Y89032D01*
X119026Y89032D01*
Y88639D01*
X119016Y88578D01*
X118999Y88527D01*
X118979Y88491D01*
X118957Y88464D01*
X118931Y88442D01*
X118894Y88423D01*
X118843Y88406D01*
X118782Y88395D01*
X114415D01*
X114346Y88485D01*
X113664Y89167D01*
Y93157D01*
X114107Y93600D01*
X114520D01*
Y93154D01*
X116778D01*
Y93977D01*
X117926D01*
Y92329D01*
D02*
G37*
G36*
X119969Y100335D02*
X119879Y100217D01*
X119803Y100033D01*
X119777Y99836D01*
Y94999D01*
X119752Y94939D01*
X119726Y94742D01*
Y92534D01*
X119702Y92476D01*
X119676Y92279D01*
Y92153D01*
X119593Y92070D01*
X119439Y92095D01*
X119421Y92132D01*
X119447Y92329D01*
Y94738D01*
X119442Y94772D01*
Y94922D01*
X119416Y95118D01*
X119390Y95181D01*
Y95721D01*
X119198D01*
X119144Y100439D01*
X119233Y100529D01*
X119968D01*
X119969Y100335D01*
D02*
G37*
G36*
X120953Y89528D02*
X121013Y89475D01*
X121006Y89443D01*
X120985Y89391D01*
Y89336D01*
X120974Y89281D01*
X120985Y89226D01*
Y89171D01*
X121006Y89119D01*
X121017Y89065D01*
X121048Y89019D01*
X121069Y88967D01*
X121102Y88934D01*
Y88446D01*
X120945Y88415D01*
X120811Y88325D01*
X120722Y88192D01*
X120690Y88034D01*
Y87734D01*
X120722Y87576D01*
X120811Y87443D01*
X120945Y87353D01*
X121102Y87322D01*
X121652D01*
X121667Y87319D01*
X121937D01*
X121952Y87322D01*
X122772D01*
X122823Y87249D01*
X122822Y87248D01*
X122728Y87176D01*
X121952D01*
X121937Y87179D01*
X120234D01*
Y87300D01*
X120156D01*
Y87830D01*
Y88798D01*
X120908Y89550D01*
X120953Y89528D01*
D02*
G37*
G36*
X119891Y87830D02*
X119291Y86930D01*
X119285Y87044D01*
X119267Y87146D01*
X119237Y87236D01*
X119195Y87314D01*
X119141Y87380D01*
X119075Y87434D01*
X118997Y87476D01*
X118907Y87506D01*
X118805Y87524D01*
X118691Y87530D01*
Y88130D01*
X118805Y88136D01*
X118907Y88154D01*
X118997Y88184D01*
X119075Y88226D01*
X119141Y88280D01*
X119195Y88346D01*
X119237Y88424D01*
X119267Y88514D01*
X119285Y88616D01*
X119291Y88730D01*
X119891Y87830D01*
D02*
G37*
G36*
X134514Y70924D02*
X134509Y70904D01*
Y70574D01*
X134542Y70451D01*
X132417Y68326D01*
X131821D01*
X131707Y68440D01*
X131421Y68606D01*
X131288Y68641D01*
Y68773D01*
X131421Y68808D01*
X131707Y68974D01*
X131940Y69207D01*
X132004Y69317D01*
X132461D01*
X132632Y69340D01*
X132791Y69406D01*
X132927Y69511D01*
X134404Y70987D01*
X134514Y70924D01*
D02*
G37*
G36*
X137643Y91548D02*
Y65932D01*
X137122Y65411D01*
X137012Y65474D01*
X137017Y65494D01*
Y65824D01*
X136932Y66143D01*
X136766Y66429D01*
X136533Y66662D01*
X136247Y66828D01*
X136114Y66863D01*
Y66995D01*
X136247Y67030D01*
X136533Y67196D01*
X136766Y67429D01*
X136932Y67715D01*
X137017Y68034D01*
Y68364D01*
X136932Y68683D01*
X136766Y68969D01*
X136533Y69202D01*
X136247Y69368D01*
X136114Y69403D01*
Y69535D01*
X136247Y69570D01*
X136533Y69736D01*
X136766Y69969D01*
X136932Y70255D01*
X137017Y70574D01*
Y70904D01*
X136932Y71223D01*
X136766Y71509D01*
X136533Y71742D01*
X136247Y71908D01*
X136114Y71943D01*
Y72075D01*
X136247Y72110D01*
X136533Y72276D01*
X136766Y72509D01*
X136932Y72795D01*
X137017Y73114D01*
Y73444D01*
X136932Y73763D01*
X136766Y74049D01*
X136533Y74282D01*
X136247Y74448D01*
X136114Y74483D01*
Y74615D01*
X136247Y74650D01*
X136533Y74816D01*
X136766Y75049D01*
X136932Y75335D01*
X137017Y75654D01*
Y75984D01*
X136932Y76303D01*
X136766Y76589D01*
X136533Y76822D01*
X136247Y76988D01*
X136114Y77023D01*
Y77155D01*
X136247Y77190D01*
X136533Y77356D01*
X136766Y77589D01*
X136932Y77875D01*
X137017Y78194D01*
Y78524D01*
X136932Y78843D01*
X136766Y79129D01*
X136533Y79362D01*
X136247Y79528D01*
X136114Y79563D01*
Y79695D01*
X136247Y79730D01*
X136533Y79896D01*
X136766Y80129D01*
X136932Y80415D01*
X137017Y80734D01*
Y81064D01*
X136932Y81383D01*
X136766Y81669D01*
X136533Y81902D01*
X136247Y82068D01*
X136114Y82103D01*
Y82235D01*
X136247Y82270D01*
X136533Y82436D01*
X136766Y82669D01*
X136932Y82955D01*
X137017Y83274D01*
Y83604D01*
X136932Y83923D01*
X136766Y84209D01*
X136533Y84442D01*
X136247Y84608D01*
X136114Y84643D01*
Y84775D01*
X136247Y84810D01*
X136533Y84976D01*
X136766Y85209D01*
X136932Y85495D01*
X137017Y85814D01*
Y86144D01*
X136932Y86463D01*
X136766Y86749D01*
X136533Y86982D01*
X136247Y87148D01*
X136114Y87183D01*
Y87315D01*
X136247Y87350D01*
X136533Y87516D01*
X136766Y87749D01*
X136932Y88035D01*
X137017Y88354D01*
Y88684D01*
X136932Y89003D01*
X136766Y89289D01*
X136533Y89522D01*
X136247Y89688D01*
X136114Y89723D01*
Y89855D01*
X136247Y89890D01*
X136533Y90056D01*
X136766Y90289D01*
X136932Y90575D01*
X137017Y90894D01*
Y91224D01*
X136932Y91543D01*
X136766Y91829D01*
X136533Y92062D01*
X136423Y92126D01*
Y92589D01*
X136550Y92641D01*
X137643Y91548D01*
D02*
G37*
G36*
X164986Y77462D02*
X165219Y77229D01*
X165505Y77063D01*
X165638Y77028D01*
Y76896D01*
X165505Y76861D01*
X165219Y76695D01*
X164986Y76462D01*
X164959Y76415D01*
X152107D01*
X152006Y76589D01*
X151773Y76822D01*
X151487Y76988D01*
X151354Y77023D01*
Y77155D01*
X151487Y77190D01*
X151773Y77356D01*
X152006Y77589D01*
X152033Y77636D01*
X164885D01*
X164986Y77462D01*
D02*
G37*
D19*
X125222Y76740D02*
D03*
Y80740D02*
D03*
D20*
X133858Y102108D02*
D03*
X131699D02*
D03*
X161544D02*
D03*
X163703D02*
D03*
X165100Y28448D02*
D03*
X162814D02*
D03*
X120904D02*
D03*
X118618D02*
D03*
X120523Y102108D02*
D03*
X118364D02*
D03*
X167640Y91449D02*
D03*
Y95749D02*
D03*
X168529Y42028D02*
D03*
Y37728D02*
D03*
X115824Y41520D02*
D03*
Y37220D02*
D03*
X115649Y90433D02*
D03*
Y94733D02*
D03*
D21*
X118071Y83947D02*
D03*
X119577D02*
D03*
X114515Y66548D02*
D03*
X116021D02*
D03*
X119577Y86614D02*
D03*
X118071D02*
D03*
X126816Y90297D02*
D03*
X125310D02*
D03*
X133674Y91059D02*
D03*
X132168D02*
D03*
X152772Y96139D02*
D03*
X151266D02*
D03*
X155185Y38608D02*
D03*
X153679D02*
D03*
X129295Y36449D02*
D03*
X130801D02*
D03*
X127841Y93853D02*
D03*
X129347D02*
D03*
D22*
X126887Y87884D02*
D03*
Y86614D02*
D03*
Y85344D02*
D03*
Y84074D02*
D03*
X121937D02*
D03*
Y85344D02*
D03*
Y86614D02*
D03*
Y87884D02*
D03*
D23*
X119713Y75605D02*
D03*
Y80605D02*
D03*
D24*
X129873Y89290D02*
D03*
Y90796D02*
D03*
X128651Y80382D02*
D03*
Y78876D02*
D03*
X123444Y71383D02*
D03*
Y72889D02*
D03*
X129873Y84065D02*
D03*
Y82559D02*
D03*
Y85861D02*
D03*
Y87367D02*
D03*
X127762Y71637D02*
D03*
Y73143D02*
D03*
X132413Y85861D02*
D03*
Y87367D02*
D03*
X168740Y51587D02*
D03*
Y53093D02*
D03*
D25*
X161660Y92710D02*
D03*
X163460D02*
D03*
X161660Y95250D02*
D03*
X163460D02*
D03*
X162803Y40640D02*
D03*
X164603D02*
D03*
X162803Y37592D02*
D03*
X164603D02*
D03*
X120915D02*
D03*
X119115D02*
D03*
X120915Y40132D02*
D03*
X119115D02*
D03*
X120486Y94742D02*
D03*
X118686D02*
D03*
X120486Y92329D02*
D03*
X118686D02*
D03*
D26*
X155463Y96200D02*
D03*
X157973Y95250D02*
D03*
X155463Y94300D02*
D03*
X157495Y38542D02*
D03*
X160005Y37592D02*
D03*
X157495Y36642D02*
D03*
X126096Y36515D02*
D03*
X123586Y37465D02*
D03*
X126096Y38415D02*
D03*
X125413Y93792D02*
D03*
X122903Y94742D02*
D03*
X125413Y95692D02*
D03*
D43*
X124412Y85979D02*
D03*
D44*
X163068Y63373D02*
X166021D01*
X168740Y53093D02*
Y60904D01*
X166271Y63373D02*
X168740Y60904D01*
X166021Y63373D02*
X166271D01*
X168711Y53093D02*
X168740D01*
X166021Y53086D02*
X168704D01*
X168711Y53093D01*
X123453Y72892D02*
X123476D01*
X120563Y72898D02*
X124714D01*
X128651Y76835D02*
Y78876D01*
X124714Y72898D02*
X128651Y76835D01*
X147955Y46101D02*
Y65151D01*
X151003Y68199D01*
X124587Y40767D02*
Y53086D01*
X115316Y55753D02*
X121920D01*
X124587Y53086D01*
X115066Y58293D02*
X115316D01*
X112522Y55749D02*
X115066Y58293D01*
X135763Y50419D02*
X138938Y47244D01*
Y38608D02*
Y47244D01*
X112522Y38608D02*
Y55749D01*
X130804Y36481D02*
X130833D01*
X132207Y37855D01*
X130801Y36478D02*
X130804Y36481D01*
X132207Y37855D02*
Y57023D01*
X130801Y36449D02*
Y36478D01*
X132207Y57023D02*
X135763Y60579D01*
X151003Y52959D02*
X154178D01*
Y58293D02*
X166021D01*
X151066Y75756D02*
X165926D01*
X151003Y75819D02*
X151066Y75756D01*
X165926D02*
X165989Y75692D01*
X151066Y78296D02*
X165926D01*
X165989Y78232D01*
X151003Y78359D02*
X151066Y78296D01*
X133674Y91059D02*
X135763D01*
X129129Y79325D02*
X129354D01*
X133674Y83645D01*
Y91059D01*
X128651Y78876D02*
X128680D01*
X129129Y79325D01*
X132461Y69977D02*
X135763Y73279D01*
X130937Y69977D02*
X132461D01*
X131167Y67667D02*
X132691D01*
X130937Y67437D02*
X131167Y67667D01*
X132691D02*
X135763Y70739D01*
X129347Y93853D02*
X136271D01*
X138303Y91821D01*
X135763Y91302D02*
Y92710D01*
X138303Y65659D02*
Y91821D01*
X135763Y63119D02*
X138303Y65659D01*
X115189Y63500D02*
Y65024D01*
Y63500D02*
X115316Y63373D01*
X115189Y65024D02*
X116018Y65853D01*
Y66545D02*
X116021Y66548D01*
X116018Y65853D02*
Y66545D01*
X116021Y66577D02*
X116024Y66580D01*
X116872D01*
X119713Y69421D01*
X116021Y66548D02*
Y66577D01*
X119713Y69421D02*
Y73748D01*
Y75605D01*
Y73748D02*
X120563Y72898D01*
X135763Y47879D02*
X135890Y48006D01*
X133858Y47879D02*
X135763D01*
Y58039D02*
X138557D01*
X141986Y47879D02*
Y54610D01*
X138557Y58039D02*
X141986Y54610D01*
Y47879D02*
X151257Y38608D01*
X153679D01*
X135636Y91175D02*
X135763Y91302D01*
X165989Y70612D02*
X168783D01*
X163068D02*
X165989D01*
X166116Y47879D02*
X170307D01*
X167546Y95504D02*
X170307D01*
X167165Y95123D02*
X167546Y95504D01*
X163510Y95123D02*
X167165D01*
X164603Y40640D02*
X166116D01*
X130937Y75057D02*
X133858D01*
X115443Y74422D02*
Y86312D01*
X113808Y87948D02*
X115443Y86312D01*
Y74422D02*
X116713Y73152D01*
X117729D01*
X117729Y40132D02*
X119115D01*
X129437Y74827D02*
X130707D01*
X129159Y74549D02*
X129437Y74827D01*
X130707D02*
X130937Y75057D01*
X127791Y73143D02*
X129159Y74511D01*
Y74549D01*
X127762Y73143D02*
X127791D01*
X164603Y37678D02*
Y40640D01*
Y37592D02*
Y37678D01*
X164653Y37728D01*
X168529D01*
X163460Y95173D02*
Y95250D01*
Y92710D02*
Y95173D01*
X163510Y95123D01*
X119115Y37669D02*
Y40121D01*
Y37592D02*
Y37669D01*
X129870Y89287D02*
X129873Y89290D01*
X128863Y89287D02*
X129870D01*
X128857Y89281D02*
X128863Y89287D01*
X126825Y88900D02*
X126834Y88909D01*
Y90297D01*
X126813Y90300D02*
X126816Y90297D01*
D45*
X147828Y96139D02*
X151266D01*
X145669Y93980D02*
X147828Y96139D01*
X145669Y90043D02*
Y93980D01*
X138430Y61468D02*
X145669D01*
X135763Y55499D02*
X138430D01*
X151003Y70739D02*
X154178D01*
Y60960D02*
X166021D01*
X119577Y83947D02*
Y84827D01*
Y80741D02*
Y83947D01*
X119646Y80673D02*
X125155D01*
X119577Y80741D02*
X119646Y80673D01*
X125155D02*
X125222Y80740D01*
X120537Y94793D02*
Y99836D01*
X112903Y88852D02*
Y93472D01*
X113792Y94361D02*
X115277D01*
X112903Y93472D02*
X113792Y94361D01*
X115277D02*
X115654Y94738D01*
X112903Y88852D02*
X113808Y87948D01*
X168529Y34417D02*
Y37728D01*
X115824Y34417D02*
Y37220D01*
X118682Y94738D02*
Y94922D01*
X119577Y84827D02*
X120094Y85344D01*
X119065Y37719D02*
X119115Y37669D01*
X116199Y37719D02*
X119065D01*
X160147Y95250D02*
X161660D01*
X161610Y95300D02*
Y98105D01*
Y95300D02*
X161660Y95250D01*
X161544Y102108D02*
X161610Y98105D01*
X161660Y92710D02*
Y95250D01*
X167640Y91053D02*
Y91449D01*
X167265Y90678D02*
X167640Y91053D01*
X161710Y91264D02*
X162296Y90678D01*
X161710Y91264D02*
Y92660D01*
X162296Y90678D02*
X167265D01*
X161660Y92710D02*
X161710Y92660D01*
X162753Y34483D02*
X162814Y28448D01*
X162753Y37542D02*
X162803Y37592D01*
X162753Y34483D02*
Y37542D01*
X168266Y42291D02*
X168529Y42028D01*
X163439Y42291D02*
X168266D01*
X162853Y40690D02*
Y41705D01*
X163439Y42291D01*
X162803Y40640D02*
X162853Y40690D01*
X162803Y37592D02*
Y40640D01*
X161417Y37592D02*
X162803D01*
X120965Y34864D02*
Y37465D01*
X120915Y37515D02*
X120965Y37465D01*
X122174D01*
X120915Y37515D02*
Y37592D01*
X120904Y28448D02*
X120965Y34864D01*
X120915Y37592D02*
Y40132D01*
X115951Y42285D02*
Y42291D01*
Y41647D02*
Y42285D01*
X120865Y40182D02*
X120915Y40132D01*
X120865Y40182D02*
Y41441D01*
X120269Y42037D02*
X120865Y41441D01*
X116199Y42037D02*
X120269D01*
X115951Y42285D02*
X116199Y42037D01*
X115824Y41520D02*
X115951Y41647D01*
X118686Y92329D02*
Y94738D01*
X118364Y102108D02*
X118443Y95160D01*
X118682Y94922D01*
X120486Y94742D02*
X121491D01*
X119032Y90433D02*
X120436Y91838D01*
Y92279D01*
X115649Y90433D02*
X119032D01*
X120436Y92279D02*
X120486Y92329D01*
X115654Y94738D02*
X118682D01*
X120486Y92329D02*
Y94742D01*
D46*
X118110Y83986D02*
Y85217D01*
X126887Y83171D02*
X128651Y81407D01*
X126887Y83171D02*
Y84074D01*
X128651Y80382D02*
Y81407D01*
X127572Y84074D02*
X127581Y84065D01*
X126887Y84074D02*
X127572D01*
X127581Y84065D02*
X129873D01*
X131699Y102108D02*
X131756Y97850D01*
X131581Y97418D02*
X131756Y97593D01*
X129921Y95758D02*
X131581Y97418D01*
X131756Y97593D02*
Y97850D01*
X120523Y102108D02*
Y102235D01*
Y102108D02*
X120537Y99836D01*
X113925Y87830D02*
X119591D01*
X129844Y90796D02*
X129921Y90873D01*
X118071Y83947D02*
X118110Y83986D01*
X155185Y38608D02*
X155251Y38542D01*
X157495D01*
X129921Y90873D02*
Y92329D01*
X121667Y87884D02*
Y89153D01*
Y87884D02*
X121937D01*
X121539Y89281D02*
X121667Y89153D01*
X119591Y89032D02*
X122380Y91821D01*
X119591Y87830D02*
Y89032D01*
X119577Y86614D02*
X119591Y86628D01*
Y87830D01*
X152772Y96139D02*
X152833Y96200D01*
X155463D01*
X157973Y95250D02*
X160147D01*
X160005Y37592D02*
X161417D01*
X122174Y37465D02*
X123586D01*
X129229Y36515D02*
X129295Y36449D01*
X126096Y36515D02*
X129229D01*
X127785Y93797D02*
X127841Y93853D01*
X125413Y93792D02*
X125418Y93797D01*
X127785D01*
X121491Y94742D02*
X122903D01*
X120094Y85344D02*
X121937D01*
X122380Y91821D02*
X128819D01*
X119577Y86614D02*
X121937D01*
X128819Y91821D02*
X129844Y90796D01*
X129873Y87367D02*
X132413D01*
X128476Y88900D02*
X128857Y89281D01*
X126887Y86614D02*
X128125D01*
X128476Y86965D01*
Y88900D01*
X128890Y85758D02*
X129770D01*
X129873Y85861D01*
X126887Y85344D02*
X128476D01*
X128890Y85758D01*
X126825Y88900D02*
X126837Y88888D01*
Y87934D02*
Y88888D01*
X121252Y84074D02*
X121937D01*
D47*
X135763Y60579D02*
D03*
Y63119D02*
D03*
Y83439D02*
D03*
Y75819D02*
D03*
Y50419D02*
D03*
Y68199D02*
D03*
Y78359D02*
D03*
Y47879D02*
D03*
Y45339D02*
D03*
Y70739D02*
D03*
Y58039D02*
D03*
Y85979D02*
D03*
Y80899D02*
D03*
Y52959D02*
D03*
Y91059D02*
D03*
Y42799D02*
D03*
Y65659D02*
D03*
Y55499D02*
D03*
Y73279D02*
D03*
Y88519D02*
D03*
X151003Y83439D02*
D03*
Y75819D02*
D03*
Y50419D02*
D03*
Y68199D02*
D03*
Y78359D02*
D03*
Y47879D02*
D03*
Y45339D02*
D03*
Y70739D02*
D03*
Y58039D02*
D03*
Y85979D02*
D03*
Y80899D02*
D03*
Y52959D02*
D03*
Y63119D02*
D03*
Y91059D02*
D03*
Y42799D02*
D03*
Y65659D02*
D03*
Y60579D02*
D03*
Y55499D02*
D03*
Y73279D02*
D03*
Y88519D02*
D03*
X165989Y78232D02*
D03*
Y75692D02*
D03*
Y73152D02*
D03*
Y70612D02*
D03*
X130937Y75057D02*
D03*
Y72517D02*
D03*
Y69977D02*
D03*
Y67437D02*
D03*
D48*
X171450Y100330D02*
D03*
X111760D02*
D03*
X171450Y30099D02*
D03*
X111760Y30480D02*
D03*
D49*
X115316Y63373D02*
D03*
Y60833D02*
D03*
Y58293D02*
D03*
Y55753D02*
D03*
Y53213D02*
D03*
Y50673D02*
D03*
Y48133D02*
D03*
Y45593D02*
D03*
X166021Y65913D02*
D03*
Y63373D02*
D03*
Y60960D02*
D03*
Y58293D02*
D03*
Y55626D02*
D03*
Y53086D02*
D03*
D50*
X128143Y62103D02*
D03*
Y46609D02*
D03*
D51*
X158464Y64643D02*
D03*
Y54483D02*
D03*
D52*
X147955Y46101D02*
D03*
X124587Y40767D02*
D03*
X138938Y38608D02*
D03*
X112522D02*
D03*
X145669Y90043D02*
D03*
Y61468D02*
D03*
X138430D02*
D03*
Y55499D02*
D03*
X154178Y52959D02*
D03*
Y58293D02*
D03*
Y70739D02*
D03*
Y60960D02*
D03*
X133858Y47879D02*
D03*
Y75057D02*
D03*
D53*
X118110Y85217D02*
D03*
X163068Y63373D02*
D03*
X135763Y92710D02*
D03*
X168783Y70612D02*
D03*
X135636Y91175D02*
D03*
X168529Y34417D02*
D03*
X115824D02*
D03*
X163068Y70612D02*
D03*
X170307Y47879D02*
D03*
Y95504D02*
D03*
X166116Y47879D02*
D03*
Y40640D02*
D03*
X117729Y73152D02*
D03*
X117729Y40132D02*
D03*
X129921Y92329D02*
D03*
Y95758D02*
D03*
X121539Y89281D02*
D03*
M02*
