M48
;Layer_Color=9474304
;FILE_FORMAT=4:3
METRIC,LZ
;TYPE=PLATED
T1F00S00C0.200
T2F00S00C0.300
T3F00S00C1.000
T4F00S00C3.200
;TYPE=NON_PLATED
T5F00S00C3.200
T6F00S00C3.556
%
T01
X0112522Y0038608
X0138938
X0133858Y0047879
X013843Y0055499
Y0061468
X0145669
X0154178Y006096
Y0058293
Y0052959
X0147955Y0046101
X0124587Y0040767
X0133858Y0075057
X0154178Y0070739
X0145669Y0090043
T02
X0115824Y0034417
X0168529
X0166116Y004064
Y0047879
X0170307
X0163068Y0063373
Y0070612
X0168783
X0117729Y0073152
X0117729Y0040132
X011811Y0085217
X0121539Y0089281
X0129921Y0092329
Y0095758
X0135763Y009271
X0135636Y0091175
X0170307Y0095504
T03
X0166021Y0053086
Y0055626
Y0058293
Y006096
Y0063373
Y0065913
X0165989Y0070612
Y0073152
Y0075692
Y0078232
X0151003Y0078359
Y0075819
Y0073279
Y0070739
Y0068199
Y0065659
Y0063119
Y0060579
Y0058039
Y0055499
Y0052959
Y0050419
Y0047879
Y0045339
Y0042799
X0135763
Y0045339
Y0047879
Y0050419
Y0052959
Y0055499
Y0058039
Y0060579
Y0063119
Y0065659
Y0068199
Y0070739
Y0073279
Y0075819
Y0078359
X0130937Y0075057
Y0072517
Y0069977
Y0067437
X0115316Y0063373
Y0060833
Y0058293
Y0055753
Y0053213
Y0050673
Y0048133
Y0045593
X0135763Y0080899
Y0083439
Y0085979
Y0088519
Y0091059
X0151003
Y0088519
Y0085979
Y0083439
Y0080899
T04
X011176Y003048
X017145Y0030099
X011176Y010033
X017145
T05
X0128143Y0046609
Y0062103
T06
X0158464Y0054483
Y0064643
M30
