G04*
G04 #@! TF.GenerationSoftware,Altium Limited,Altium Designer,24.1.2 (44)*
G04*
G04 Layer_Physical_Order=2*
G04 Layer_Color=16711680*
%FSLAX43Y43*%
%MOMM*%
G71*
G04*
G04 #@! TF.SameCoordinates,85857616-AEEE-408E-85A9-4B0E556C0A2E*
G04*
G04*
G04 #@! TF.FilePolarity,Positive*
G04*
G01*
G75*
%ADD44C,0.800*%
%ADD45C,1.000*%
%ADD46C,0.600*%
%ADD47C,2.000*%
%ADD48C,6.000*%
%ADD49O,2.500X2.000*%
%ADD50C,3.200*%
%ADD51C,3.556*%
%ADD52C,0.450*%
%ADD53C,0.600*%
G36*
X170199Y104472D02*
X172738D01*
X173247Y103964D01*
X173628D01*
X174516Y103075D01*
Y102821D01*
X175152Y102186D01*
Y101805D01*
X175533Y101424D01*
Y29288D01*
X175025Y28780D01*
Y28145D01*
X174135Y27256D01*
X173882D01*
X172865Y26240D01*
X110255D01*
X109873Y26621D01*
Y26748D01*
X109493D01*
X108730Y27510D01*
Y27637D01*
X108095Y28272D01*
Y28907D01*
X107715Y29288D01*
Y101170D01*
X107968Y101424D01*
Y102059D01*
X109873Y103964D01*
X111144D01*
X111397Y104218D01*
Y104345D01*
X111524Y104472D01*
X169945D01*
X170072Y104599D01*
X170199Y104472D01*
D02*
G37*
%LPC*%
G36*
X171706Y103584D02*
X171194D01*
X170688Y103504D01*
X170201Y103346D01*
X169745Y103113D01*
X169330Y102812D01*
X168968Y102450D01*
X168667Y102035D01*
X168434Y101579D01*
X168276Y101092D01*
X168196Y100586D01*
Y100074D01*
X168276Y99568D01*
X168434Y99081D01*
X168667Y98625D01*
X168968Y98210D01*
X169330Y97848D01*
X169745Y97547D01*
X170201Y97314D01*
X170688Y97156D01*
X171194Y97076D01*
X171706D01*
X172212Y97156D01*
X172699Y97314D01*
X173155Y97547D01*
X173570Y97848D01*
X173932Y98210D01*
X174233Y98625D01*
X174466Y99081D01*
X174624Y99568D01*
X174704Y100074D01*
Y100586D01*
X174624Y101092D01*
X174466Y101579D01*
X174233Y102035D01*
X173932Y102450D01*
X173570Y102812D01*
X173155Y103113D01*
X172699Y103346D01*
X172212Y103504D01*
X171706Y103584D01*
D02*
G37*
G36*
X112016D02*
X111504D01*
X110998Y103504D01*
X110511Y103346D01*
X110055Y103113D01*
X109640Y102812D01*
X109278Y102450D01*
X108977Y102035D01*
X108744Y101579D01*
X108586Y101092D01*
X108506Y100586D01*
Y100074D01*
X108586Y99568D01*
X108744Y99081D01*
X108977Y98625D01*
X109278Y98210D01*
X109640Y97848D01*
X110055Y97547D01*
X110511Y97314D01*
X110998Y97156D01*
X111504Y97076D01*
X112016D01*
X112522Y97156D01*
X113009Y97314D01*
X113465Y97547D01*
X113880Y97848D01*
X114242Y98210D01*
X114543Y98625D01*
X114776Y99081D01*
X114934Y99568D01*
X115014Y100074D01*
Y100586D01*
X114934Y101092D01*
X114776Y101579D01*
X114543Y102035D01*
X114242Y102450D01*
X113880Y102812D01*
X113465Y103113D01*
X113009Y103346D01*
X112522Y103504D01*
X112016Y103584D01*
D02*
G37*
G36*
X129921Y96323D02*
X129866Y96312D01*
X129811D01*
X129759Y96291D01*
X129705Y96280D01*
X129659Y96249D01*
X129607Y96228D01*
X129568Y96188D01*
X129522Y96157D01*
X129491Y96111D01*
X129451Y96072D01*
X129430Y96020D01*
X129399Y95974D01*
X129388Y95920D01*
X129367Y95868D01*
Y95813D01*
X129356Y95758D01*
Y92329D01*
X129367Y92274D01*
Y92219D01*
X129388Y92167D01*
X129399Y92113D01*
X129430Y92067D01*
X129451Y92015D01*
X129491Y91976D01*
X129522Y91930D01*
X129568Y91899D01*
X129607Y91859D01*
X129659Y91838D01*
X129705Y91807D01*
X129759Y91796D01*
X129811Y91775D01*
X129866D01*
X129921Y91764D01*
X129976Y91775D01*
X130031D01*
X130083Y91796D01*
X130137Y91807D01*
X130183Y91838D01*
X130235Y91859D01*
X130274Y91899D01*
X130320Y91930D01*
X130351Y91976D01*
X130391Y92015D01*
X130412Y92067D01*
X130443Y92113D01*
X130454Y92167D01*
X130475Y92219D01*
Y92274D01*
X130486Y92329D01*
Y95758D01*
X130475Y95813D01*
Y95868D01*
X130454Y95920D01*
X130443Y95974D01*
X130412Y96020D01*
X130391Y96072D01*
X130351Y96111D01*
X130320Y96157D01*
X130274Y96188D01*
X130235Y96228D01*
X130183Y96249D01*
X130137Y96280D01*
X130083Y96291D01*
X130031Y96312D01*
X129976D01*
X129921Y96323D01*
D02*
G37*
G36*
X119634Y89846D02*
X119418Y89803D01*
X119235Y89680D01*
X119235Y89680D01*
X117711Y88156D01*
X117588Y87973D01*
X117545Y87757D01*
X117545Y87757D01*
Y85217D01*
X117556Y85162D01*
Y85107D01*
X117577Y85055D01*
X117588Y85001D01*
X117619Y84955D01*
X117640Y84903D01*
X117680Y84864D01*
X117711Y84818D01*
X117757Y84787D01*
X117796Y84747D01*
X117848Y84726D01*
X117894Y84695D01*
X117948Y84684D01*
X118000Y84663D01*
X118055D01*
X118110Y84652D01*
X118165Y84663D01*
X118220D01*
X118272Y84684D01*
X118326Y84695D01*
X118372Y84726D01*
X118424Y84747D01*
X118463Y84787D01*
X118509Y84818D01*
X118540Y84864D01*
X118580Y84903D01*
X118601Y84955D01*
X118632Y85001D01*
X118643Y85055D01*
X118664Y85107D01*
Y85162D01*
X118675Y85217D01*
Y87523D01*
X119868Y88716D01*
X121539D01*
X121594Y88727D01*
X121649D01*
X121701Y88748D01*
X121755Y88759D01*
X121801Y88790D01*
X121853Y88811D01*
X121892Y88851D01*
X121938Y88882D01*
X121969Y88928D01*
X122009Y88967D01*
X122030Y89019D01*
X122061Y89065D01*
X122072Y89119D01*
X122093Y89171D01*
Y89226D01*
X122104Y89281D01*
X122093Y89336D01*
Y89391D01*
X122072Y89443D01*
X122061Y89497D01*
X122030Y89543D01*
X122009Y89595D01*
X121969Y89634D01*
X121938Y89680D01*
X121892Y89711D01*
X121853Y89751D01*
X121801Y89772D01*
X121755Y89803D01*
X121701Y89814D01*
X121649Y89835D01*
X121594D01*
X121539Y89846D01*
X119634D01*
X119634Y89846D01*
D02*
G37*
G36*
X166154Y79486D02*
X165824D01*
X165505Y79401D01*
X165219Y79235D01*
X164986Y79002D01*
X164820Y78716D01*
X164735Y78397D01*
Y78067D01*
X164820Y77748D01*
X164986Y77462D01*
X165219Y77229D01*
X165505Y77063D01*
X165638Y77028D01*
Y76896D01*
X165505Y76861D01*
X165219Y76695D01*
X164986Y76462D01*
X164820Y76176D01*
X164735Y75857D01*
Y75527D01*
X164820Y75208D01*
X164986Y74922D01*
X165219Y74689D01*
X165505Y74523D01*
X165638Y74488D01*
Y74356D01*
X165505Y74321D01*
X165219Y74155D01*
X164986Y73922D01*
X164820Y73636D01*
X164735Y73317D01*
Y73279D01*
X165989D01*
X167243D01*
Y73317D01*
X167158Y73636D01*
X166992Y73922D01*
X166759Y74155D01*
X166473Y74321D01*
X166340Y74356D01*
Y74488D01*
X166473Y74523D01*
X166759Y74689D01*
X166992Y74922D01*
X167158Y75208D01*
X167243Y75527D01*
Y75857D01*
X167158Y76176D01*
X166992Y76462D01*
X166759Y76695D01*
X166473Y76861D01*
X166340Y76896D01*
Y77028D01*
X166473Y77063D01*
X166759Y77229D01*
X166992Y77462D01*
X167158Y77748D01*
X167243Y78067D01*
Y78397D01*
X167158Y78716D01*
X166992Y79002D01*
X166759Y79235D01*
X166473Y79401D01*
X166154Y79486D01*
D02*
G37*
G36*
X131102Y76311D02*
X130772D01*
X130453Y76226D01*
X130167Y76060D01*
X129934Y75827D01*
X129768Y75541D01*
X129683Y75222D01*
Y74892D01*
X129768Y74573D01*
X129934Y74287D01*
X130167Y74054D01*
X130453Y73888D01*
X130586Y73853D01*
Y73721D01*
X130453Y73686D01*
X130167Y73520D01*
X129934Y73287D01*
X129768Y73001D01*
X129683Y72682D01*
Y72644D01*
X130937D01*
X132191D01*
Y72682D01*
X132106Y73001D01*
X131940Y73287D01*
X131707Y73520D01*
X131421Y73686D01*
X131288Y73721D01*
Y73853D01*
X131421Y73888D01*
X131707Y74054D01*
X131940Y74287D01*
X132106Y74573D01*
X132191Y74892D01*
Y75222D01*
X132106Y75541D01*
X131940Y75827D01*
X131707Y76060D01*
X131421Y76226D01*
X131102Y76311D01*
D02*
G37*
G36*
X157477Y93373D02*
X143963D01*
X143856Y93359D01*
X135763D01*
X135592Y93336D01*
X135433Y93270D01*
X135297Y93165D01*
X135192Y93029D01*
X135126Y92870D01*
X135103Y92699D01*
X135126Y92528D01*
X135192Y92369D01*
X135216Y92338D01*
X135183Y92172D01*
X134993Y92062D01*
X134760Y91829D01*
X134594Y91543D01*
X134509Y91224D01*
Y90894D01*
X134594Y90575D01*
X134760Y90289D01*
X134993Y90056D01*
X135279Y89890D01*
X135412Y89855D01*
Y89723D01*
X135279Y89688D01*
X134993Y89522D01*
X134760Y89289D01*
X134594Y89003D01*
X134509Y88684D01*
Y88354D01*
X134594Y88035D01*
X134760Y87749D01*
X134993Y87516D01*
X135279Y87350D01*
X135412Y87315D01*
Y87183D01*
X135279Y87148D01*
X134993Y86982D01*
X134760Y86749D01*
X134594Y86463D01*
X134509Y86144D01*
Y85814D01*
X134594Y85495D01*
X134760Y85209D01*
X134993Y84976D01*
X135279Y84810D01*
X135412Y84775D01*
Y84643D01*
X135279Y84608D01*
X134993Y84442D01*
X134760Y84209D01*
X134594Y83923D01*
X134509Y83604D01*
Y83274D01*
X134594Y82955D01*
X134760Y82669D01*
X134993Y82436D01*
X135279Y82270D01*
X135412Y82235D01*
Y82103D01*
X135279Y82068D01*
X134993Y81902D01*
X134760Y81669D01*
X134594Y81383D01*
X134509Y81064D01*
Y80734D01*
X134594Y80415D01*
X134760Y80129D01*
X134993Y79896D01*
X135279Y79730D01*
X135412Y79695D01*
Y79563D01*
X135279Y79528D01*
X134993Y79362D01*
X134760Y79129D01*
X134594Y78843D01*
X134509Y78524D01*
Y78194D01*
X134594Y77875D01*
X134760Y77589D01*
X134993Y77356D01*
X135279Y77190D01*
X135412Y77155D01*
Y77023D01*
X135279Y76988D01*
X134993Y76822D01*
X134760Y76589D01*
X134594Y76303D01*
X134509Y75984D01*
Y75654D01*
X134594Y75335D01*
X134760Y75049D01*
X134993Y74816D01*
X135279Y74650D01*
X135412Y74615D01*
Y74483D01*
X135279Y74448D01*
X134993Y74282D01*
X134760Y74049D01*
X134645Y73850D01*
X134518Y73884D01*
Y75057D01*
X134495Y75228D01*
X134429Y75387D01*
X134324Y75523D01*
X134188Y75628D01*
X134029Y75694D01*
X133858Y75717D01*
X133687Y75694D01*
X133528Y75628D01*
X133392Y75523D01*
X133287Y75387D01*
X133221Y75228D01*
X133198Y75057D01*
Y47879D01*
X133221Y47708D01*
X133287Y47549D01*
X133392Y47413D01*
X133528Y47308D01*
X133687Y47242D01*
X133858Y47219D01*
X134029Y47242D01*
X134188Y47308D01*
X134324Y47413D01*
X134424Y47542D01*
X134457Y47545D01*
X134558Y47529D01*
X134594Y47395D01*
X134760Y47109D01*
X134993Y46876D01*
X135279Y46710D01*
X135412Y46675D01*
Y46543D01*
X135279Y46508D01*
X134993Y46342D01*
X134760Y46109D01*
X134594Y45823D01*
X134509Y45504D01*
Y45466D01*
X135763D01*
X137017D01*
Y45504D01*
X136932Y45823D01*
X136766Y46109D01*
X136533Y46342D01*
X136247Y46508D01*
X136114Y46543D01*
Y46675D01*
X136247Y46710D01*
X136533Y46876D01*
X136766Y47109D01*
X136932Y47395D01*
X137017Y47714D01*
Y48044D01*
X136932Y48363D01*
X136766Y48649D01*
X136533Y48882D01*
X136247Y49048D01*
X136114Y49083D01*
Y49215D01*
X136247Y49250D01*
X136533Y49416D01*
X136766Y49649D01*
X136932Y49935D01*
X137017Y50254D01*
Y50584D01*
X136932Y50903D01*
X136766Y51189D01*
X136533Y51422D01*
X136247Y51588D01*
X136114Y51623D01*
Y51755D01*
X136247Y51790D01*
X136533Y51956D01*
X136766Y52189D01*
X136932Y52475D01*
X137017Y52794D01*
Y53124D01*
X136932Y53443D01*
X136766Y53729D01*
X136533Y53962D01*
X136247Y54128D01*
X136114Y54163D01*
Y54295D01*
X136247Y54330D01*
X136533Y54496D01*
X136766Y54729D01*
X136932Y55015D01*
X137017Y55334D01*
Y55664D01*
X136932Y55983D01*
X136766Y56269D01*
X136533Y56502D01*
X136247Y56668D01*
X136114Y56703D01*
Y56835D01*
X136247Y56870D01*
X136533Y57036D01*
X136766Y57269D01*
X136932Y57555D01*
X137017Y57874D01*
Y58204D01*
X136932Y58523D01*
X136766Y58809D01*
X136533Y59042D01*
X136247Y59208D01*
X136114Y59243D01*
Y59375D01*
X136247Y59410D01*
X136533Y59576D01*
X136766Y59809D01*
X136932Y60095D01*
X137017Y60414D01*
Y60744D01*
X136932Y61063D01*
X136766Y61349D01*
X136533Y61582D01*
X136247Y61748D01*
X136114Y61783D01*
Y61915D01*
X136247Y61950D01*
X136533Y62116D01*
X136766Y62349D01*
X136932Y62635D01*
X137017Y62954D01*
Y63284D01*
X136932Y63603D01*
X136766Y63889D01*
X136533Y64122D01*
X136247Y64288D01*
X136114Y64323D01*
Y64455D01*
X136247Y64490D01*
X136533Y64656D01*
X136766Y64889D01*
X136932Y65175D01*
X137017Y65494D01*
Y65824D01*
X136932Y66143D01*
X136766Y66429D01*
X136533Y66662D01*
X136247Y66828D01*
X136114Y66863D01*
Y66995D01*
X136247Y67030D01*
X136533Y67196D01*
X136766Y67429D01*
X136932Y67715D01*
X137017Y68034D01*
Y68364D01*
X136932Y68683D01*
X136766Y68969D01*
X136533Y69202D01*
X136247Y69368D01*
X136114Y69403D01*
Y69535D01*
X136247Y69570D01*
X136533Y69736D01*
X136766Y69969D01*
X136932Y70255D01*
X137017Y70574D01*
Y70904D01*
X136932Y71223D01*
X136766Y71509D01*
X136533Y71742D01*
X136247Y71908D01*
X136114Y71943D01*
Y72075D01*
X136247Y72110D01*
X136533Y72276D01*
X136766Y72509D01*
X136932Y72795D01*
X137017Y73114D01*
Y73444D01*
X136932Y73763D01*
X136766Y74049D01*
X136533Y74282D01*
X136247Y74448D01*
X136114Y74483D01*
Y74615D01*
X136247Y74650D01*
X136533Y74816D01*
X136766Y75049D01*
X136932Y75335D01*
X137017Y75654D01*
Y75984D01*
X136932Y76303D01*
X136766Y76589D01*
X136533Y76822D01*
X136247Y76988D01*
X136114Y77023D01*
Y77155D01*
X136247Y77190D01*
X136533Y77356D01*
X136766Y77589D01*
X136932Y77875D01*
X137017Y78194D01*
Y78524D01*
X136932Y78843D01*
X136766Y79129D01*
X136533Y79362D01*
X136247Y79528D01*
X136114Y79563D01*
Y79695D01*
X136247Y79730D01*
X136533Y79896D01*
X136766Y80129D01*
X136932Y80415D01*
X137017Y80734D01*
Y81064D01*
X136932Y81383D01*
X136766Y81669D01*
X136533Y81902D01*
X136247Y82068D01*
X136114Y82103D01*
Y82235D01*
X136247Y82270D01*
X136533Y82436D01*
X136766Y82669D01*
X136932Y82955D01*
X137017Y83274D01*
Y83604D01*
X136932Y83923D01*
X136766Y84209D01*
X136533Y84442D01*
X136247Y84608D01*
X136114Y84643D01*
Y84775D01*
X136247Y84810D01*
X136533Y84976D01*
X136766Y85209D01*
X136932Y85495D01*
X137017Y85814D01*
Y86144D01*
X136932Y86463D01*
X136766Y86749D01*
X136533Y86982D01*
X136247Y87148D01*
X136114Y87183D01*
Y87315D01*
X136247Y87350D01*
X136533Y87516D01*
X136766Y87749D01*
X136932Y88035D01*
X137017Y88354D01*
Y88684D01*
X136932Y89003D01*
X136766Y89289D01*
X136533Y89522D01*
X136247Y89688D01*
X136114Y89723D01*
Y89855D01*
X136247Y89890D01*
X136533Y90056D01*
X136766Y90289D01*
X136932Y90575D01*
X137017Y90894D01*
Y91224D01*
X136932Y91543D01*
X136766Y91829D01*
X136673Y91922D01*
X136722Y92039D01*
X143949D01*
X144055Y92053D01*
X150058D01*
X150107Y91936D01*
X150000Y91829D01*
X149834Y91543D01*
X149749Y91224D01*
Y90894D01*
X149834Y90575D01*
X150000Y90289D01*
X150233Y90056D01*
X150519Y89890D01*
X150652Y89855D01*
Y89723D01*
X150519Y89688D01*
X150233Y89522D01*
X150000Y89289D01*
X149834Y89003D01*
X149749Y88684D01*
Y88354D01*
X149834Y88035D01*
X150000Y87749D01*
X150233Y87516D01*
X150519Y87350D01*
X150652Y87315D01*
Y87183D01*
X150519Y87148D01*
X150233Y86982D01*
X150000Y86749D01*
X149834Y86463D01*
X149749Y86144D01*
Y85814D01*
X149834Y85495D01*
X150000Y85209D01*
X150233Y84976D01*
X150519Y84810D01*
X150652Y84775D01*
Y84643D01*
X150519Y84608D01*
X150233Y84442D01*
X150000Y84209D01*
X149834Y83923D01*
X149749Y83604D01*
Y83274D01*
X149834Y82955D01*
X150000Y82669D01*
X150233Y82436D01*
X150519Y82270D01*
X150652Y82235D01*
Y82103D01*
X150519Y82068D01*
X150233Y81902D01*
X150000Y81669D01*
X149834Y81383D01*
X149749Y81064D01*
Y80734D01*
X149834Y80415D01*
X150000Y80129D01*
X150233Y79896D01*
X150519Y79730D01*
X150652Y79695D01*
Y79563D01*
X150519Y79528D01*
X150233Y79362D01*
X150000Y79129D01*
X149834Y78843D01*
X149749Y78524D01*
Y78194D01*
X149834Y77875D01*
X150000Y77589D01*
X150233Y77356D01*
X150519Y77190D01*
X150652Y77155D01*
Y77023D01*
X150519Y76988D01*
X150233Y76822D01*
X150000Y76589D01*
X149834Y76303D01*
X149749Y75984D01*
Y75654D01*
X149834Y75335D01*
X150000Y75049D01*
X150233Y74816D01*
X150519Y74650D01*
X150652Y74615D01*
Y74483D01*
X150519Y74448D01*
X150233Y74282D01*
X150000Y74049D01*
X149834Y73763D01*
X149749Y73444D01*
Y73114D01*
X149834Y72795D01*
X150000Y72509D01*
X150233Y72276D01*
X150519Y72110D01*
X150652Y72075D01*
Y71943D01*
X150519Y71908D01*
X150233Y71742D01*
X150000Y71509D01*
X149834Y71223D01*
X149749Y70904D01*
Y70574D01*
X149834Y70255D01*
X150000Y69969D01*
X150233Y69736D01*
X150519Y69570D01*
X150652Y69535D01*
Y69403D01*
X150519Y69368D01*
X150233Y69202D01*
X150000Y68969D01*
X149834Y68683D01*
X149749Y68364D01*
Y68034D01*
X149834Y67715D01*
X150000Y67429D01*
X150233Y67196D01*
X150519Y67030D01*
X150652Y66995D01*
Y66863D01*
X150519Y66828D01*
X150233Y66662D01*
X150000Y66429D01*
X149834Y66143D01*
X149749Y65824D01*
Y65494D01*
X149834Y65175D01*
X150000Y64889D01*
X150233Y64656D01*
X150519Y64490D01*
X150652Y64455D01*
Y64323D01*
X150519Y64288D01*
X150233Y64122D01*
X150000Y63889D01*
X149834Y63603D01*
X149749Y63284D01*
Y62954D01*
X149834Y62635D01*
X150000Y62349D01*
X150233Y62116D01*
X150519Y61950D01*
X150652Y61915D01*
Y61783D01*
X150519Y61748D01*
X150233Y61582D01*
X150000Y61349D01*
X149834Y61063D01*
X149749Y60744D01*
Y60414D01*
X149834Y60095D01*
X150000Y59809D01*
X150233Y59576D01*
X150519Y59410D01*
X150652Y59375D01*
Y59243D01*
X150519Y59208D01*
X150233Y59042D01*
X150000Y58809D01*
X149834Y58523D01*
X149749Y58204D01*
Y57874D01*
X149834Y57555D01*
X150000Y57269D01*
X150233Y57036D01*
X150519Y56870D01*
X150652Y56835D01*
Y56703D01*
X150519Y56668D01*
X150233Y56502D01*
X150000Y56269D01*
X149834Y55983D01*
X149749Y55664D01*
Y55334D01*
X149834Y55015D01*
X150000Y54729D01*
X150233Y54496D01*
X150519Y54330D01*
X150652Y54295D01*
Y54163D01*
X150519Y54128D01*
X150233Y53962D01*
X150000Y53729D01*
X149834Y53443D01*
X149749Y53124D01*
Y52794D01*
X149834Y52475D01*
X150000Y52189D01*
X150233Y51956D01*
X150519Y51790D01*
X150652Y51755D01*
Y51623D01*
X150519Y51588D01*
X150233Y51422D01*
X150000Y51189D01*
X149834Y50903D01*
X149749Y50584D01*
Y50254D01*
X149834Y49935D01*
X150000Y49649D01*
X150233Y49416D01*
X150519Y49250D01*
X150652Y49215D01*
Y49083D01*
X150519Y49048D01*
X150233Y48882D01*
X150000Y48649D01*
X149834Y48363D01*
X149749Y48044D01*
Y47714D01*
X149834Y47395D01*
X150000Y47109D01*
X150233Y46876D01*
X150519Y46710D01*
X150652Y46675D01*
Y46543D01*
X150519Y46508D01*
X150233Y46342D01*
X150000Y46109D01*
X149834Y45823D01*
X149749Y45504D01*
Y45174D01*
X149834Y44855D01*
X150000Y44569D01*
X150233Y44336D01*
X150519Y44170D01*
X150652Y44135D01*
Y44003D01*
X150519Y43968D01*
X150233Y43802D01*
X150000Y43569D01*
X149834Y43283D01*
X149749Y42964D01*
Y42634D01*
X149834Y42315D01*
X150000Y42029D01*
X150233Y41796D01*
X150519Y41630D01*
X150838Y41545D01*
X151168D01*
X151487Y41630D01*
X151773Y41796D01*
X152006Y42029D01*
X152172Y42315D01*
X152257Y42634D01*
Y42964D01*
X152172Y43283D01*
X152006Y43569D01*
X151773Y43802D01*
X151487Y43968D01*
X151354Y44003D01*
Y44135D01*
X151487Y44170D01*
X151773Y44336D01*
X152006Y44569D01*
X152172Y44855D01*
X152257Y45174D01*
Y45504D01*
X152172Y45823D01*
X152006Y46109D01*
X151773Y46342D01*
X151487Y46508D01*
X151354Y46543D01*
Y46675D01*
X151487Y46710D01*
X151773Y46876D01*
X152006Y47109D01*
X152172Y47395D01*
X152257Y47714D01*
Y48044D01*
X152172Y48363D01*
X152006Y48649D01*
X151773Y48882D01*
X151487Y49048D01*
X151354Y49083D01*
Y49215D01*
X151487Y49250D01*
X151773Y49416D01*
X152006Y49649D01*
X152172Y49935D01*
X152257Y50254D01*
Y50584D01*
X152172Y50903D01*
X152006Y51189D01*
X151773Y51422D01*
X151487Y51588D01*
X151354Y51623D01*
Y51755D01*
X151487Y51790D01*
X151773Y51956D01*
X152006Y52189D01*
X152172Y52475D01*
X152257Y52794D01*
Y53124D01*
X152172Y53443D01*
X152006Y53729D01*
X151773Y53962D01*
X151487Y54128D01*
X151354Y54163D01*
Y54295D01*
X151487Y54330D01*
X151773Y54496D01*
X152006Y54729D01*
X152172Y55015D01*
X152257Y55334D01*
Y55664D01*
X152172Y55983D01*
X152006Y56269D01*
X151773Y56502D01*
X151487Y56668D01*
X151354Y56703D01*
Y56835D01*
X151487Y56870D01*
X151773Y57036D01*
X152006Y57269D01*
X152172Y57555D01*
X152257Y57874D01*
Y58204D01*
X152172Y58523D01*
X152006Y58809D01*
X151773Y59042D01*
X151487Y59208D01*
X151354Y59243D01*
Y59375D01*
X151487Y59410D01*
X151773Y59576D01*
X152006Y59809D01*
X152172Y60095D01*
X152257Y60414D01*
Y60744D01*
X152172Y61063D01*
X152006Y61349D01*
X151773Y61582D01*
X151487Y61748D01*
X151354Y61783D01*
Y61915D01*
X151487Y61950D01*
X151773Y62116D01*
X152006Y62349D01*
X152172Y62635D01*
X152257Y62954D01*
Y63284D01*
X152172Y63603D01*
X152006Y63889D01*
X151773Y64122D01*
X151487Y64288D01*
X151354Y64323D01*
Y64455D01*
X151487Y64490D01*
X151773Y64656D01*
X152006Y64889D01*
X152172Y65175D01*
X152257Y65494D01*
Y65824D01*
X152172Y66143D01*
X152006Y66429D01*
X151773Y66662D01*
X151487Y66828D01*
X151354Y66863D01*
Y66995D01*
X151487Y67030D01*
X151773Y67196D01*
X152006Y67429D01*
X152172Y67715D01*
X152257Y68034D01*
Y68364D01*
X152172Y68683D01*
X152006Y68969D01*
X151773Y69202D01*
X151487Y69368D01*
X151354Y69403D01*
Y69535D01*
X151487Y69570D01*
X151773Y69736D01*
X152006Y69969D01*
X152172Y70255D01*
X152257Y70574D01*
Y70904D01*
X152172Y71223D01*
X152006Y71509D01*
X151773Y71742D01*
X151487Y71908D01*
X151354Y71943D01*
Y72075D01*
X151487Y72110D01*
X151773Y72276D01*
X152006Y72509D01*
X152172Y72795D01*
X152257Y73114D01*
Y73444D01*
X152172Y73763D01*
X152006Y74049D01*
X151773Y74282D01*
X151487Y74448D01*
X151354Y74483D01*
Y74615D01*
X151487Y74650D01*
X151773Y74816D01*
X152006Y75049D01*
X152172Y75335D01*
X152257Y75654D01*
Y75984D01*
X152172Y76303D01*
X152006Y76589D01*
X151773Y76822D01*
X151487Y76988D01*
X151354Y77023D01*
Y77155D01*
X151487Y77190D01*
X151773Y77356D01*
X152006Y77589D01*
X152172Y77875D01*
X152257Y78194D01*
Y78524D01*
X152172Y78843D01*
X152006Y79129D01*
X151773Y79362D01*
X151487Y79528D01*
X151354Y79563D01*
Y79695D01*
X151487Y79730D01*
X151773Y79896D01*
X152006Y80129D01*
X152172Y80415D01*
X152257Y80734D01*
Y81064D01*
X152172Y81383D01*
X152006Y81669D01*
X151773Y81902D01*
X151487Y82068D01*
X151354Y82103D01*
Y82235D01*
X151487Y82270D01*
X151773Y82436D01*
X152006Y82669D01*
X152172Y82955D01*
X152257Y83274D01*
Y83604D01*
X152172Y83923D01*
X152006Y84209D01*
X151773Y84442D01*
X151487Y84608D01*
X151354Y84643D01*
Y84775D01*
X151487Y84810D01*
X151773Y84976D01*
X152006Y85209D01*
X152172Y85495D01*
X152257Y85814D01*
Y86144D01*
X152172Y86463D01*
X152006Y86749D01*
X151773Y86982D01*
X151487Y87148D01*
X151354Y87183D01*
Y87315D01*
X151487Y87350D01*
X151773Y87516D01*
X152006Y87749D01*
X152172Y88035D01*
X152257Y88354D01*
Y88684D01*
X152172Y89003D01*
X152006Y89289D01*
X151773Y89522D01*
X151487Y89688D01*
X151354Y89723D01*
Y89855D01*
X151487Y89890D01*
X151773Y90056D01*
X152006Y90289D01*
X152172Y90575D01*
X152257Y90894D01*
Y91224D01*
X152172Y91543D01*
X152006Y91829D01*
X151899Y91936D01*
X151948Y92053D01*
X157204D01*
X168123Y81134D01*
Y70612D01*
X168146Y70441D01*
X168212Y70282D01*
X168317Y70146D01*
X168453Y70041D01*
X168612Y69975D01*
X168783Y69952D01*
X168954Y69975D01*
X169113Y70041D01*
X169249Y70146D01*
X169354Y70282D01*
X169420Y70441D01*
X169443Y70612D01*
Y81407D01*
X169420Y81578D01*
X169354Y81737D01*
X169249Y81873D01*
X157943Y93179D01*
X157807Y93284D01*
X157648Y93350D01*
X157477Y93373D01*
D02*
G37*
G36*
X167243Y73025D02*
X165989D01*
X164735D01*
Y72987D01*
X164820Y72668D01*
X164986Y72382D01*
X165219Y72149D01*
X165505Y71983D01*
X165638Y71948D01*
Y71816D01*
X165505Y71781D01*
X165219Y71615D01*
X164986Y71382D01*
X164820Y71096D01*
X164735Y70777D01*
Y70447D01*
X164820Y70128D01*
X164986Y69842D01*
X165219Y69609D01*
X165505Y69443D01*
X165824Y69358D01*
X166154D01*
X166473Y69443D01*
X166759Y69609D01*
X166992Y69842D01*
X167158Y70128D01*
X167243Y70447D01*
Y70777D01*
X167158Y71096D01*
X166992Y71382D01*
X166759Y71615D01*
X166473Y71781D01*
X166340Y71816D01*
Y71948D01*
X166473Y71983D01*
X166759Y72149D01*
X166992Y72382D01*
X167158Y72668D01*
X167243Y72987D01*
Y73025D01*
D02*
G37*
G36*
X132191Y72390D02*
X130937D01*
X129683D01*
Y72352D01*
X129768Y72033D01*
X129934Y71747D01*
X130167Y71514D01*
X130453Y71348D01*
X130586Y71313D01*
Y71181D01*
X130453Y71146D01*
X130167Y70980D01*
X129934Y70747D01*
X129768Y70461D01*
X129683Y70142D01*
Y69812D01*
X129768Y69493D01*
X129934Y69207D01*
X130167Y68974D01*
X130453Y68808D01*
X130586Y68773D01*
Y68641D01*
X130453Y68606D01*
X130167Y68440D01*
X129934Y68207D01*
X129768Y67921D01*
X129683Y67602D01*
Y67272D01*
X129768Y66953D01*
X129934Y66667D01*
X130167Y66434D01*
X130453Y66268D01*
X130772Y66183D01*
X131102D01*
X131421Y66268D01*
X131707Y66434D01*
X131940Y66667D01*
X132106Y66953D01*
X132191Y67272D01*
Y67602D01*
X132106Y67921D01*
X131940Y68207D01*
X131707Y68440D01*
X131421Y68606D01*
X131288Y68641D01*
Y68773D01*
X131421Y68808D01*
X131707Y68974D01*
X131940Y69207D01*
X132106Y69493D01*
X132191Y69812D01*
Y70142D01*
X132106Y70461D01*
X131940Y70747D01*
X131707Y70980D01*
X131421Y71146D01*
X131288Y71181D01*
Y71313D01*
X131421Y71348D01*
X131707Y71514D01*
X131940Y71747D01*
X132106Y72033D01*
X132191Y72352D01*
Y72390D01*
D02*
G37*
G36*
X166271Y67178D02*
X166148D01*
Y66040D01*
X167519D01*
X167492Y66240D01*
X167366Y66545D01*
X167165Y66807D01*
X166903Y67008D01*
X166598Y67135D01*
X166271Y67178D01*
D02*
G37*
G36*
X165894D02*
X165771D01*
X165443Y67135D01*
X165138Y67008D01*
X164876Y66807D01*
X164675Y66545D01*
X164549Y66240D01*
X164523Y66040D01*
X165894D01*
Y67178D01*
D02*
G37*
G36*
X163068Y71272D02*
X162897Y71249D01*
X162738Y71183D01*
X162602Y71078D01*
X162497Y70942D01*
X162431Y70783D01*
X162408Y70612D01*
Y63373D01*
X162431Y63202D01*
X162497Y63043D01*
X162602Y62907D01*
X162738Y62802D01*
X162897Y62736D01*
X163068Y62713D01*
X163239Y62736D01*
X163398Y62802D01*
X163534Y62907D01*
X163639Y63043D01*
X163705Y63202D01*
X163728Y63373D01*
Y70612D01*
X163705Y70783D01*
X163639Y70942D01*
X163534Y71078D01*
X163398Y71183D01*
X163239Y71249D01*
X163068Y71272D01*
D02*
G37*
G36*
X158664Y66675D02*
X158264D01*
X157872Y66597D01*
X157502Y66444D01*
X157169Y66221D01*
X156886Y65938D01*
X156664Y65606D01*
X156510Y65236D01*
X156432Y64843D01*
Y64443D01*
X156510Y64050D01*
X156664Y63680D01*
X156886Y63348D01*
X157169Y63065D01*
X157502Y62842D01*
X157872Y62689D01*
X158264Y62611D01*
X158664D01*
X159057Y62689D01*
X159427Y62842D01*
X159760Y63065D01*
X160043Y63348D01*
X160265Y63680D01*
X160418Y64050D01*
X160496Y64443D01*
Y64843D01*
X160418Y65236D01*
X160265Y65606D01*
X160043Y65938D01*
X159760Y66221D01*
X159427Y66444D01*
X159057Y66597D01*
X158664Y66675D01*
D02*
G37*
G36*
X115566Y64638D02*
X115066D01*
X114739Y64595D01*
X114434Y64468D01*
X114172Y64267D01*
X113971Y64005D01*
X113844Y63700D01*
X113801Y63373D01*
X113844Y63046D01*
X113971Y62741D01*
X114172Y62479D01*
X114434Y62278D01*
X114689Y62172D01*
Y62034D01*
X114434Y61928D01*
X114172Y61727D01*
X113971Y61465D01*
X113844Y61160D01*
X113818Y60960D01*
X116814D01*
X116788Y61160D01*
X116661Y61465D01*
X116460Y61727D01*
X116198Y61928D01*
X115943Y62034D01*
Y62172D01*
X116198Y62278D01*
X116460Y62479D01*
X116661Y62741D01*
X116788Y63046D01*
X116831Y63373D01*
X116788Y63700D01*
X116661Y64005D01*
X116460Y64267D01*
X116198Y64468D01*
X115893Y64595D01*
X115566Y64638D01*
D02*
G37*
G36*
X145669Y90804D02*
X145472Y90778D01*
X145289Y90702D01*
X145131Y90581D01*
X145010Y90423D01*
X144934Y90240D01*
X144908Y90043D01*
Y61468D01*
X144934Y61271D01*
X145010Y61088D01*
X145131Y60930D01*
X145289Y60809D01*
X145472Y60733D01*
X145669Y60707D01*
X145866Y60733D01*
X146049Y60809D01*
X146207Y60930D01*
X146328Y61088D01*
X146404Y61271D01*
X146430Y61468D01*
Y90043D01*
X146404Y90240D01*
X146328Y90423D01*
X146207Y90581D01*
X146049Y90702D01*
X145866Y90778D01*
X145669Y90804D01*
D02*
G37*
G36*
X128326Y63957D02*
X127960D01*
X127602Y63886D01*
X127265Y63746D01*
X126961Y63543D01*
X126703Y63285D01*
X126500Y62981D01*
X126360Y62644D01*
X126289Y62286D01*
Y61920D01*
X126360Y61562D01*
X126500Y61225D01*
X126703Y60921D01*
X126961Y60663D01*
X127265Y60460D01*
X127602Y60320D01*
X127960Y60249D01*
X128326D01*
X128684Y60320D01*
X129021Y60460D01*
X129325Y60663D01*
X129583Y60921D01*
X129786Y61225D01*
X129926Y61562D01*
X129997Y61920D01*
Y62286D01*
X129926Y62644D01*
X129786Y62981D01*
X129583Y63285D01*
X129325Y63543D01*
X129021Y63746D01*
X128684Y63886D01*
X128326Y63957D01*
D02*
G37*
G36*
X154178Y71500D02*
X153981Y71474D01*
X153798Y71398D01*
X153640Y71277D01*
X153519Y71119D01*
X153443Y70936D01*
X153417Y70739D01*
Y60960D01*
X153443Y60763D01*
X153519Y60580D01*
X153640Y60422D01*
X153798Y60301D01*
X153981Y60225D01*
X154178Y60199D01*
X154375Y60225D01*
X154558Y60301D01*
X154716Y60422D01*
X154837Y60580D01*
X154913Y60763D01*
X154939Y60960D01*
Y70739D01*
X154913Y70936D01*
X154837Y71119D01*
X154716Y71277D01*
X154558Y71398D01*
X154375Y71474D01*
X154178Y71500D01*
D02*
G37*
G36*
X167519Y65786D02*
X164523D01*
X164549Y65586D01*
X164675Y65281D01*
X164876Y65019D01*
X165138Y64818D01*
X165394Y64712D01*
Y64574D01*
X165138Y64468D01*
X164876Y64267D01*
X164675Y64005D01*
X164549Y63700D01*
X164506Y63373D01*
X164549Y63046D01*
X164675Y62741D01*
X164876Y62479D01*
X165138Y62278D01*
X165253Y62230D01*
Y62103D01*
X165138Y62055D01*
X164876Y61854D01*
X164675Y61592D01*
X164549Y61287D01*
X164506Y60960D01*
X164549Y60633D01*
X164675Y60328D01*
X164876Y60066D01*
X165138Y59865D01*
X165443Y59738D01*
X165771Y59695D01*
X166271D01*
X166598Y59738D01*
X166903Y59865D01*
X167165Y60066D01*
X167366Y60328D01*
X167492Y60633D01*
X167536Y60960D01*
X167492Y61287D01*
X167366Y61592D01*
X167165Y61854D01*
X166903Y62055D01*
X166788Y62103D01*
Y62230D01*
X166903Y62278D01*
X167165Y62479D01*
X167366Y62741D01*
X167492Y63046D01*
X167536Y63373D01*
X167492Y63700D01*
X167366Y64005D01*
X167165Y64267D01*
X166903Y64468D01*
X166647Y64574D01*
Y64712D01*
X166903Y64818D01*
X167165Y65019D01*
X167366Y65281D01*
X167492Y65586D01*
X167519Y65786D01*
D02*
G37*
G36*
X166271Y59558D02*
X165771D01*
X165443Y59515D01*
X165138Y59388D01*
X164876Y59187D01*
X164675Y58925D01*
X164549Y58620D01*
X164506Y58293D01*
X164549Y57966D01*
X164675Y57661D01*
X164876Y57399D01*
X165138Y57198D01*
X165443Y57071D01*
X165771Y57028D01*
X166271D01*
X166598Y57071D01*
X166903Y57198D01*
X167165Y57399D01*
X167366Y57661D01*
X167492Y57966D01*
X167536Y58293D01*
X167492Y58620D01*
X167366Y58925D01*
X167165Y59187D01*
X166903Y59388D01*
X166598Y59515D01*
X166271Y59558D01*
D02*
G37*
G36*
Y56891D02*
X166148D01*
Y55753D01*
X167519D01*
X167492Y55953D01*
X167366Y56258D01*
X167165Y56520D01*
X166903Y56721D01*
X166598Y56848D01*
X166271Y56891D01*
D02*
G37*
G36*
X165894D02*
X165771D01*
X165443Y56848D01*
X165138Y56721D01*
X164876Y56520D01*
X164675Y56258D01*
X164549Y55953D01*
X164523Y55753D01*
X165894D01*
Y56891D01*
D02*
G37*
G36*
X138430Y62229D02*
X138233Y62203D01*
X138050Y62127D01*
X137892Y62006D01*
X137771Y61848D01*
X137695Y61665D01*
X137669Y61468D01*
Y55499D01*
X137695Y55302D01*
X137771Y55119D01*
X137892Y54961D01*
X138050Y54840D01*
X138233Y54764D01*
X138430Y54738D01*
X138627Y54764D01*
X138810Y54840D01*
X138968Y54961D01*
X139089Y55119D01*
X139165Y55302D01*
X139191Y55499D01*
Y61468D01*
X139165Y61665D01*
X139089Y61848D01*
X138968Y62006D01*
X138810Y62127D01*
X138627Y62203D01*
X138430Y62229D01*
D02*
G37*
G36*
X158664Y56515D02*
X158264D01*
X157872Y56437D01*
X157502Y56284D01*
X157169Y56061D01*
X156886Y55778D01*
X156664Y55446D01*
X156510Y55076D01*
X156432Y54683D01*
Y54283D01*
X156510Y53890D01*
X156664Y53520D01*
X156886Y53188D01*
X157169Y52905D01*
X157502Y52682D01*
X157872Y52529D01*
X158264Y52451D01*
X158664D01*
X159057Y52529D01*
X159427Y52682D01*
X159760Y52905D01*
X160043Y53188D01*
X160265Y53520D01*
X160418Y53890D01*
X160496Y54283D01*
Y54683D01*
X160418Y55076D01*
X160265Y55446D01*
X160043Y55778D01*
X159760Y56061D01*
X159427Y56284D01*
X159057Y56437D01*
X158664Y56515D01*
D02*
G37*
G36*
X154178Y58953D02*
X154007Y58930D01*
X153848Y58864D01*
X153712Y58759D01*
X153607Y58623D01*
X153541Y58464D01*
X153518Y58293D01*
Y52959D01*
X153541Y52788D01*
X153607Y52629D01*
X153712Y52493D01*
X153848Y52388D01*
X154007Y52322D01*
X154178Y52299D01*
X154349Y52322D01*
X154508Y52388D01*
X154644Y52493D01*
X154749Y52629D01*
X154815Y52788D01*
X154838Y52959D01*
Y58293D01*
X154815Y58464D01*
X154749Y58623D01*
X154644Y58759D01*
X154508Y58864D01*
X154349Y58930D01*
X154178Y58953D01*
D02*
G37*
G36*
X167519Y55499D02*
X164523D01*
X164549Y55299D01*
X164675Y54994D01*
X164876Y54732D01*
X165138Y54531D01*
X165394Y54425D01*
Y54287D01*
X165138Y54181D01*
X164876Y53980D01*
X164675Y53718D01*
X164549Y53413D01*
X164506Y53086D01*
X164549Y52759D01*
X164675Y52454D01*
X164876Y52192D01*
X165138Y51991D01*
X165443Y51864D01*
X165771Y51821D01*
X166271D01*
X166598Y51864D01*
X166903Y51991D01*
X167165Y52192D01*
X167366Y52454D01*
X167492Y52759D01*
X167536Y53086D01*
X167492Y53413D01*
X167366Y53718D01*
X167165Y53980D01*
X166903Y54181D01*
X166647Y54287D01*
Y54425D01*
X166903Y54531D01*
X167165Y54732D01*
X167366Y54994D01*
X167492Y55299D01*
X167519Y55499D01*
D02*
G37*
G36*
X116814Y60706D02*
X113818D01*
X113844Y60506D01*
X113971Y60201D01*
X114172Y59939D01*
X114434Y59738D01*
X114689Y59632D01*
Y59494D01*
X114434Y59388D01*
X114172Y59187D01*
X113971Y58925D01*
X113844Y58620D01*
X113801Y58293D01*
X113844Y57966D01*
X113971Y57661D01*
X114172Y57399D01*
X114434Y57198D01*
X114689Y57092D01*
Y56954D01*
X114434Y56848D01*
X114172Y56647D01*
X113971Y56385D01*
X113844Y56080D01*
X113801Y55753D01*
X113844Y55426D01*
X113971Y55121D01*
X114172Y54859D01*
X114434Y54658D01*
X114689Y54552D01*
Y54414D01*
X114434Y54308D01*
X114172Y54107D01*
X113971Y53845D01*
X113844Y53540D01*
X113801Y53213D01*
X113844Y52886D01*
X113971Y52581D01*
X114172Y52319D01*
X114434Y52118D01*
X114689Y52012D01*
Y51874D01*
X114434Y51768D01*
X114172Y51567D01*
X113971Y51305D01*
X113844Y51000D01*
X113801Y50673D01*
X113844Y50346D01*
X113971Y50041D01*
X114172Y49779D01*
X114434Y49578D01*
X114689Y49472D01*
Y49334D01*
X114434Y49228D01*
X114172Y49027D01*
X113971Y48765D01*
X113844Y48460D01*
X113818Y48260D01*
X116814D01*
X116788Y48460D01*
X116661Y48765D01*
X116460Y49027D01*
X116198Y49228D01*
X115943Y49334D01*
Y49472D01*
X116198Y49578D01*
X116460Y49779D01*
X116661Y50041D01*
X116788Y50346D01*
X116831Y50673D01*
X116788Y51000D01*
X116661Y51305D01*
X116460Y51567D01*
X116198Y51768D01*
X115943Y51874D01*
Y52012D01*
X116198Y52118D01*
X116460Y52319D01*
X116661Y52581D01*
X116788Y52886D01*
X116831Y53213D01*
X116788Y53540D01*
X116661Y53845D01*
X116460Y54107D01*
X116198Y54308D01*
X115943Y54414D01*
Y54552D01*
X116198Y54658D01*
X116460Y54859D01*
X116661Y55121D01*
X116788Y55426D01*
X116831Y55753D01*
X116788Y56080D01*
X116661Y56385D01*
X116460Y56647D01*
X116198Y56848D01*
X115943Y56954D01*
Y57092D01*
X116198Y57198D01*
X116460Y57399D01*
X116661Y57661D01*
X116788Y57966D01*
X116831Y58293D01*
X116788Y58620D01*
X116661Y58925D01*
X116460Y59187D01*
X116198Y59388D01*
X115943Y59494D01*
Y59632D01*
X116198Y59738D01*
X116460Y59939D01*
X116661Y60201D01*
X116788Y60506D01*
X116814Y60706D01*
D02*
G37*
G36*
X170307Y96164D02*
X170136Y96141D01*
X169977Y96075D01*
X169841Y95970D01*
X169736Y95834D01*
X169670Y95675D01*
X169647Y95504D01*
Y47879D01*
X169670Y47708D01*
X169736Y47549D01*
X169841Y47413D01*
X169977Y47308D01*
X170136Y47242D01*
X170307Y47219D01*
X170478Y47242D01*
X170637Y47308D01*
X170773Y47413D01*
X170878Y47549D01*
X170944Y47708D01*
X170967Y47879D01*
Y95504D01*
X170944Y95675D01*
X170878Y95834D01*
X170773Y95970D01*
X170637Y96075D01*
X170478Y96141D01*
X170307Y96164D01*
D02*
G37*
G36*
X128326Y48463D02*
X127960D01*
X127602Y48392D01*
X127265Y48252D01*
X126961Y48049D01*
X126703Y47791D01*
X126500Y47487D01*
X126360Y47150D01*
X126289Y46792D01*
Y46426D01*
X126360Y46068D01*
X126500Y45731D01*
X126703Y45427D01*
X126961Y45169D01*
X127265Y44966D01*
X127602Y44826D01*
X127960Y44755D01*
X128326D01*
X128684Y44826D01*
X129021Y44966D01*
X129325Y45169D01*
X129583Y45427D01*
X129786Y45731D01*
X129926Y46068D01*
X129997Y46426D01*
Y46792D01*
X129926Y47150D01*
X129786Y47487D01*
X129583Y47791D01*
X129325Y48049D01*
X129021Y48252D01*
X128684Y48392D01*
X128326Y48463D01*
D02*
G37*
G36*
X116814Y48006D02*
X113818D01*
X113844Y47806D01*
X113971Y47501D01*
X114172Y47239D01*
X114434Y47038D01*
X114689Y46932D01*
Y46794D01*
X114434Y46688D01*
X114172Y46487D01*
X113971Y46225D01*
X113844Y45920D01*
X113801Y45593D01*
X113844Y45266D01*
X113971Y44961D01*
X114172Y44699D01*
X114434Y44498D01*
X114739Y44371D01*
X115066Y44328D01*
X115566D01*
X115893Y44371D01*
X116198Y44498D01*
X116460Y44699D01*
X116661Y44961D01*
X116788Y45266D01*
X116831Y45593D01*
X116788Y45920D01*
X116661Y46225D01*
X116460Y46487D01*
X116198Y46688D01*
X115943Y46794D01*
Y46932D01*
X116198Y47038D01*
X116460Y47239D01*
X116661Y47501D01*
X116788Y47806D01*
X116814Y48006D01*
D02*
G37*
G36*
X147955Y46761D02*
X147784Y46738D01*
X147625Y46672D01*
X147489Y46567D01*
X147384Y46431D01*
X147318Y46272D01*
X147295Y46101D01*
Y44342D01*
X144380Y41427D01*
X135977D01*
X135960Y41554D01*
X136247Y41630D01*
X136533Y41796D01*
X136766Y42029D01*
X136932Y42315D01*
X137017Y42634D01*
Y42964D01*
X136932Y43283D01*
X136766Y43569D01*
X136533Y43802D01*
X136247Y43968D01*
X136114Y44003D01*
Y44135D01*
X136247Y44170D01*
X136533Y44336D01*
X136766Y44569D01*
X136932Y44855D01*
X137017Y45174D01*
Y45212D01*
X135763D01*
X134509D01*
Y45174D01*
X134594Y44855D01*
X134760Y44569D01*
X134993Y44336D01*
X135279Y44170D01*
X135412Y44135D01*
Y44003D01*
X135279Y43968D01*
X134993Y43802D01*
X134760Y43569D01*
X134594Y43283D01*
X134509Y42964D01*
Y42634D01*
X134594Y42315D01*
X134760Y42029D01*
X134993Y41796D01*
X135279Y41630D01*
X135566Y41554D01*
X135549Y41427D01*
X124587D01*
X124416Y41404D01*
X124257Y41338D01*
X124121Y41233D01*
X124016Y41097D01*
X123950Y40938D01*
X123927Y40767D01*
X123950Y40596D01*
X124016Y40437D01*
X124121Y40301D01*
X124257Y40196D01*
X124416Y40130D01*
X124587Y40107D01*
X144653D01*
X144824Y40130D01*
X144983Y40196D01*
X145119Y40301D01*
X148421Y43603D01*
X148526Y43739D01*
X148592Y43898D01*
X148615Y44069D01*
Y46101D01*
X148592Y46272D01*
X148526Y46431D01*
X148421Y46567D01*
X148285Y46672D01*
X148126Y46738D01*
X147955Y46761D01*
D02*
G37*
G36*
X166116Y48539D02*
X165945Y48516D01*
X165786Y48450D01*
X165650Y48345D01*
X165545Y48209D01*
X165479Y48050D01*
X165456Y47879D01*
Y40640D01*
X165479Y40469D01*
X165545Y40310D01*
X165650Y40174D01*
X165786Y40069D01*
X165945Y40003D01*
X166116Y39980D01*
X166287Y40003D01*
X166446Y40069D01*
X166582Y40174D01*
X166687Y40310D01*
X166753Y40469D01*
X166776Y40640D01*
Y47879D01*
X166753Y48050D01*
X166687Y48209D01*
X166582Y48345D01*
X166446Y48450D01*
X166287Y48516D01*
X166116Y48539D01*
D02*
G37*
G36*
X117729Y73812D02*
X117558Y73789D01*
X117399Y73723D01*
X117263Y73618D01*
X117158Y73482D01*
X117092Y73323D01*
X117069Y73152D01*
X117069Y40132D01*
X117092Y39961D01*
X117158Y39802D01*
X117263Y39666D01*
X117399Y39561D01*
X117558Y39495D01*
X117729Y39472D01*
X117900Y39495D01*
X118059Y39561D01*
X118195Y39666D01*
X118300Y39802D01*
X118366Y39961D01*
X118389Y40132D01*
X118389Y73152D01*
X118366Y73323D01*
X118300Y73482D01*
X118195Y73618D01*
X118059Y73723D01*
X117900Y73789D01*
X117729Y73812D01*
D02*
G37*
G36*
X138938Y39268D02*
X112522D01*
X112351Y39245D01*
X112192Y39179D01*
X112056Y39074D01*
X111951Y38938D01*
X111885Y38779D01*
X111862Y38608D01*
X111885Y38437D01*
X111951Y38278D01*
X112056Y38142D01*
X112192Y38037D01*
X112351Y37971D01*
X112522Y37948D01*
X138938D01*
X139109Y37971D01*
X139268Y38037D01*
X139404Y38142D01*
X139509Y38278D01*
X139575Y38437D01*
X139598Y38608D01*
X139575Y38779D01*
X139509Y38938D01*
X139404Y39074D01*
X139268Y39179D01*
X139109Y39245D01*
X138938Y39268D01*
D02*
G37*
G36*
X168529Y35178D02*
X115824D01*
X115627Y35152D01*
X115444Y35076D01*
X115286Y34955D01*
X115165Y34797D01*
X115089Y34614D01*
X115063Y34417D01*
X115089Y34220D01*
X115165Y34037D01*
X115286Y33879D01*
X115444Y33758D01*
X115627Y33682D01*
X115824Y33656D01*
X168529D01*
X168726Y33682D01*
X168909Y33758D01*
X169067Y33879D01*
X169188Y34037D01*
X169264Y34220D01*
X169290Y34417D01*
X169264Y34614D01*
X169188Y34797D01*
X169067Y34955D01*
X168909Y35076D01*
X168726Y35152D01*
X168529Y35178D01*
D02*
G37*
G36*
X112016Y33734D02*
X111504D01*
X110998Y33654D01*
X110511Y33496D01*
X110055Y33263D01*
X109640Y32962D01*
X109278Y32600D01*
X108977Y32185D01*
X108744Y31729D01*
X108586Y31242D01*
X108506Y30736D01*
Y30224D01*
X108586Y29718D01*
X108744Y29231D01*
X108977Y28775D01*
X109278Y28360D01*
X109640Y27998D01*
X110055Y27697D01*
X110511Y27464D01*
X110998Y27306D01*
X111504Y27226D01*
X112016D01*
X112522Y27306D01*
X113009Y27464D01*
X113465Y27697D01*
X113880Y27998D01*
X114242Y28360D01*
X114543Y28775D01*
X114776Y29231D01*
X114934Y29718D01*
X115014Y30224D01*
Y30736D01*
X114934Y31242D01*
X114776Y31729D01*
X114543Y32185D01*
X114242Y32600D01*
X113880Y32962D01*
X113465Y33263D01*
X113009Y33496D01*
X112522Y33654D01*
X112016Y33734D01*
D02*
G37*
G36*
X171706Y33353D02*
X171194D01*
X170688Y33273D01*
X170201Y33115D01*
X169745Y32882D01*
X169330Y32581D01*
X168968Y32219D01*
X168667Y31804D01*
X168434Y31348D01*
X168276Y30861D01*
X168196Y30355D01*
Y29843D01*
X168276Y29337D01*
X168434Y28850D01*
X168667Y28394D01*
X168968Y27979D01*
X169330Y27617D01*
X169745Y27316D01*
X170201Y27083D01*
X170688Y26925D01*
X171194Y26845D01*
X171706D01*
X172212Y26925D01*
X172699Y27083D01*
X173155Y27316D01*
X173570Y27617D01*
X173932Y27979D01*
X174233Y28394D01*
X174466Y28850D01*
X174624Y29337D01*
X174704Y29843D01*
Y30355D01*
X174624Y30861D01*
X174466Y31348D01*
X174233Y31804D01*
X173932Y32219D01*
X173570Y32581D01*
X173155Y32882D01*
X172699Y33115D01*
X172212Y33273D01*
X171706Y33353D01*
D02*
G37*
%LPD*%
D44*
X144653Y40767D02*
X147955Y44069D01*
Y46101D01*
X124587Y40767D02*
X144653D01*
X112522Y38608D02*
X138938D01*
X133858Y47879D02*
Y75057D01*
X143963Y92713D02*
X157477D01*
X143949Y92699D02*
X143963Y92713D01*
X135763Y92699D02*
X143949D01*
X157477Y92713D02*
X168783Y81407D01*
X154178Y52959D02*
Y58293D01*
X163068Y63373D02*
Y70612D01*
X168783D02*
Y81407D01*
X170307Y47879D02*
Y95504D01*
X166116Y40640D02*
Y47879D01*
X117729Y73152D02*
X117729Y40132D01*
D45*
X145669Y61468D02*
Y90043D01*
X138430Y55499D02*
Y61468D01*
X154178Y60960D02*
Y70739D01*
X115824Y34417D02*
X168529D01*
D46*
X118110Y85217D02*
Y87757D01*
X119634Y89281D01*
X121539D01*
X129921Y92329D02*
Y95758D01*
D47*
X135763Y60579D02*
D03*
Y63119D02*
D03*
Y83439D02*
D03*
Y75819D02*
D03*
Y50419D02*
D03*
Y68199D02*
D03*
Y78359D02*
D03*
Y47879D02*
D03*
Y45339D02*
D03*
Y70739D02*
D03*
Y58039D02*
D03*
Y85979D02*
D03*
Y80899D02*
D03*
Y52959D02*
D03*
Y91059D02*
D03*
Y42799D02*
D03*
Y65659D02*
D03*
Y55499D02*
D03*
Y73279D02*
D03*
Y88519D02*
D03*
X151003Y83439D02*
D03*
Y75819D02*
D03*
Y50419D02*
D03*
Y68199D02*
D03*
Y78359D02*
D03*
Y47879D02*
D03*
Y45339D02*
D03*
Y70739D02*
D03*
Y58039D02*
D03*
Y85979D02*
D03*
Y80899D02*
D03*
Y52959D02*
D03*
Y63119D02*
D03*
Y91059D02*
D03*
Y42799D02*
D03*
Y65659D02*
D03*
Y60579D02*
D03*
Y55499D02*
D03*
Y73279D02*
D03*
Y88519D02*
D03*
X165989Y78232D02*
D03*
Y75692D02*
D03*
Y73152D02*
D03*
Y70612D02*
D03*
X130937Y75057D02*
D03*
Y72517D02*
D03*
Y69977D02*
D03*
Y67437D02*
D03*
D48*
X171450Y100330D02*
D03*
X111760D02*
D03*
X171450Y30099D02*
D03*
X111760Y30480D02*
D03*
D49*
X115316Y63373D02*
D03*
Y60833D02*
D03*
Y58293D02*
D03*
Y55753D02*
D03*
Y53213D02*
D03*
Y50673D02*
D03*
Y48133D02*
D03*
Y45593D02*
D03*
X166021Y65913D02*
D03*
Y63373D02*
D03*
Y60960D02*
D03*
Y58293D02*
D03*
Y55626D02*
D03*
Y53086D02*
D03*
D50*
X128143Y62103D02*
D03*
Y46609D02*
D03*
D51*
X158464Y64643D02*
D03*
Y54483D02*
D03*
D52*
X147955Y46101D02*
D03*
X124587Y40767D02*
D03*
X138938Y38608D02*
D03*
X112522D02*
D03*
X145669Y90043D02*
D03*
Y61468D02*
D03*
X138430D02*
D03*
Y55499D02*
D03*
X154178Y52959D02*
D03*
Y58293D02*
D03*
Y70739D02*
D03*
Y60960D02*
D03*
X133858Y47879D02*
D03*
Y75057D02*
D03*
D53*
X118110Y85217D02*
D03*
X163068Y63373D02*
D03*
X135763Y92710D02*
D03*
X168783Y70612D02*
D03*
X135636Y91175D02*
D03*
X168529Y34417D02*
D03*
X115824D02*
D03*
X163068Y70612D02*
D03*
X170307Y47879D02*
D03*
Y95504D02*
D03*
X166116Y47879D02*
D03*
Y40640D02*
D03*
X117729Y73152D02*
D03*
X117729Y40132D02*
D03*
X129921Y92329D02*
D03*
Y95758D02*
D03*
X121539Y89281D02*
D03*
M02*
